<svg width="31" height="20" viewBox="0 0 31 20" fill="none" xmlns="http://www.w3.org/2000/svg">
<path d="M20.6161 0.690552H16.6993C16.3345 0.690552 15.9834 0.83616 15.7143 1.09825L11.232 5.46648C11.2275 5.47134 11.2229 5.48105 11.2184 5.4859C10.4614 6.24306 10.4751 7.4516 11.1226 8.20391C11.7017 8.87856 12.9192 9.05814 13.6807 8.33496C13.6852 8.3301 13.6943 8.3301 13.6989 8.32525L17.3422 4.77242C17.6386 4.48606 18.1037 4.50547 18.3727 4.82096C18.6463 5.13644 18.6235 5.62665 18.3271 5.91787L17.137 7.07788L23.7761 12.8148C23.9083 12.9313 24.0269 13.0575 24.1363 13.1885V3.79685L21.6467 1.14679C21.3776 0.855574 21.0037 0.690552 20.6161 0.690552ZM25.6 3.80656V14.6737C25.6 15.5328 26.2521 16.2269 27.0591 16.2269H29.9774V3.80656H25.6ZM27.7887 14.6737C27.3874 14.6737 27.0591 14.3243 27.0591 13.8972C27.0591 13.4701 27.3874 13.1206 27.7887 13.1206C28.19 13.1206 28.5183 13.4701 28.5183 13.8972C28.5183 14.3243 28.19 14.6737 27.7887 14.6737ZM0.794647 16.222H3.71292C4.52001 16.222 5.17206 15.528 5.17206 14.6689V3.80656H0.794647V16.222ZM2.98336 13.1206C3.38462 13.1206 3.71292 13.4701 3.71292 13.8972C3.71292 14.3243 3.38462 14.6737 2.98336 14.6737C2.58209 14.6737 2.25379 14.3243 2.25379 13.8972C2.25379 13.4652 2.58209 13.1206 2.98336 13.1206ZM22.8596 14.0234L16.0518 8.14081L14.6838 9.47555C13.3296 10.7909 11.2548 10.6647 10.0465 9.26199C8.81991 7.83504 8.91567 5.62665 10.2471 4.32589L13.9771 0.690552H10.1559C9.76835 0.690552 9.39901 0.855574 9.12542 1.14679L6.6312 3.79685V14.664H7.46565L11.5923 18.6391C12.8417 19.7215 14.6793 19.5176 15.6961 18.1877L15.7052 18.178L16.5214 18.9303C17.2464 19.5613 18.318 19.44 18.9062 18.6683L20.338 16.7948L20.5842 17.0083C21.2089 17.5471 22.13 17.45 22.6361 16.7802L23.0693 16.2123C23.58 15.5425 23.4843 14.567 22.8596 14.0234Z" fill="url(#paint0_linear_188_1340)" stroke="white" stroke-width="0.5"/>
<defs>
<linearGradient id="paint0_linear_188_1340" x1="3.49973" y1="-0.999879" x2="36.4997" y2="15.5001" gradientUnits="userSpaceOnUse">
<stop stop-color="#C54A92"/>
<stop offset="1" stop-color="#2E62EB"/>
</linearGradient>
</defs>
</svg>
