<svg width="27" height="28" viewBox="0 0 27 28" fill="none" xmlns="http://www.w3.org/2000/svg">
<path d="M15.7852 14.1605C15.5762 15.08 16.1614 16.0414 17.1228 16.2504C18.0841 16.4594 19.0455 15.8742 19.2545 14.9546L21.8042 4.00349C22.0132 3.08393 21.428 2.12257 20.4666 1.91358C19.5053 1.70459 18.5439 2.28976 18.3349 3.20932L15.7852 14.1605Z" fill="url(#paint0_linear_188_1325)" stroke="white" stroke-width="0.5"/>
<path d="M19.0876 15.2464C19.0876 15.2464 15.4512 11.6517 9.01423 13.4491C9.01423 13.4491 5.21059 14.1178 5.41959 16.0405C5.41959 16.0405 5.29419 20.8055 6.92432 23.6478C8.93908 27.0968 16.2088 27.6854 19.8298 23.6478C20.641 22.7433 20.5641 21.9305 21.0001 20.5C21.0001 19 21.0001 15.5 19.0876 15.2464Z" fill="url(#paint1_linear_188_1325)" stroke="white" stroke-width="0.5"/>
<path d="M12.6073 14.7868C12.7745 15.7482 13.7359 16.3333 14.6972 16.1661C15.6586 15.9989 16.3273 15.0794 16.1602 14.118L14.0702 3.08328C13.9031 2.12192 12.9417 1.53675 11.9803 1.70394C11.019 1.87113 10.3502 2.7907 10.5592 3.75206L12.6073 14.7868" fill="url(#paint2_linear_188_1325)"/>
<path d="M12.6073 14.7868C12.7745 15.7482 13.7359 16.3333 14.6972 16.1661C15.6586 15.9989 16.3273 15.0794 16.1602 14.118L14.0702 3.08328C13.9031 2.12192 12.9417 1.53675 11.9803 1.70394C11.019 1.87113 10.3502 2.7907 10.5592 3.75206L12.6073 14.7868" stroke="white" stroke-width="0.5"/>
<path d="M5.21183 14.244C5.08643 13.2827 5.797 12.4049 6.80016 12.2795H6.84196C7.80332 12.1959 8.72288 12.8647 8.80647 13.8678L9.09906 16.5847C9.22446 17.5461 8.51389 18.4238 7.51073 18.5492H7.46893C6.46577 18.6328 5.58801 17.9641 5.50442 16.9609L5.21183 14.244" fill="url(#paint3_linear_188_1325)"/>
<path d="M5.21183 14.244C5.08643 13.2827 5.797 12.4049 6.80016 12.2795H6.84196C7.80332 12.1959 8.72288 12.8647 8.80647 13.8678L9.09906 16.5847C9.22446 17.5461 8.51389 18.4238 7.51073 18.5492H7.46893C6.46577 18.6328 5.58801 17.9641 5.50442 16.9609L5.21183 14.244" stroke="white" stroke-width="0.5"/>
<path d="M8.5939 12.2795C8.4685 11.3182 9.17907 10.4404 10.1822 10.315H10.224C11.2272 10.2314 12.1049 10.9002 12.1885 11.9034L12.4811 14.6202C12.6065 15.5816 11.896 16.4594 10.8928 16.5848H10.851C9.84784 16.6684 8.97008 15.9996 8.88648 14.9964L8.5939 12.2795" fill="url(#paint4_linear_188_1325)"/>
<path d="M8.5939 12.2795C8.4685 11.3182 9.17907 10.4404 10.1822 10.315H10.224C11.2272 10.2314 12.1049 10.9002 12.1885 11.9034L12.4811 14.6202C12.6065 15.5816 11.896 16.4594 10.8928 16.5848H10.851C9.84784 16.6684 8.97008 15.9996 8.88648 14.9964L8.5939 12.2795" stroke="white" stroke-width="0.5"/>
<path d="M6.91505 17.9647C7.91821 17.8393 8.58698 17.0034 8.50338 16.0002L8.21079 13.2833C8.169 13.0325 8.0436 12.7399 7.91821 12.4891C8.54518 12.7817 8.75417 13.2833 8.83777 13.8685L9.13036 16.5854C9.25575 17.5467 8.54518 18.4245 7.58382 18.5081C6.87325 18.5917 6.20448 18.2155 5.87009 17.6721C6.12088 17.8811 6.49706 18.0065 6.91505 17.9647" fill="white"/>
<path d="M10.2534 16.0001C11.2565 15.8747 11.9671 15.0387 11.8417 14.0773L11.5491 11.3605C11.5073 11.1097 11.3819 10.7753 11.2565 10.5663C11.8417 10.9007 12.0925 11.4022 12.1761 11.9874L12.4687 14.7043C12.5941 15.6657 11.8835 16.5016 10.8803 16.627H10.8385C10.128 16.7106 9.45921 16.3344 9.12482 15.7911C9.45921 15.9583 9.83539 16.0419 10.2534 16.0001" fill="white"/>
<path d="M17.4923 17.8807C15.486 16.9193 10.93 18.5913 11.8495 22.7711C11.8495 18.4241 15.7786 17.6717 17.4923 17.8807Z" fill="white"/>
<path d="M16.7348 13.5755C15.2718 12.6977 15.021 14.0771 12.5549 14.1607C11.4682 14.2025 11.0084 16.4178 12.6385 17.2119C14.8956 18.3405 15.0628 16.7522 15.648 17.3791C16.2332 18.0479 16.7766 18.1733 17.2781 18.9257C17.6543 19.469 20.4548 18.6331 20.7474 17.5045C21.2908 15.2892 18.9919 14.9548 16.7348 13.5755Z" fill="white"/>
<path d="M16.9128 13.9515C15.408 13.0737 15.1154 14.4531 12.5657 14.5367C11.4372 14.5785 10.9356 16.8774 12.6493 17.7133C14.99 18.8837 15.199 17.2117 15.7424 17.8805C16.3694 18.5493 16.9128 18.7165 17.4561 19.5106C17.8323 20.0958 16.8292 22.2693 16.8292 22.2693C16.8292 22.2693 19.7132 24.3174 20.2984 23.1471C21.3852 20.9736 21.0926 19.3017 21.0508 18.0477C20.9672 15.08 19.2953 15.3726 16.9128 13.9515" fill="url(#paint5_linear_188_1325)"/>
<path d="M16.9128 13.9515C15.408 13.0737 15.1154 14.4531 12.5657 14.5367C11.4372 14.5785 10.9356 16.8774 12.6493 17.7133C14.99 18.8837 15.199 17.2117 15.7424 17.8805C16.3694 18.5493 16.9128 18.7165 17.4561 19.5106C17.8323 20.0958 16.8292 22.2693 16.8292 22.2693C16.8292 22.2693 19.7132 24.3174 20.2984 23.1471C21.3852 20.9736 21.0926 19.3017 21.0508 18.0477C20.9672 15.08 19.2953 15.3726 16.9128 13.9515" stroke="white" stroke-width="0.5"/>
<defs>
<linearGradient id="paint0_linear_188_1325" x1="16.3087" y1="0.563672" x2="24.7811" y2="1.7091" gradientUnits="userSpaceOnUse">
<stop stop-color="#C54A92"/>
<stop offset="1" stop-color="#2E62EB"/>
</linearGradient>
<linearGradient id="paint1_linear_188_1325" x1="6.89857" y1="11.6952" x2="26.8268" y2="19.1003" gradientUnits="userSpaceOnUse">
<stop stop-color="#C54A92"/>
<stop offset="1" stop-color="#2E62EB"/>
</linearGradient>
<linearGradient id="paint2_linear_188_1325" x1="11.0459" y1="0.359154" x2="18.9309" y2="1.34194" gradientUnits="userSpaceOnUse">
<stop stop-color="#C54A92"/>
<stop offset="1" stop-color="#2E62EB"/>
</linearGradient>
<linearGradient id="paint3_linear_188_1325" x1="5.56047" y1="11.7027" x2="10.8847" y2="12.7626" gradientUnits="userSpaceOnUse">
<stop stop-color="#C54A92"/>
<stop offset="1" stop-color="#2E62EB"/>
</linearGradient>
<linearGradient id="paint4_linear_188_1325" x1="8.94254" y1="9.73825" x2="14.2667" y2="10.7981" gradientUnits="userSpaceOnUse">
<stop stop-color="#C54A92"/>
<stop offset="1" stop-color="#2E62EB"/>
</linearGradient>
<linearGradient id="paint5_linear_188_1325" x1="12.4242" y1="12.7675" x2="24.7748" y2="16.6062" gradientUnits="userSpaceOnUse">
<stop stop-color="#C54A92"/>
<stop offset="1" stop-color="#2E62EB"/>
</linearGradient>
</defs>
</svg>
