<svg width="292" height="222" viewBox="0 0 292 222" fill="none" xmlns="http://www.w3.org/2000/svg">
<path d="M250.685 92.6934C254.71 97.3849 259.2 98.1335 264.156 94.9392C262.076 91.235 261.581 87.2058 262.135 82.9614H252.481C252.909 86.6912 252.794 90.1641 250.685 92.6934Z" fill="#FFB8B8"/>
<path d="M266.626 215.466L271.79 212.472L274.035 180.781V164.061L262.135 163.812L265.503 180.531L266.626 215.466Z" fill="#FFB8B8"/>
<path d="M251.657 215.466L246.493 212.472L244.248 180.781V164.061L256.147 163.812L252.779 180.531L251.657 215.466Z" fill="#FFB8B8"/>
<path d="M243.725 167.555L256.298 166.307L258.318 153.581L260.788 166.058L274.484 165.06C274.783 158.996 274.023 152.756 272.239 146.344L242.153 145.596L243.725 167.555Z" fill="#2F2E41"/>
<path d="M230.657 119.76L215.533 106.816C215.376 106.682 215.203 106.572 215.019 106.489L212.821 105.495C211.056 104.697 207.693 102.041 209.333 99.3066C210.655 97.102 215.717 101.051 216.34 102.514C216.536 102.975 216.859 103.354 217.262 103.599L220.335 105.47C220.41 105.516 220.487 105.557 220.566 105.592L232.268 110.864C232.592 111.01 232.943 111.068 233.292 111.033C233.64 110.998 233.976 110.871 234.272 110.663L236.393 109.168C236.695 108.955 237.039 108.827 237.395 108.795C237.752 108.764 238.11 108.829 238.438 108.985C238.767 109.142 239.056 109.385 239.281 109.694C239.506 110.003 239.659 110.368 239.729 110.757L240.43 114.69C240.531 115.257 240.448 115.844 240.197 116.349C239.945 116.854 239.541 117.244 239.056 117.45L232.782 120.108C232.431 120.257 232.051 120.303 231.679 120.242C231.306 120.181 230.955 120.015 230.657 119.76V119.76Z" fill="#FFB8B8"/>
<path d="M233.466 110.329C237.653 109.081 237.214 115.583 240.408 118.78L246.689 113.269L243.051 93.6917C242.075 94.0016 241.177 94.5596 240.428 95.3216C239.68 96.0836 239.101 97.0287 238.737 98.0822L233.466 110.329Z" fill="#18616D"/>
<path d="M241.255 146.843H272.912C267.789 131.498 268.288 115.716 272.65 99.633C272.723 99.366 272.71 99.079 272.613 98.8214C272.517 98.5638 272.342 98.3519 272.12 98.2221L263.033 92.943C259.466 95.5226 255.633 94.7299 251.583 91.1963L241.704 94.1907C244.393 112.142 244.47 129.725 241.255 146.843Z" fill="#18616D"/>
<path d="M249.171 221.327L235.978 221.949C235.404 221.976 234.84 221.766 234.397 221.359C233.954 220.952 233.661 220.378 233.576 219.746V219.746C233.49 219.107 233.622 218.456 233.945 217.92C234.269 217.384 234.761 217.002 235.325 216.848L237.563 216.239L246.358 210.573C247.661 212.073 249.455 213.341 251.648 214.42L251.674 218.404C251.679 219.157 251.42 219.882 250.954 220.427C250.487 220.973 249.848 221.295 249.171 221.327V221.327Z" fill="#2F2E41"/>
<path d="M291.869 222H0.106125V221.198H292L291.869 222Z" fill="#3F3D56"/>
<path d="M269.002 221.105L282.195 221.726C282.769 221.753 283.332 221.543 283.776 221.136C284.219 220.73 284.512 220.155 284.597 219.523V219.523C284.683 218.885 284.551 218.234 284.227 217.698C283.904 217.162 283.412 216.779 282.848 216.626L280.61 216.016L271.815 210.35C270.512 211.85 268.718 213.118 266.525 214.198L266.499 218.181C266.494 218.934 266.752 219.66 267.219 220.205C267.686 220.75 268.325 221.073 269.002 221.105V221.105Z" fill="#2F2E41"/>
<path d="M256.298 87.4531C260.266 87.4531 263.482 83.878 263.482 79.4679C263.482 75.0578 260.266 71.4827 256.298 71.4827C252.33 71.4827 249.113 75.0578 249.113 79.4679C249.113 83.878 252.33 87.4531 256.298 87.4531Z" fill="#FFB8B8"/>
<path d="M267.524 144.348L265.15 149.478C264.941 149.93 264.82 150.427 264.795 150.935C264.771 151.444 264.844 151.952 265.009 152.427C265.174 152.902 265.427 153.332 265.753 153.69C266.078 154.049 266.468 154.326 266.897 154.505V154.505C267.351 154.694 267.837 154.768 268.32 154.721C268.803 154.674 269.27 154.507 269.687 154.233C270.105 153.959 270.461 153.585 270.731 153.137C271.002 152.69 271.178 152.181 271.248 151.648L272.239 144.098L275.831 125.134L275.606 115.651H268.422C270.872 122.704 269.657 133.107 267.524 144.348Z" fill="#FFB8B8"/>
<path d="M267.299 116.649H276.953L275.552 104.882C275.362 103.286 274.815 101.768 273.962 100.467C273.109 99.1665 271.976 98.124 270.667 97.4348L267.299 116.649Z" fill="#18616D"/>
<path d="M263.936 75.0696C264.08 74.0029 264.019 72.9145 263.759 71.8754C263.499 70.8364 263.045 69.8699 262.426 69.039C261.2 67.4268 259.145 66.1073 255.737 66.7298C248.299 68.0879 246.155 74.9694 246.883 76.7C247.612 78.4306 249.845 82.4424 249.845 82.4424C249.845 82.4424 248.206 78.4712 249.985 77.6628C251.764 76.8545 258.649 73.6701 261.052 75.1047C261.732 75.4843 262.31 76.0574 262.726 76.7658C263.142 77.4742 263.382 78.2925 263.421 79.1374L263.936 75.0696Z" fill="#2F2E41"/>
<path d="M140.966 41.8366L138.078 43.4656C134.75 36.1841 130.342 29.5781 125.039 23.9253C98.9948 -3.90301 57.4363 -2.99319 32.3982 25.9534C7.36006 54.9 8.17866 101.09 34.223 128.918C39.1799 134.225 44.8587 138.63 51.0502 141.972L49.6372 145.211C39.8233 139.915 31.2842 132.099 24.7253 122.41C18.1664 112.72 13.7761 101.436 11.917 89.4876C10.0579 77.5396 10.7835 65.2714 14.0337 53.6967C17.284 42.122 22.9656 31.573 30.6092 22.9213C38.2528 14.2696 47.639 7.76349 57.9922 3.9406C68.3454 0.117718 79.3684 -0.912237 90.1506 0.935833C100.933 2.7839 111.164 7.45695 120 14.5689C128.836 21.6808 136.023 31.0274 140.966 41.8366V41.8366Z" fill="#E6E6E6"/>
<path d="M43.2385 108.814C38.9896 113.726 36.6705 120.313 36.7912 127.126C36.9119 133.938 39.4627 140.419 43.8823 145.141C48.3019 149.863 54.2284 152.441 60.3579 152.307C66.4874 152.173 72.318 149.338 76.5668 144.425L80.5464 139.825L47.2181 104.213L43.2385 108.814Z" fill="#E6E6E6"/>
<path d="M44.985 101.6C44.0393 102.696 43.5233 104.164 43.5502 105.682C43.5771 107.2 44.1447 108.645 45.1286 109.698L75.6972 142.361C76.6825 143.414 78.0037 143.988 79.3701 143.959C80.7366 143.929 82.0364 143.297 82.9836 142.202C83.9308 141.107 84.4478 139.638 84.4209 138.119C84.394 136.601 83.8253 135.156 82.8401 134.103L52.2714 101.441C51.2854 100.389 49.9645 99.8159 48.5985 99.8458C47.2326 99.8757 45.933 100.507 44.985 101.6Z" fill="#535461"/>
<path d="M136.669 74.9414L140.648 70.3406C144.897 65.4285 147.216 58.8416 147.096 52.029C146.975 45.2164 144.424 38.7361 140.005 34.0138C137.816 31.6755 135.235 29.8392 132.408 28.6097C129.581 27.3802 126.564 26.7816 123.529 26.848C117.399 26.9822 111.569 29.8172 107.32 34.7293L103.34 39.3301L136.669 74.9414Z" fill="#E6E6E6"/>
<path d="M100.903 36.9529C99.9575 38.0488 99.4415 39.5169 99.4684 41.0351C99.4953 42.5533 100.063 43.9976 101.047 45.0512L131.615 77.7138C132.601 78.7653 133.922 79.3389 135.288 79.3085C136.653 79.278 137.952 78.6461 138.899 77.5515C139.846 76.457 140.363 74.9894 140.337 73.4713C140.31 71.9533 139.742 70.509 138.758 69.456L108.19 36.7934C107.204 35.7422 105.883 35.1687 104.517 35.1986C103.151 35.2285 101.851 35.8594 100.903 36.9529V36.9529Z" fill="#535461"/>
<path d="M113.798 112.436V109.782C113.798 109.782 124.218 103.268 132.683 109.782V112.194L113.798 112.436Z" fill="#535461"/>
<path d="M208.656 112.436V109.782C208.656 109.782 219.075 103.268 227.541 109.782V112.194L208.656 112.436Z" fill="#535461"/>
<path d="M145.056 112.194H134.854C134.854 112.194 132.249 108.817 123.566 109.058C114.884 109.299 113.147 112.194 113.147 112.194C113.147 112.194 104.573 118.588 102.619 126.549C102.619 126.549 92.0918 161.652 91.8747 189.155C91.6576 216.658 101.209 220.518 106.201 221.242C111.194 221.965 120.093 221 128.776 196.634L132.466 182.4C132.466 182.4 133.117 173.956 140.932 179.263C148.746 184.571 155.692 176.368 155.692 176.368H184.996C184.996 176.368 194.764 183.123 203.664 177.816C203.664 177.816 207.137 172.749 210.393 189.878C210.393 189.878 220.378 225.102 235.789 221.483C251.201 217.864 249.464 188.431 249.464 188.431C249.464 188.431 247.402 143.437 238.937 127.514C238.937 127.514 230.797 110.988 225.37 110.264C225.37 110.264 213.649 107.852 209.09 110.023L206.485 112.436L145.056 112.194Z" fill="#E6E6E6"/>
<path d="M121.396 156.827C131.825 156.827 140.28 147.429 140.28 135.837C140.28 124.245 131.825 114.848 121.396 114.848C110.966 114.848 102.511 124.245 102.511 135.837C102.511 147.429 110.966 156.827 121.396 156.827Z" fill="#535461"/>
<path d="M219.944 156.827C230.373 156.827 238.828 147.429 238.828 135.837C238.828 124.245 230.373 114.848 219.944 114.848C209.514 114.848 201.059 124.245 201.059 135.837C201.059 147.429 209.514 156.827 219.944 156.827Z" fill="#535461"/>
<path d="M124.686 131.157L122.168 133.632C121.955 133.841 121.681 133.956 121.397 133.956C121.113 133.956 120.838 133.841 120.625 133.632L118.103 131.157C117.979 131.036 117.88 130.888 117.812 130.721C117.744 130.555 117.709 130.375 117.708 130.192V123.381C117.708 123.037 117.832 122.708 118.051 122.465C118.269 122.222 118.566 122.086 118.876 122.086H123.922C124.231 122.085 124.528 122.221 124.747 122.463C124.966 122.706 125.09 123.035 125.09 123.379V130.187C125.089 130.371 125.052 130.553 124.982 130.72C124.913 130.888 124.812 131.036 124.686 131.157Z" fill="#E6E6E6"/>
<path d="M124.686 140.515L122.168 138.042C121.955 137.834 121.681 137.719 121.397 137.719C121.113 137.719 120.838 137.834 120.625 138.042L118.103 140.518C117.979 140.639 117.88 140.787 117.812 140.953C117.744 141.12 117.709 141.3 117.708 141.483V148.286C117.707 148.63 117.829 148.96 118.048 149.203C118.266 149.446 118.562 149.583 118.871 149.584H123.922C124.231 149.585 124.528 149.449 124.747 149.206C124.966 148.964 125.09 148.635 125.09 148.291V141.485C125.089 141.301 125.052 141.119 124.982 140.952C124.913 140.785 124.812 140.636 124.686 140.515V140.515Z" fill="#E6E6E6"/>
<path d="M117.187 139.499L119.414 136.696C119.602 136.459 119.705 136.154 119.705 135.838C119.705 135.523 119.602 135.218 119.414 134.981L117.187 132.177C117.078 132.04 116.944 131.93 116.795 131.855C116.645 131.779 116.483 131.739 116.318 131.738H110.197C109.888 131.739 109.591 131.876 109.373 132.119C109.154 132.363 109.032 132.692 109.032 133.036V138.645C109.031 138.989 109.153 139.319 109.371 139.562C109.59 139.806 109.886 139.943 110.195 139.943H116.321C116.485 139.941 116.647 139.901 116.796 139.824C116.946 139.748 117.079 139.637 117.187 139.499V139.499Z" fill="#E6E6E6"/>
<path d="M125.607 139.5L123.384 136.694C123.196 136.457 123.092 136.152 123.092 135.836C123.092 135.52 123.196 135.215 123.384 134.979L125.611 132.175C125.72 132.038 125.853 131.928 126.003 131.852C126.153 131.777 126.315 131.737 126.479 131.736H132.601C132.91 131.735 133.206 131.871 133.425 132.114C133.644 132.356 133.768 132.686 133.768 133.029V138.643C133.769 138.987 133.647 139.317 133.429 139.56C133.21 139.803 132.914 139.941 132.605 139.941H126.482C126.316 139.941 126.152 139.901 126.001 139.825C125.85 139.749 125.716 139.638 125.607 139.5V139.5Z" fill="#E6E6E6"/>
<path d="M147.009 173.956C154.562 173.956 160.685 167.151 160.685 158.756C160.685 150.362 154.562 143.557 147.009 143.557C139.457 143.557 133.334 150.362 133.334 158.756C133.334 167.151 139.457 173.956 147.009 173.956Z" fill="#535461"/>
<path d="M194.33 173.956C201.882 173.956 208.005 167.151 208.005 158.756C208.005 150.362 201.882 143.557 194.33 143.557C186.777 143.557 180.655 150.362 180.655 158.756C180.655 167.151 186.777 173.956 194.33 173.956Z" fill="#535461"/>
<path d="M147.009 168.889C152.044 168.889 156.126 164.353 156.126 158.756C156.126 153.16 152.044 148.624 147.009 148.624C141.974 148.624 137.893 153.16 137.893 158.756C137.893 164.353 141.974 168.889 147.009 168.889Z" fill="#E6E6E6"/>
<path d="M147.009 165.753C145.764 165.753 144.547 165.342 143.512 164.574C142.477 163.805 141.67 162.712 141.194 161.434C140.717 160.155 140.593 158.749 140.835 157.391C141.078 156.034 141.678 154.788 142.558 153.809C143.439 152.831 144.56 152.164 145.781 151.894C147.002 151.624 148.268 151.763 149.418 152.293C150.569 152.822 151.552 153.719 152.243 154.869C152.935 156.02 153.304 157.373 153.304 158.756C153.302 160.611 152.639 162.39 151.459 163.701C150.278 165.013 148.678 165.751 147.009 165.753V165.753ZM147.009 152.243C145.85 152.243 144.717 152.625 143.753 153.34C142.79 154.056 142.038 155.073 141.595 156.264C141.151 157.454 141.035 158.764 141.261 160.027C141.487 161.291 142.046 162.451 142.865 163.362C143.685 164.273 144.729 164.894 145.866 165.145C147.003 165.396 148.181 165.267 149.252 164.774C150.323 164.281 151.239 163.447 151.883 162.375C152.527 161.304 152.87 160.045 152.87 158.756C152.868 157.029 152.25 155.374 151.152 154.153C150.053 152.931 148.563 152.244 147.009 152.243V152.243Z" fill="#535461"/>
<path d="M194.33 168.889C199.365 168.889 203.446 164.353 203.446 158.756C203.446 153.16 199.365 148.624 194.33 148.624C189.295 148.624 185.213 153.16 185.213 158.756C185.213 164.353 189.295 168.889 194.33 168.889Z" fill="#E6E6E6"/>
<path d="M194.33 165.753C193.085 165.753 191.868 165.342 190.833 164.574C189.797 163.805 188.99 162.712 188.514 161.434C188.038 160.155 187.913 158.749 188.156 157.391C188.399 156.034 188.998 154.788 189.879 153.809C190.759 152.831 191.881 152.164 193.102 151.894C194.323 151.624 195.588 151.763 196.739 152.293C197.889 152.822 198.872 153.719 199.564 154.869C200.255 156.02 200.625 157.373 200.625 158.756C200.623 160.611 199.959 162.39 198.779 163.701C197.599 165.013 195.999 165.751 194.33 165.753ZM194.33 152.243C193.171 152.243 192.038 152.625 191.074 153.34C190.11 154.056 189.359 155.073 188.915 156.264C188.472 157.454 188.355 158.764 188.582 160.027C188.808 161.291 189.366 162.451 190.186 163.362C191.005 164.273 192.05 164.894 193.186 165.145C194.323 165.396 195.502 165.267 196.573 164.774C197.644 164.281 198.559 163.447 199.203 162.375C199.847 161.304 200.191 160.045 200.191 158.756C200.189 157.029 199.571 155.374 198.472 154.153C197.373 152.931 195.884 152.244 194.33 152.243V152.243Z" fill="#535461"/>
<path d="M171.104 164.788C173.262 164.788 175.011 162.844 175.011 160.445C175.011 158.047 173.262 156.103 171.104 156.103C168.946 156.103 167.197 158.047 167.197 160.445C167.197 162.844 168.946 164.788 171.104 164.788Z" fill="#535461"/>
<path d="M165.132 146.899C165.603 146.899 165.985 146.474 165.985 145.951C165.985 145.427 165.603 145.002 165.132 145.002C164.661 145.002 164.279 145.427 164.279 145.951C164.279 146.474 164.661 146.899 165.132 146.899Z" fill="#535461"/>
<path d="M168.327 146.899C168.799 146.899 169.18 146.474 169.18 145.951C169.18 145.427 168.799 145.002 168.327 145.002C167.856 145.002 167.474 145.427 167.474 145.951C167.474 146.474 167.856 146.899 168.327 146.899Z" fill="#535461"/>
<path d="M167.902 151.398C168.373 151.398 168.755 150.974 168.755 150.45C168.755 149.926 168.373 149.502 167.902 149.502C167.431 149.502 167.049 149.926 167.049 150.45C167.049 150.974 167.431 151.398 167.902 151.398Z" fill="#535461"/>
<path d="M170.887 151.519C171.366 151.519 171.755 151.087 171.755 150.554C171.755 150.021 171.366 149.589 170.887 149.589C170.407 149.589 170.018 150.021 170.018 150.554C170.018 151.087 170.407 151.519 170.887 151.519Z" fill="#535461"/>
<path d="M173.867 151.398C174.338 151.398 174.72 150.974 174.72 150.45C174.72 149.926 174.338 149.502 173.867 149.502C173.396 149.502 173.014 149.926 173.014 150.45C173.014 150.974 173.396 151.398 173.867 151.398Z" fill="#535461"/>
<path d="M166.623 149.268C167.095 149.268 167.477 148.844 167.477 148.32C167.477 147.796 167.095 147.372 166.623 147.372C166.152 147.372 165.77 147.796 165.77 148.32C165.77 148.844 166.152 149.268 166.623 149.268Z" fill="#535461"/>
<path d="M169.367 149.348C169.847 149.348 170.235 148.915 170.235 148.382C170.235 147.85 169.847 147.417 169.367 147.417C168.888 147.417 168.499 147.85 168.499 148.382C168.499 148.915 168.888 149.348 169.367 149.348Z" fill="#535461"/>
<path d="M172.189 149.348C172.669 149.348 173.057 148.915 173.057 148.382C173.057 147.85 172.669 147.417 172.189 147.417C171.71 147.417 171.321 147.85 171.321 148.382C171.321 148.915 171.71 149.348 172.189 149.348Z" fill="#535461"/>
<path d="M175.145 149.268C175.617 149.268 175.999 148.844 175.999 148.32C175.999 147.796 175.617 147.372 175.145 147.372C174.674 147.372 174.292 147.796 174.292 148.32C174.292 148.844 174.674 149.268 175.145 149.268Z" fill="#535461"/>
<path d="M170.887 146.935C171.366 146.935 171.755 146.503 171.755 145.97C171.755 145.437 171.366 145.005 170.887 145.005C170.407 145.005 170.018 145.437 170.018 145.97C170.018 146.503 170.407 146.935 170.887 146.935Z" fill="#535461"/>
<path d="M173.926 146.935C174.405 146.935 174.794 146.503 174.794 145.97C174.794 145.437 174.405 145.005 173.926 145.005C173.446 145.005 173.057 145.437 173.057 145.97C173.057 146.503 173.446 146.935 173.926 146.935Z" fill="#535461"/>
<path d="M176.424 146.899C176.895 146.899 177.277 146.474 177.277 145.951C177.277 145.427 176.895 145.002 176.424 145.002C175.953 145.002 175.571 145.427 175.571 145.951C175.571 146.474 175.953 146.899 176.424 146.899Z" fill="#535461"/>
<path d="M138.652 114.25C138.251 114.251 137.866 114.428 137.582 114.744C137.298 115.06 137.138 115.487 137.138 115.934V121C137.138 121.446 137.298 121.874 137.582 122.19C137.866 122.505 138.251 122.683 138.652 122.683H139.738C140.139 122.683 140.524 122.505 140.808 122.19C141.092 121.874 141.252 121.446 141.252 121V115.934C141.252 115.487 141.092 115.06 140.808 114.744C140.524 114.428 140.139 114.251 139.738 114.25H138.652Z" fill="#535461"/>
<path d="M202.035 114.25C201.634 114.251 201.249 114.428 200.965 114.744C200.681 115.06 200.521 115.487 200.521 115.934V121C200.521 121.446 200.681 121.874 200.965 122.19C201.249 122.505 201.634 122.683 202.035 122.683H203.121C203.522 122.683 203.907 122.505 204.191 122.19C204.475 121.874 204.635 121.446 204.635 121V115.934C204.635 115.487 204.475 115.06 204.191 114.744C203.907 114.428 203.522 114.251 203.121 114.25H202.035Z" fill="#535461"/>
<path d="M220.161 128.841C223.038 128.841 225.37 126.249 225.37 123.051C225.37 119.853 223.038 117.261 220.161 117.261C217.283 117.261 214.951 119.853 214.951 123.051C214.951 126.249 217.283 128.841 220.161 128.841Z" fill="#E6E6E6"/>
<path d="M209.09 141.145C211.967 141.145 214.3 138.553 214.3 135.355C214.3 132.157 211.967 129.565 209.09 129.565C206.213 129.565 203.881 132.157 203.881 135.355C203.881 138.553 206.213 141.145 209.09 141.145Z" fill="#E6E6E6"/>
<path d="M231.665 140.421C234.542 140.421 236.875 137.829 236.875 134.631C236.875 131.433 234.542 128.841 231.665 128.841C228.788 128.841 226.455 131.433 226.455 134.631C226.455 137.829 228.788 140.421 231.665 140.421Z" fill="#E6E6E6"/>
<path d="M221.029 153.208C223.906 153.208 226.238 150.615 226.238 147.418C226.238 144.22 223.906 141.627 221.029 141.627C218.152 141.627 215.819 144.22 215.819 147.418C215.819 150.615 218.152 153.208 221.029 153.208Z" fill="#E6E6E6"/>
<path d="M148.475 110.873C147.31 110.875 146.194 111.389 145.371 112.304C144.548 113.219 144.085 114.459 144.084 115.753V137.345C144.085 138.639 144.548 139.879 145.371 140.794C146.194 141.709 147.31 142.224 148.475 142.225H193.081C194.245 142.224 195.361 141.709 196.185 140.794C197.008 139.879 197.471 138.639 197.472 137.345V115.753C197.471 114.459 197.008 113.219 196.185 112.304C195.361 111.389 194.245 110.875 193.081 110.873H148.475Z" fill="#535461"/>
<path d="M223.7 125.705H216.635L220.046 119.207L223.7 125.705ZM217.391 125.222H222.916L220.058 120.14L217.391 125.222Z" fill="#535461"/>
<path d="M212.021 138.25H206.16V132.46H212.021V138.25ZM206.594 137.767H211.587V132.942H206.594V137.767Z" fill="#535461"/>
<path d="M231.665 138.25C231.021 138.25 230.392 138.038 229.856 137.64C229.321 137.242 228.903 136.677 228.657 136.016C228.411 135.355 228.346 134.627 228.472 133.925C228.597 133.223 228.907 132.578 229.363 132.072C229.818 131.566 230.398 131.221 231.03 131.082C231.661 130.942 232.316 131.014 232.911 131.288C233.506 131.562 234.015 132.025 234.372 132.62C234.73 133.216 234.921 133.915 234.921 134.631C234.92 135.59 234.577 136.51 233.966 137.189C233.356 137.867 232.528 138.249 231.665 138.25ZM231.665 131.495C231.107 131.495 230.561 131.679 230.097 132.023C229.633 132.368 229.272 132.858 229.058 133.431C228.844 134.004 228.789 134.634 228.897 135.243C229.006 135.851 229.275 136.41 229.67 136.849C230.064 137.287 230.567 137.586 231.115 137.707C231.662 137.828 232.229 137.766 232.745 137.529C233.261 137.291 233.701 136.889 234.011 136.373C234.321 135.858 234.487 135.251 234.487 134.631C234.486 133.799 234.189 133.002 233.66 132.414C233.13 131.826 232.413 131.496 231.665 131.495Z" fill="#535461"/>
<path d="M218.686 144.533L218.379 144.874L223.263 150.302L223.57 149.961L218.686 144.533Z" fill="#535461"/>
<path d="M223.375 144.529L218.383 149.837L218.683 150.186L223.675 144.877L223.375 144.529Z" fill="#535461"/>
<path d="M46.1408 55.7443C34.289 59.3759 21.3108 62.1096 16.6605 57.8685C19.2066 53.1575 20.6751 48.5142 20.7997 43.9552C20.8277 41.8692 21.5879 39.878 22.918 38.406C23.7986 37.4605 24.8615 36.7505 26.026 36.3299C27.1905 35.9094 28.4258 35.7893 29.6383 35.9789L32.7141 36.4587C32.8177 36.4748 32.9207 36.4931 33.0231 36.5136C34.4995 36.8245 35.8512 37.6414 36.8885 38.8497C37.9258 40.058 38.5966 41.597 38.8067 43.2506C39.4548 48.1942 41.6339 52.4738 46.1408 55.7443Z" fill="#2F2E41"/>
<path d="M57.5732 102.644L62.1808 103.7C62.5327 103.781 62.864 103.948 63.1507 104.188C63.4375 104.429 63.6723 104.738 63.8383 105.092C64.0043 105.446 64.0973 105.837 64.1104 106.236C64.1236 106.635 64.0566 107.033 63.9144 107.399V107.399C63.7769 107.754 63.5725 108.071 63.3149 108.33C63.0573 108.589 62.7526 108.783 62.4215 108.899C62.0904 109.016 61.7407 109.051 61.3961 109.004C61.0515 108.957 60.72 108.828 60.4242 108.626L53.3763 103.808L41.4052 72.53L47.6056 70.5366L57.5732 102.644Z" fill="#A0616A"/>
<path d="M24.7508 143.687L21.2621 144.814L18.6214 138.753L21.3068 137.198L24.7508 143.687Z" fill="#A0616A"/>
<path d="M22.9783 169.658L18.6978 168.398L19.3679 160.225L23.0516 160.477L22.9783 169.658Z" fill="#A0616A"/>
<path d="M23.4246 138.021L18.891 141.337L1.45431 119.416C1.07609 118.94 0.796796 118.378 0.636295 117.769C0.475795 117.16 0.438035 116.519 0.525697 115.892C0.613359 115.265 0.824291 114.667 1.14349 114.14C1.46269 113.614 1.8823 113.172 2.37249 112.847L24.0943 98.4211L27.4213 109.043L16.1107 120.84L23.4246 138.021Z" fill="#2F2E41"/>
<path d="M27.2426 149.495C27.2313 149.512 27.2199 149.528 27.2084 149.544C26.9187 151.43 26.4098 153.15 25.2733 154.395C24.9364 155.24 24.3314 155.917 23.5738 156.297C22.8163 156.677 21.9593 156.734 21.1664 156.457V156.457C20.4187 156.195 19.776 155.653 19.3482 154.923C18.9205 154.192 18.7342 153.32 18.8214 152.454L19.6685 144.038C21.7007 143.519 23.2506 142.234 24.0351 139.735L26.0101 141.23C26.5946 141.669 27.0925 142.236 27.4733 142.896C27.8542 143.556 28.1101 144.295 28.2255 145.068C28.3408 145.842 28.3131 146.633 28.1442 147.394C27.9752 148.155 27.6684 148.87 27.2426 149.495V149.495Z" fill="#2F2E41"/>
<path d="M29.3918 53.942C33.2456 53.942 36.3698 50.4697 36.3698 46.1864C36.3698 41.9032 33.2456 38.4309 29.3918 38.4309C25.538 38.4309 22.4139 41.9032 22.4139 46.1864C22.4139 50.4697 25.538 53.942 29.3918 53.942Z" fill="#A0616A"/>
<path d="M35.4347 58.5844L24.4341 68.7104L23.5773 64.5423L25.4974 61.2892C26.0303 58.0976 25.6862 54.578 24.7706 50.8447L31.9477 50.852C32.2576 53.8689 33.3143 56.5008 35.4347 58.5844Z" fill="#A0616A"/>
<path d="M38.5318 85.1456L23.6809 90.1735L22.5255 84.303C19.7424 80.1497 18.5326 76.3588 20.3534 73.266L19.4371 68.6103C22.0655 66.3102 24.1325 63.9568 25.2674 61.5151L34.4047 57.5469L41.1218 58.0062L43.1053 65.394L38.5318 85.1456Z" fill="#72E87E"/>
<path d="M49.0824 71.3629C45.9168 71.3256 42.8186 72.3807 40.2152 74.3826L41.1218 58.0063C42.042 58.1429 42.9143 58.5434 43.653 59.1684C44.3917 59.7935 44.9713 60.6215 45.3347 61.571L49.0824 71.3629Z" fill="#72E87E"/>
<path d="M23.3782 162.433L18.6645 161.144L19.3583 116.628L25.6879 108.925L24.271 99.1582L23.3542 88.2173L38.8152 83.9563C44.041 94.5025 47.1997 104.091 42.589 110.08L23.3782 162.433Z" fill="#2F2E41"/>
<path d="M22.2955 177.463C22.2744 177.472 22.2532 177.481 22.232 177.49C20.8633 179.257 19.3595 180.697 17.4688 181.203C16.6394 181.85 15.6249 182.134 14.6189 182.002C13.6129 181.87 12.686 181.331 12.015 180.487V180.487C11.3823 179.692 11.0178 178.677 10.984 177.615C10.9503 176.554 11.2493 175.513 11.8299 174.67L17.4732 166.474C19.8886 167.352 22.2332 167.093 24.4653 165.032L25.682 167.972C26.0441 168.839 26.2435 169.778 26.2681 170.733C26.2927 171.688 26.1419 172.639 25.825 173.527C25.5081 174.415 25.0317 175.222 24.4249 175.899C23.8181 176.576 23.0935 177.108 22.2955 177.463V177.463Z" fill="#2F2E41"/>
<path d="M5.07649 107.999L0.939148 111.936C0.595817 112.263 0.332251 112.68 0.172886 113.151C0.013521 113.621 -0.036487 114.128 0.0274967 114.625C0.0914803 115.122 0.267386 115.594 0.538907 115.995C0.810427 116.397 1.16877 116.716 1.58073 116.922V116.922C2.2009 117.234 2.90421 117.271 3.5485 117.028C4.19278 116.785 4.72998 116.279 5.05148 115.613L8.04336 109.41L21.764 81.5818L16.6037 80.5037L5.07649 107.999Z" fill="#A0616A"/>
<path d="M22.5908 82.3634C19.9108 81.4643 17.4005 80.9348 15.4536 81.6336C15.8617 76.0206 16.7028 71.0065 19.4371 68.6104L23.324 69.1179L22.5908 82.3634Z" fill="#72E87E"/>
<path d="M37.1816 44.3881L22.2572 43.3675L22.4408 40.05C27.6506 36.1456 32.6254 36.4859 37.3653 41.0706L37.1816 44.3881Z" fill="#2F2E41"/>
</svg>
