<svg width="292" height="222" viewBox="0 0 292 222" fill="none" xmlns="http://www.w3.org/2000/svg">
<g clip-path="url(#clip0_232_1370)">
<path d="M13.3288 185.772C14.563 173.975 20.7135 162.351 30.1783 158.512C26.4456 170.654 26.4464 183.975 30.1805 196.117C31.6349 200.793 33.6621 205.815 32.2941 210.528C31.443 213.46 29.3607 215.704 27.0331 217.107C24.7054 218.51 22.1222 219.179 19.5712 219.834L19.0692 220.328C15.0196 209.458 12.0946 197.569 13.3288 185.772Z" fill="#F0F0F0"/>
<path d="M30.2722 158.735C24.7603 166.076 21.3346 175.295 20.4815 185.083C20.2664 187.186 20.3315 189.316 20.6744 191.395C21.0635 193.408 21.8989 195.26 23.0937 196.758C24.1841 198.183 25.4383 199.489 26.2185 201.204C26.6069 202.088 26.8336 203.061 26.8837 204.057C26.9339 205.053 26.8063 206.05 26.5094 206.984C25.8206 209.332 24.4629 211.246 23.0805 213.064C21.5456 215.081 19.9244 217.148 19.272 219.823C19.1929 220.147 18.7745 219.982 18.8534 219.658C19.9886 215.005 23.789 212.361 25.6013 208.17C26.447 206.214 26.802 203.943 26.0092 201.879C25.3159 200.073 24.0236 198.725 22.909 197.294C21.7254 195.852 20.8568 194.088 20.3791 192.155C19.9482 190.103 19.8142 187.979 19.9827 185.874C20.2986 181.128 21.2403 176.47 22.7733 172.072C24.4995 167.04 26.9371 162.397 29.9805 158.342C30.169 158.091 30.4594 158.486 30.2722 158.735H30.2722Z" fill="white"/>
<path d="M20.6001 181.912C19.2381 181.519 18.038 180.563 17.2141 179.216C16.3902 177.868 15.9962 176.216 16.1024 174.554C16.1248 174.218 16.5652 174.244 16.5427 174.581C16.4414 176.127 16.8086 177.666 17.578 178.919C18.3473 180.173 19.4682 181.058 20.7383 181.415C21.0142 181.493 20.8745 181.99 20.6001 181.912H20.6001Z" fill="white"/>
<path d="M22.4608 196.123C24.9207 194.377 26.7367 191.593 27.5465 188.326C27.6265 188.002 28.045 188.167 27.9651 188.49C27.117 191.888 25.2223 194.781 22.659 196.591C22.4146 196.763 22.2177 196.294 22.4608 196.123V196.123Z" fill="white"/>
<path d="M24.9084 167.536C25.4087 167.819 25.9603 167.95 26.5135 167.916C27.0667 167.883 27.6043 167.687 28.078 167.345C28.3205 167.169 28.5171 167.638 28.2762 167.813C27.7514 168.187 27.1575 168.403 26.5463 168.442C25.9352 168.48 25.3254 168.34 24.7702 168.034C24.7158 168.01 24.6711 167.963 24.6451 167.901C24.619 167.84 24.6137 167.769 24.63 167.703C24.6486 167.637 24.6883 167.583 24.7404 167.552C24.7925 167.521 24.8529 167.515 24.9084 167.536V167.536Z" fill="white"/>
<path d="M59.0281 179.583C58.8793 179.698 58.7306 179.813 58.5816 179.932C56.5883 181.49 54.7048 183.238 52.9497 185.159C52.812 185.305 52.6743 185.455 52.5404 185.606C48.3534 190.287 44.9338 195.851 42.4556 202.016C41.4713 204.47 40.6455 207.01 39.9854 209.613C39.074 213.208 38.3263 217.192 36.5221 220.133C36.3368 220.442 36.1355 220.738 35.9194 221.017H19.6146C19.5776 220.995 19.5403 220.977 19.5031 220.955L18.8521 220.991C18.8783 220.854 18.9079 220.712 18.934 220.575C18.9489 220.495 18.9675 220.416 18.9823 220.336C18.9934 220.283 19.0047 220.23 19.0121 220.181C19.0158 220.164 19.0196 220.146 19.0232 220.133C19.0307 220.084 19.0419 220.04 19.0494 219.996C19.213 219.204 19.3817 218.413 19.5552 217.621C19.5552 217.617 19.5552 217.617 19.5589 217.612C20.8945 211.585 22.6651 205.637 25.1389 200.198C25.2133 200.035 25.2876 199.867 25.3696 199.703C26.4961 197.259 27.7887 194.928 29.2347 192.734C30.0297 191.536 30.8752 190.386 31.768 189.289C34.0795 186.461 36.7508 184.082 39.6841 182.241C45.532 178.57 52.3023 177.164 58.552 179.406C58.7118 179.464 58.8682 179.521 59.0281 179.583Z" fill="#F0F0F0"/>
<path d="M58.9915 179.829C50.8723 181.746 43.4677 186.655 37.8293 193.859C36.5923 195.385 35.5653 197.132 34.7861 199.038C34.0775 200.923 33.8066 202.999 34.0014 205.051C34.1508 206.969 34.4903 208.91 34.2449 210.837C34.107 211.821 33.7956 212.76 33.3311 213.591C32.8667 214.422 32.2596 215.127 31.5498 215.66C29.8103 217.042 27.7567 217.599 25.7326 218.061C23.4851 218.573 21.1439 219.063 19.2682 220.732C19.0409 220.934 18.7903 220.503 19.0172 220.301C22.2806 217.398 26.6539 218.007 30.2239 215.957C31.8898 215.001 33.3233 213.442 33.7359 211.226C34.0968 209.288 33.7481 207.287 33.5828 205.347C33.368 203.348 33.5682 201.318 34.1657 199.433C34.8608 197.486 35.8295 195.694 37.0302 194.134C39.6863 190.571 42.7973 187.526 46.2492 185.111C50.1759 182.329 54.474 180.366 58.9576 179.307C59.2351 179.241 59.2672 179.764 58.9915 179.829H58.9915Z" fill="white"/>
<path d="M39.5299 191.413C38.6415 190.124 38.1674 188.502 38.1922 186.836C38.217 185.17 38.7391 183.569 39.6653 182.319C39.8535 182.067 40.1921 182.402 40.0037 182.655C39.1394 183.817 38.6532 185.309 38.6327 186.86C38.6123 188.411 39.059 189.92 39.8923 191.114C40.0731 191.374 39.7097 191.671 39.5299 191.413H39.5299Z" fill="white"/>
<path d="M33.8179 204.091C36.6664 204.457 39.5264 203.534 41.8276 201.505C42.0555 201.304 42.3062 201.735 42.0786 201.936C39.6806 204.042 36.7027 204.995 33.7392 204.606C33.4568 204.569 33.537 204.054 33.8179 204.091V204.091Z" fill="white"/>
<path d="M50.251 183.018C50.5073 183.602 50.8816 184.1 51.3402 184.47C51.7989 184.839 52.3275 185.067 52.8786 185.134C53.1613 185.167 53.0807 185.682 52.7999 185.649C52.1913 185.572 51.6077 185.32 51.1002 184.913C50.5928 184.506 50.1768 183.958 49.8887 183.316C49.8572 183.258 49.8455 183.188 49.8558 183.121C49.8662 183.053 49.8978 182.993 49.9443 182.952C49.9925 182.912 50.0517 182.897 50.1091 182.91C50.1665 182.922 50.2175 182.961 50.251 183.018V183.018Z" fill="white"/>
<path d="M146.947 215.667L151.27 213.939L147.717 193.297L141.338 195.848L146.947 215.667Z" fill="#FFB6B6"/>
<path d="M145.37 214.431L146.586 213.944L150.687 209.748L153.882 211.026L153.883 211.026C155.321 210.451 156.893 210.579 158.253 211.381C159.613 212.184 160.648 213.595 161.133 215.305L161.192 215.515L147.254 221.089L145.37 214.431Z" fill="#2F2E41"/>
<path d="M125.976 212.27L130.414 213.518L136.574 193.762L130.024 191.921L125.976 212.27Z" fill="#FFB6B6"/>
<path d="M125.186 210.23L126.436 210.581L131.782 209.594L133.927 212.687L133.927 212.687C135.404 213.102 136.682 214.198 137.48 215.734C138.277 217.269 138.529 219.118 138.18 220.874L138.137 221.089L123.826 217.066L125.186 210.23Z" fill="#2F2E41"/>
<path d="M88.1823 209.389H96.0118V193.966H88.1823V209.389Z" fill="#CACACA"/>
<path d="M95.6195 202.127L94.6146 203.887L113.405 219.044L114.41 217.284L95.6195 202.127Z" fill="#CACACA"/>
<path d="M88.5746 202.127L69.7838 217.284L70.7887 219.044L89.5796 203.887L88.5746 202.127Z" fill="#CACACA"/>
<path d="M113.908 221.089C115.267 221.089 116.369 219.78 116.369 218.164C116.369 216.549 115.267 215.239 113.908 215.239C112.549 215.239 111.447 216.549 111.447 218.164C111.447 219.78 112.549 221.089 113.908 221.089Z" fill="#CACACA"/>
<path d="M91.9852 221.089C93.3443 221.089 94.446 219.78 94.446 218.164C94.446 216.549 93.3443 215.239 91.9852 215.239C90.6262 215.239 89.5245 216.549 89.5245 218.164C89.5245 219.78 90.6262 221.089 91.9852 221.089Z" fill="#CACACA"/>
<path d="M70.2862 221.089C71.6452 221.089 72.7469 219.78 72.7469 218.164C72.7469 216.549 71.6452 215.239 70.2862 215.239C68.9272 215.239 67.8255 216.549 67.8255 218.164C67.8255 219.78 68.9272 221.089 70.2862 221.089Z" fill="#CACACA"/>
<path d="M92.88 203.007H91.0904V218.164H92.88V203.007Z" fill="#CACACA"/>
<path d="M90.4193 200.879H93.7748V180.404H90.4193V200.879Z" fill="#CACACA"/>
<path d="M75.0379 183.595V178.808C75.0387 177.927 75.3336 177.082 75.8578 176.459C76.382 175.836 77.0928 175.485 77.8342 175.484H103.982C104.723 175.485 105.434 175.836 105.958 176.459C106.483 177.082 106.778 177.927 106.778 178.808V183.595C106.778 184.476 106.483 185.321 105.958 185.944C105.434 186.567 104.723 186.918 103.982 186.919H77.8342C77.0928 186.918 76.382 186.567 75.8578 185.944C75.3336 185.321 75.0387 184.476 75.0379 183.595Z" fill="#3F3D56"/>
<path d="M59.2594 174.768L42.378 140.264C41.829 139.139 41.6778 137.801 41.9576 136.544C42.2374 135.286 42.9254 134.212 43.8706 133.557L44.8573 132.875C45.8038 132.222 46.9294 132.043 47.9872 132.375C49.045 132.708 49.9485 133.526 50.4997 134.649L67.3811 169.153C67.9301 170.278 68.0813 171.616 67.8015 172.873C67.5217 174.131 66.8337 175.205 65.8885 175.86L64.9018 176.542C63.9553 177.195 62.8297 177.375 61.7719 177.042C60.7141 176.709 59.8106 175.891 59.2594 174.768V174.768Z" fill="#3F3D56"/>
<path d="M75.148 183.43C71.4989 183.425 68.0003 181.7 65.42 178.633C62.8396 175.565 61.3882 171.407 61.384 167.069H62.872C62.8723 169.742 63.4901 172.364 64.6582 174.648C65.8262 176.932 67.4996 178.791 69.4957 180.022C71.4918 181.253 73.734 181.809 75.9776 181.628C78.2212 181.448 80.3801 180.539 82.2187 178.999L83.0767 180.444C80.7587 182.394 77.9876 183.438 75.148 183.43V183.43Z" fill="#3F3D56"/>
<path d="M90.772 158.667C90.772 158.667 132.436 143.632 138.76 162.205C145.084 180.777 151.036 202.003 151.036 202.003L142.852 205.098L126.856 173.26C126.856 173.26 88.2998 184.757 80.2359 171.27L90.772 158.667Z" fill="#2F2E41"/>
<path d="M60.64 121.08L50.968 120.196L49.108 134.346C49.108 134.346 61.012 171.049 81.472 174.586L100.816 153.803L79.3923 144.315L60.64 121.08Z" fill="url(#paint0_linear_232_1370)"/>
<path d="M59.5094 112.668C65.7583 108.959 68.295 99.9315 65.1754 92.5033C62.0557 85.0751 54.461 82.0596 48.2121 85.768C41.9632 89.4764 39.4264 98.5044 42.546 105.933C45.6657 113.361 53.2604 116.376 59.5094 112.668Z" fill="#FFB8B8"/>
<path d="M57.3695 114.79C56.7857 115.371 55.906 115.677 54.7028 115.721C51.1618 115.851 47.6827 114.597 44.7992 112.15C41.9158 109.703 39.7872 106.199 38.74 102.176C38.2131 100.152 37.7668 97.1315 38.6329 94.2405C39.2557 92.1626 40.4786 90.42 41.5759 88.9496C42.5258 87.6765 43.517 86.4293 44.5225 85.2433C45.7236 83.8257 47.1554 82.2514 48.9513 81.5119C50.2673 80.9703 51.6778 80.922 53.0418 80.8754C53.517 80.8589 54.0088 80.8423 54.4864 80.8044C55.6744 80.7563 56.8404 80.4107 57.9082 79.79C58.1275 79.6503 58.3693 79.5682 58.6175 79.5492C58.8657 79.5302 59.1145 79.5747 59.3469 79.6798C59.5836 79.7863 59.7982 79.952 59.9764 80.1655C60.1546 80.3791 60.2921 80.6356 60.3798 80.9178C60.5522 81.4726 60.7076 81.9729 61.2353 82.1575C61.4255 82.2183 61.6253 82.2228 61.8173 82.1705C62.0093 82.1182 62.1876 82.0107 62.3366 81.8576C62.4152 81.7768 62.5096 81.7206 62.6111 81.6942C62.7127 81.6677 62.8182 81.6719 62.918 81.7063C63.018 81.7393 63.1097 81.8009 63.1851 81.8857C63.2604 81.9705 63.3172 82.076 63.3504 82.1929L63.3937 82.3452C63.502 82.2565 63.6267 82.2004 63.7573 82.1817C63.8878 82.163 64.0202 82.1824 64.1431 82.238C64.3211 82.3142 64.472 82.4602 64.5708 82.6521C64.6696 82.844 64.7103 83.0702 64.6863 83.2934C64.5098 85.1335 63.9029 86.878 62.9345 88.3288C62.265 89.3119 61.4393 90.1289 60.5046 90.7333L60.3549 90.8315L60.2514 90.6461C56.0487 92.4919 54.7653 97.726 54.9729 102.045L54.6052 102.103C54.5768 101.963 54.5247 101.831 54.4522 101.715C54.3797 101.6 54.2882 101.502 54.1832 101.43C54.0618 101.338 53.9263 101.276 53.7846 101.247C53.6428 101.217 53.4976 101.221 53.3573 101.259C53.0904 101.359 52.8545 101.551 52.6791 101.81C52.5038 102.069 52.397 102.384 52.3721 102.715C52.353 103.061 52.3948 103.409 52.4948 103.735C52.5947 104.061 52.7507 104.358 52.9528 104.609C53.3926 105.128 53.9005 105.559 54.4568 105.884C54.709 106.053 54.9699 106.228 55.2171 106.42C56.6159 107.518 57.6251 109.19 58.0519 111.117C58.2438 111.998 58.3539 113.256 57.7891 114.242C57.6713 114.447 57.5301 114.631 57.3695 114.79V114.79Z" fill="#2F2E41"/>
<path d="M140.406 167.899C138.459 187.802 134.296 206.425 134.296 206.425L126.484 205.098L128.263 167.567" fill="#2F2E41"/>
<path d="M63.3749 101.631C63.0013 101.631 62.6375 101.489 62.3368 101.225C62.036 100.961 61.814 100.591 61.7032 100.166C56.6274 97.0218 59.3109 94.8043 59.6604 92.3079C59.5926 92.0472 59.5687 91.7732 59.59 91.5014C59.6113 91.2297 59.6774 90.9656 59.7846 90.7243C59.8918 90.4829 60.0379 90.2691 60.2146 90.0948C60.3913 89.9206 60.5952 89.7895 60.8146 89.709L66.0037 87.8026C66.4467 87.6404 66.9258 87.6938 67.3358 87.951C67.7458 88.2083 68.0532 88.6484 68.1904 89.1748L70.2333 97.0331C70.3696 97.5597 70.3247 98.1291 70.1083 98.6163C69.8919 99.1036 69.5218 99.4689 69.0791 99.6322L63.89 101.538C63.7232 101.6 63.5496 101.631 63.3749 101.631V101.631Z" fill="#3F3D56"/>
<path d="M66.7657 87.5303C67.1435 87.5272 67.512 87.6687 67.8168 87.9341C68.1215 88.1994 68.3463 88.5744 68.4577 89.0034L70.6098 97.0381C70.7553 97.5764 70.7187 98.1609 70.5078 98.6677C70.4063 98.9162 70.2643 99.1381 70.0899 99.3206C69.9155 99.5031 69.7123 99.6425 69.4921 99.7305L68.3253 100.196L65.0854 88.1009L66.252 87.6356C66.4177 87.5693 66.591 87.5338 66.7657 87.5303V87.5303Z" fill="url(#paint1_linear_232_1370)"/>
<path d="M39.9422 106.108C39.7006 106.107 39.4654 106.015 39.2709 105.845C39.0765 105.675 38.933 105.435 38.8614 105.16L38.3208 103.081C38.277 102.912 38.2615 102.735 38.2753 102.559C38.2891 102.384 38.3319 102.213 38.4012 102.057C38.4705 101.901 38.565 101.763 38.6793 101.65C38.7936 101.537 38.9254 101.452 39.0673 101.4L62.4967 92.7936C62.6386 92.7415 62.7877 92.7231 62.9356 92.7394C63.0835 92.7558 63.2272 92.8067 63.3585 92.8891C63.4898 92.9715 63.6062 93.0838 63.701 93.2197C63.7958 93.3556 63.8671 93.5124 63.9109 93.681L64.4514 95.7601C64.5395 96.1007 64.5105 96.4688 64.3705 96.7839C64.2306 97.099 63.9913 97.3353 63.705 97.4408L40.2755 106.048C40.1676 106.087 40.0552 106.108 39.9422 106.108V106.108Z" fill="#3F3D56"/>
<path d="M103.678 171.203H100.186C99.7382 171.203 99.307 170.999 98.9813 170.633C98.6556 170.266 98.4602 169.766 98.4352 169.234L97.843 156.731C97.8295 156.448 97.8647 156.164 97.9467 155.898C98.0286 155.632 98.1554 155.388 98.3194 155.182C98.4833 154.975 98.681 154.811 98.9002 154.699C99.1194 154.587 99.3555 154.529 99.5942 154.529H104.27C104.508 154.529 104.745 154.587 104.964 154.699C105.183 154.811 105.381 154.975 105.545 155.182C105.709 155.388 105.835 155.632 105.917 155.898C105.999 156.165 106.035 156.448 106.021 156.731L105.429 169.234C105.404 169.766 105.208 170.266 104.883 170.633C104.557 170.999 104.126 171.203 103.678 171.203Z" fill="#E4E4E4"/>
<path d="M105.89 157.424L105.846 158.35H98.0182L97.9732 157.424H105.89Z" fill="#CACACA"/>
<path d="M105.791 159.508L105.748 160.435H98.1157L98.0725 159.508H105.791Z" fill="#CACACA"/>
<path d="M105.694 161.592L105.649 162.519H98.215L98.17 161.592H105.694Z" fill="#CACACA"/>
<path d="M105.594 163.677L105.55 164.603H98.3143L98.2693 163.677H105.594Z" fill="#CACACA"/>
<path d="M105.495 165.761L105.452 166.687H98.4118L98.369 165.761H105.495Z" fill="#CACACA"/>
<path d="M105.398 167.845L105.353 168.771H98.5111L98.4661 167.845H105.398Z" fill="#CACACA"/>
<path d="M102.029 155.34C102.729 155.34 103.296 155.184 103.296 154.992C103.296 154.801 102.729 154.645 102.029 154.645C101.33 154.645 100.763 154.801 100.763 154.992C100.763 155.184 101.33 155.34 102.029 155.34Z" fill="#CACACA"/>
<path d="M102.125 155.34C102.087 155.34 102.049 155.331 102.013 155.313C101.978 155.296 101.946 155.27 101.919 155.238C101.891 155.206 101.87 155.168 101.855 155.125C101.841 155.083 101.833 155.038 101.833 154.993V148.413H99.9838C99.9065 148.413 99.8324 148.376 99.7779 148.311C99.7233 148.246 99.6926 148.158 99.6926 148.066C99.6926 147.974 99.7233 147.886 99.7779 147.821C99.8324 147.756 99.9065 147.719 99.9838 147.719H102.125C102.164 147.719 102.202 147.728 102.237 147.745C102.273 147.763 102.305 147.788 102.332 147.82C102.359 147.853 102.381 147.891 102.395 147.933C102.41 147.975 102.417 148.02 102.417 148.066V154.993C102.417 155.038 102.41 155.083 102.395 155.125C102.381 155.168 102.359 155.206 102.332 155.238C102.305 155.27 102.273 155.296 102.237 155.313C102.202 155.331 102.164 155.34 102.125 155.34V155.34Z" fill="#CACACA"/>
<path d="M101.126 161.04C100.703 160.628 100.209 160.331 99.6792 160.17C99.1493 160.01 98.5962 159.989 98.0589 160.11C97.5215 160.23 97.013 160.49 96.569 160.869C96.1251 161.249 95.7566 161.74 95.4895 162.307L82.4022 159.536L85.1349 167.077L97.1438 168.553C97.9753 169.023 98.9229 169.114 99.8072 168.81C100.692 168.505 101.451 167.825 101.942 166.899C102.433 165.973 102.621 164.865 102.47 163.785C102.32 162.706 101.841 161.729 101.126 161.04H101.126Z" fill="#FFB6B6"/>
<path d="M92.6163 168.637L68.6308 166.396L68.583 166.288C68.4913 166.082 59.4034 145.618 58.0662 140.923C57.2341 138.095 57.2405 135.015 58.0843 132.193L58.1086 132.125L58.1626 132.088C59.2681 131.335 60.5564 131.053 61.8149 131.287C63.0735 131.522 64.2272 132.259 65.0859 133.378C69.2074 138.805 72.2114 145.297 73.8607 152.34L74.795 156.348L91.9555 160.917L92.6163 168.637Z" fill="url(#paint2_linear_232_1370)"/>
<path d="M184.798 19.0472L291.628 0.511475V122.108L184.798 103.572V19.0472Z" fill="#F2F2F2"/>
<path d="M292 122.619L184.426 103.955V18.6649L292 0V122.619ZM185.17 103.19L291.256 121.596V1.02303L185.17 19.4297V103.19Z" fill="#3F3D56"/>
<path d="M235.297 43.3158C235.138 42.886 234.972 42.4495 234.794 42.0294C234.624 41.6195 234.432 41.2225 234.22 40.8408C234.028 40.4918 233.803 40.1711 233.548 39.8852C233.318 39.6264 233.046 39.426 232.749 39.2962C232.426 39.1632 232.078 39.1357 231.742 39.2166C231.392 39.3046 231.057 39.463 230.751 39.6849C230.414 39.9264 230.095 40.2026 229.799 40.5105C229.491 40.8236 229.192 41.1654 228.906 41.5041C228.056 42.5135 227.22 43.5363 226.395 44.5725C225.577 45.6026 224.77 46.6456 223.975 47.7016C223.186 48.7513 222.409 49.8138 221.644 50.8889C220.884 51.9582 220.135 53.0398 219.399 54.1338L219.402 54.1984L221.128 53.9437L222.876 53.6859L224.646 53.425L226.437 53.1597C226.872 53.0955 227.312 53.0292 227.752 52.943C228.197 52.8594 228.637 52.7471 229.071 52.6065C229.515 52.4616 229.947 52.2707 230.363 52.036C230.802 51.787 231.216 51.4805 231.597 51.122C231.748 50.9796 231.898 50.8262 232.049 50.674C232.2 50.5219 232.353 50.3716 232.507 50.2367C232.656 50.1037 232.815 49.988 232.982 49.8909C233.14 49.7991 233.31 49.7406 233.485 49.718C233.698 49.6958 233.913 49.7346 234.111 49.8312C234.322 49.9356 234.518 50.0785 234.693 50.2548C234.886 50.4483 235.064 50.662 235.225 50.8934C235.395 51.1359 235.555 51.3886 235.704 51.6504C236.609 53.2901 237.375 55.032 237.992 56.8507C238.662 58.7354 239.257 60.7222 239.872 62.6926C240.488 64.6715 241.121 66.634 241.86 68.4647C242.555 70.2636 243.442 71.9479 244.501 73.4757C243.838 70.7969 243.146 68.1521 242.425 65.5413C241.708 62.9438 240.964 60.3829 240.193 57.8585C239.425 55.348 238.631 52.8768 237.813 50.445C236.998 48.0276 236.16 45.6512 235.296 43.3158H235.297Z" fill="white"/>
<path d="M212.015 44.0344L211.988 44.0706L211.962 44.1069L211.935 44.1427L211.909 44.1785C211.844 44.2419 211.78 44.3062 211.716 44.3713C211.651 44.4365 211.587 44.5021 211.524 44.5681C211.46 44.6344 211.396 44.7011 211.333 44.768L211.144 44.9696C211.026 45.0961 210.908 45.2236 210.79 45.3521C210.673 45.4807 210.556 45.6104 210.44 45.7413C210.324 45.8722 210.209 46.0048 210.094 46.1393C209.979 46.2737 209.864 46.408 209.75 46.5421C209.523 46.8113 209.299 47.0847 209.076 47.3624C208.854 47.6401 208.634 47.9212 208.416 48.2057C208.199 48.491 207.983 48.7808 207.77 49.075C207.557 49.3693 207.346 49.6673 207.138 49.9692C207.03 50.1257 206.922 50.2834 206.816 50.4423C206.709 50.6012 206.603 50.761 206.498 50.9217C206.392 51.0823 206.288 51.2445 206.184 51.4081C206.08 51.5717 205.976 51.7349 205.873 51.8976L205.851 51.8534L205.829 51.8092L205.807 51.765L205.787 51.7145L205.782 51.703L205.777 51.6915L205.772 51.68L205.767 51.6681C205.548 51.161 205.375 50.6273 205.252 50.0762C205.122 49.4971 205.037 48.905 204.998 48.3074C204.957 47.6946 204.961 47.0788 205.01 46.4669C205.059 45.8534 205.155 45.2465 205.297 44.6539C205.43 44.0933 205.612 43.5507 205.839 43.0346C206.041 42.5723 206.291 42.1416 206.583 41.7522C206.842 41.4045 207.146 41.1075 207.483 40.8722C207.794 40.6558 208.138 40.5153 208.495 40.4592C208.841 40.4075 209.193 40.4454 209.526 40.5702C209.873 40.7037 210.196 40.9137 210.478 41.1893C210.796 41.4982 211.072 41.8617 211.299 42.2678C211.561 42.7331 211.774 43.2342 211.934 43.7602L211.937 43.7695L211.94 43.7792L211.943 43.789L211.946 43.7982L211.963 43.8571L211.981 43.9163L211.998 43.976L212.015 44.0344Z" fill="url(#paint3_linear_232_1370)"/>
<path d="M212.386 84.0049C212.78 84.0574 213.175 84.1219 213.57 84.1986C213.966 84.2752 214.363 84.3637 214.761 84.4639C215.16 84.5653 215.559 84.679 215.959 84.8048C216.359 84.9307 216.761 85.0693 217.164 85.2205C218.406 85.6911 219.621 86.258 220.801 86.9177C222.049 87.615 223.261 88.4013 224.429 89.2724C225.672 90.1987 226.871 91.2063 228.02 92.2904C229.245 93.4462 230.42 94.6755 231.539 95.9735C231.925 96.419 232.307 96.8759 232.686 97.3443C233.066 97.8128 233.442 98.2936 233.817 98.7868C234.191 99.28 234.562 99.7844 234.929 100.3C235.297 100.816 235.661 101.343 236.023 101.883L236.156 102.082L236.288 102.282L236.42 102.484L236.552 102.686C236.561 102.703 236.575 102.718 236.59 102.728C236.606 102.739 236.623 102.744 236.641 102.744C236.656 102.743 236.671 102.737 236.684 102.728C236.698 102.719 236.709 102.707 236.718 102.692C236.74 102.658 236.752 102.617 236.753 102.574C236.754 102.525 236.741 102.476 236.716 102.437C236.356 101.884 235.993 101.341 235.625 100.809C235.257 100.277 234.886 99.758 234.512 99.2516C234.14 98.7445 233.763 98.2485 233.382 97.7636C233.001 97.2786 232.618 96.8069 232.235 96.3485C231.851 95.8898 231.464 95.4426 231.074 95.0069C230.684 94.5711 230.293 94.1481 229.9 93.7377C229.507 93.3274 229.112 92.9294 228.715 92.5438C228.317 92.1582 227.919 91.7843 227.52 91.4219C227.12 91.0599 226.718 90.7099 226.315 90.3717C225.911 90.0336 225.508 89.7077 225.103 89.394C224.699 89.0815 224.294 88.781 223.887 88.4924C223.481 88.2037 223.074 87.9274 222.668 87.6632C222.262 87.4006 221.856 87.15 221.448 86.9115C221.041 86.673 220.634 86.4475 220.228 86.2349C219.823 86.0218 219.417 85.821 219.009 85.6326C218.602 85.4443 218.196 85.2683 217.792 85.1046C217.388 84.9416 216.985 84.7908 216.582 84.6523C216.178 84.5137 215.777 84.3878 215.376 84.2746C214.976 84.1614 214.576 84.0603 214.177 83.9713C213.778 83.8823 213.38 83.8055 212.985 83.7409L212.836 83.717L212.687 83.6945L212.535 83.6732L212.386 83.6533C212.373 83.653 212.36 83.6573 212.349 83.6657C212.337 83.675 212.327 83.6872 212.319 83.7015C212.31 83.7181 212.304 83.7361 212.3 83.755C212.295 83.777 212.292 83.7996 212.292 83.8223C212.292 83.8447 212.295 83.8669 212.3 83.8886C212.304 83.9086 212.311 83.9278 212.319 83.9456C212.327 83.9613 212.337 83.9751 212.349 83.9863C212.36 83.9965 212.373 84.0029 212.386 84.0049H212.386Z" fill="white"/>
<path d="M212.014 72.8706C212.718 72.99 213.426 73.1116 214.138 73.2354C214.849 73.3593 215.568 73.4905 216.295 73.629C217.021 73.7679 217.751 73.9153 218.484 74.0712C219.221 74.2304 219.96 74.4026 220.703 74.5877C221.452 74.7646 222.204 74.9655 222.957 75.1904C223.715 75.4153 224.475 75.6636 225.237 75.9351C226.003 76.2081 226.77 76.5046 227.539 76.8248C228.312 77.1494 229.086 77.4969 229.862 77.8675C230.552 78.198 231.24 78.5584 231.927 78.9487C232.613 79.339 233.301 79.7598 233.989 80.2112C234.677 80.6652 235.362 81.1491 236.045 81.6629C236.727 82.1768 237.409 82.7229 238.091 83.3013C238.728 83.844 239.358 84.4189 239.982 85.0259C240.605 85.6328 241.222 86.274 241.834 86.9494C242.445 87.6248 243.048 88.3313 243.641 89.0689C244.234 89.8065 244.819 90.5771 245.396 91.3807C245.966 92.174 246.52 93.0014 247.055 93.8628C247.591 94.7242 248.112 95.6204 248.618 96.5514C249.121 97.4824 249.606 98.4434 250.071 99.4345C250.536 100.426 250.981 101.447 251.406 102.499C251.459 102.632 251.511 102.765 251.563 102.897C251.615 103.03 251.667 103.164 251.718 103.299C251.77 103.434 251.82 103.569 251.871 103.704C251.922 103.839 251.971 103.975 252.02 104.111C252.027 104.134 252.038 104.156 252.052 104.174C252.066 104.191 252.083 104.206 252.102 104.215C252.118 104.221 252.134 104.223 252.15 104.22C252.166 104.218 252.181 104.211 252.194 104.2C252.224 104.175 252.246 104.139 252.254 104.097C252.265 104.043 252.26 103.987 252.24 103.938C251.838 102.852 251.414 101.792 250.966 100.759C250.518 99.7264 250.049 98.7273 249.56 97.7621C249.073 96.7943 248.566 95.8576 248.039 94.952C247.512 94.0463 246.969 93.178 246.41 92.3469C245.847 91.5103 245.272 90.704 244.686 89.9281C244.099 89.1522 243.505 88.4106 242.902 87.7034C242.3 86.9959 241.688 86.3203 241.067 85.6768C240.446 85.0332 239.82 84.4249 239.189 83.8518C238.531 83.2545 237.868 82.6866 237.2 82.148C236.533 81.6094 235.864 81.1029 235.196 80.6286C234.526 80.1537 233.855 79.7084 233.181 79.2927C232.507 78.877 231.833 78.4928 231.159 78.1399C230.38 77.7354 229.601 77.3569 228.822 77.0043C228.049 76.6535 227.276 76.3292 226.504 76.0315C225.735 75.7323 224.969 75.4591 224.206 75.2121C223.446 74.9662 222.688 74.7451 221.932 74.5488C221.175 74.3424 220.421 74.1527 219.669 73.9797C218.922 73.8063 218.178 73.6455 217.437 73.4972C216.701 73.3498 215.968 73.2101 215.239 73.078C214.515 72.9474 213.794 72.8215 213.075 72.7004L212.809 72.6562L212.543 72.6119L212.278 72.5655L212.014 72.5213C212 72.5189 211.986 72.5219 211.973 72.5299C211.961 72.5378 211.951 72.5503 211.944 72.5655C211.928 72.6009 211.92 72.6407 211.921 72.6809C211.921 72.7241 211.929 72.7668 211.945 72.8056C211.951 72.8223 211.961 72.837 211.973 72.8483C211.985 72.8596 211.999 72.8673 212.014 72.8706V72.8706Z" fill="white"/>
<path d="M259.015 100.226C258.901 99.9898 258.787 99.7529 258.674 99.515C258.56 99.2771 258.447 99.0403 258.335 98.8044C258.222 98.5686 258.109 98.3319 257.997 98.0942C257.885 97.8566 257.773 97.6199 257.662 97.3841C256.756 95.4599 255.869 93.5328 255 91.6027C254.136 89.6833 253.29 87.7602 252.462 85.8333C251.638 83.9171 250.832 81.9963 250.044 80.071C249.259 78.1548 248.49 76.2348 247.738 74.3109C247.229 73.009 246.729 71.7056 246.236 70.4005C245.744 69.0954 245.26 67.7927 244.785 66.4923C244.311 65.1917 243.845 63.8891 243.386 62.5846C242.927 61.2801 242.477 59.9774 242.035 58.6764C241.825 58.0573 241.617 57.4382 241.41 56.8192C241.203 56.2001 240.998 55.581 240.795 54.9619C240.592 54.3428 240.391 53.7238 240.192 53.1047C239.992 52.4856 239.795 51.8665 239.599 51.2474C239.447 50.7675 239.297 50.2873 239.147 49.8067C238.997 49.3262 238.848 48.8458 238.7 48.3656C238.553 47.8854 238.406 47.405 238.261 46.9245C238.116 46.4439 237.971 45.9634 237.828 45.4829C237.787 45.3455 237.746 45.2081 237.706 45.0708C237.666 44.9334 237.625 44.7959 237.586 44.6582C237.546 44.5205 237.506 44.3828 237.466 44.2452L237.347 43.8317C237.254 43.5074 237.162 43.1831 237.069 42.8589C236.977 42.5346 236.884 42.2112 236.791 41.8887C236.698 41.5662 236.604 41.2447 236.509 40.9242C236.415 40.6038 236.319 40.2851 236.221 39.9682C236.11 39.6074 235.994 39.2425 235.868 38.8839C235.742 38.5253 235.608 38.1737 235.463 37.8381C235.323 37.5108 235.165 37.1947 234.99 36.8918C234.827 36.608 234.64 36.3443 234.432 36.1047C234.343 35.9986 234.247 35.9014 234.145 35.8142C234.048 35.7313 233.944 35.6591 233.836 35.5984C233.732 35.5399 233.623 35.4935 233.511 35.46C233.401 35.427 233.288 35.4073 233.174 35.4011C233.013 35.399 232.852 35.4258 232.697 35.4807C232.538 35.5375 232.384 35.6139 232.239 35.7089C232.086 35.8083 231.939 35.919 231.798 36.0406C231.654 36.163 231.512 36.2957 231.373 36.4301C230.358 37.4221 229.366 38.4557 228.397 39.5309C227.437 40.5983 226.5 41.7056 225.589 42.8527C224.683 43.9918 223.801 45.1688 222.945 46.3837C222.093 47.5906 221.267 48.8337 220.465 50.1132C219.667 51.3808 218.894 52.6788 218.147 54.0072C217.405 55.3291 216.688 56.6808 215.997 58.0622C215.309 59.4363 214.648 60.8388 214.012 62.2697C213.38 63.6916 212.775 65.1413 212.194 66.6188C212.189 66.6366 212.18 66.6527 212.169 66.6657C212.157 66.6787 212.143 66.6882 212.128 66.6935C212.115 66.696 212.102 66.6948 212.09 66.69C212.077 66.6852 212.066 66.6771 212.057 66.6661C212.034 66.6405 212.019 66.6069 212.013 66.5701C212.005 66.5253 212.01 66.4787 212.027 66.4375C212.097 66.258 212.168 66.0787 212.239 65.8998C212.311 65.7208 212.382 65.5429 212.455 65.366C212.527 65.1892 212.599 65.0114 212.672 64.8327C212.745 64.6541 212.818 64.4772 212.892 64.3021C213.811 62.0988 214.789 59.9595 215.824 57.8844C216.866 55.7952 217.966 53.7748 219.126 51.8232C220.293 49.8568 221.518 47.9644 222.8 46.1458C224.093 44.3124 225.444 42.5583 226.852 40.8835C227.09 40.6008 227.329 40.3208 227.571 40.0434C227.812 39.766 228.055 39.4905 228.3 39.2169C228.545 38.9436 228.792 38.6728 229.04 38.4046C229.288 38.1363 229.538 37.8702 229.79 37.6064C229.917 37.4734 230.044 37.3408 230.172 37.2084C230.3 37.0761 230.428 36.9446 230.557 36.814C230.685 36.6831 230.815 36.5534 230.944 36.4248C231.074 36.2963 231.204 36.1692 231.336 36.0437C231.458 35.9099 231.588 35.7856 231.724 35.6713C231.855 35.5622 231.992 35.4638 232.134 35.3768C232.27 35.2927 232.412 35.2205 232.558 35.161C232.7 35.1034 232.846 35.0591 232.994 35.0284C233.481 34.9766 233.966 35.1541 234.344 35.5227C234.773 35.9443 235.13 36.4587 235.397 37.0386C235.711 37.6954 235.982 38.3802 236.207 39.0869C236.443 39.8041 236.648 40.5262 236.832 41.1714C236.89 41.3745 236.948 41.5775 237.007 41.7803C237.065 41.9832 237.124 42.1861 237.183 42.3892C237.241 42.5921 237.3 42.7949 237.36 42.9977C237.419 43.2005 237.479 43.4032 237.538 43.6057C237.764 44.3758 237.992 45.1452 238.223 45.914C238.454 46.6829 238.688 47.452 238.924 48.2214C239.161 48.9912 239.4 49.7603 239.642 50.5288C239.884 51.2974 240.129 52.0664 240.376 52.8358C240.529 53.311 240.683 53.7858 240.838 54.2601C240.993 54.7345 241.149 55.2094 241.306 55.6849C241.463 56.1601 241.621 56.6351 241.781 57.1097C241.94 57.5843 242.1 58.0588 242.26 58.5331C242.764 60.0151 243.277 61.4944 243.8 62.9711C244.325 64.453 244.859 65.9326 245.404 67.4099C245.949 68.8927 246.506 70.3735 247.074 71.8522C247.643 73.3366 248.222 74.8191 248.812 76.2999C249.596 78.2704 250.399 80.2364 251.22 82.198C252.045 84.1702 252.888 86.1386 253.749 88.1031C254.617 90.0783 255.504 92.0508 256.409 94.0207C257.32 96.0015 258.251 97.9797 259.202 99.9555C259.226 100.006 259.237 100.064 259.232 100.121C259.228 100.17 259.212 100.216 259.187 100.254C259.177 100.27 259.164 100.283 259.15 100.292C259.135 100.301 259.119 100.305 259.102 100.305C259.083 100.302 259.065 100.292 259.05 100.279C259.035 100.265 259.023 100.246 259.015 100.226V100.226Z" fill="white"/>
<path d="M220.285 48.2945L220.205 48.1402L220.125 47.9858L220.044 47.8315L219.964 47.6772C219.751 47.2726 219.535 46.8702 219.312 46.4806C219.09 46.091 218.861 45.7125 218.622 45.3614C218.392 45.0164 218.144 44.6897 217.878 44.3832C217.627 44.0939 217.353 43.8346 217.06 43.6089C216.926 43.5039 216.787 43.4105 216.642 43.3295C216.503 43.2516 216.359 43.1865 216.212 43.1349C216.067 43.0845 215.92 43.048 215.771 43.0257C215.623 43.0036 215.474 42.9961 215.325 43.0031C215.17 43.0211 215.017 43.0519 214.866 43.0951C214.712 43.139 214.562 43.195 214.414 43.2627C214.263 43.3321 214.116 43.4128 213.974 43.5041C213.826 43.5986 213.683 43.7033 213.546 43.8176C213.48 43.8698 213.414 43.9236 213.348 43.979C213.282 44.0345 213.217 44.0909 213.152 44.1484C213.087 44.2074 213.022 44.2663 212.958 44.3253C212.894 44.3843 212.83 44.4451 212.766 44.5079C212.693 44.5787 212.621 44.6505 212.549 44.7233C212.477 44.7961 212.405 44.8698 212.333 44.9444C212.262 45.0184 212.191 45.0928 212.12 45.1677L211.907 45.3928C211.774 45.534 211.642 45.6764 211.511 45.8199C211.38 45.9635 211.249 46.1084 211.119 46.2546C210.988 46.402 210.859 46.5494 210.73 46.6968C210.601 46.8442 210.472 46.994 210.345 47.1461C210.091 47.4462 209.839 47.7512 209.59 48.061C209.341 48.3708 209.095 48.6848 208.852 49.0029C208.609 49.321 208.368 49.6439 208.129 49.9718C207.891 50.2996 207.655 50.6315 207.422 50.9676C207.302 51.1421 207.182 51.3177 207.062 51.4943C206.943 51.6709 206.824 51.8486 206.707 52.0276C206.589 52.2065 206.472 52.3866 206.356 52.5679C206.24 52.7492 206.124 52.9316 206.009 53.1149C205.903 53.2853 205.797 53.4566 205.691 53.6288C205.586 53.8009 205.481 53.9741 205.377 54.1484C205.274 54.3223 205.17 54.4973 205.068 54.6733C204.965 54.8492 204.863 55.0261 204.761 55.2039C204.755 55.2188 204.745 55.2312 204.733 55.2396C204.721 55.2481 204.707 55.2523 204.693 55.2516C204.68 55.2484 204.668 55.242 204.657 55.2327C204.647 55.2235 204.638 55.2117 204.632 55.1981C204.615 55.1647 204.605 55.1264 204.604 55.0872C204.603 55.0437 204.613 55.0008 204.633 54.9647L204.713 54.8218L204.794 54.6812L204.875 54.541L204.956 54.4017C205.033 54.2708 205.11 54.1405 205.187 54.0108C205.264 53.8811 205.341 53.7517 205.419 53.6226C205.497 53.4937 205.575 53.3654 205.654 53.2374C205.733 53.1095 205.812 52.9821 205.892 52.8554C206.036 52.6234 206.182 52.3934 206.33 52.1655C206.477 51.9376 206.626 51.7112 206.776 51.4863C206.925 51.2631 207.075 51.041 207.227 50.8199C207.379 50.5988 207.532 50.3796 207.687 50.1623C207.927 49.8236 208.17 49.4898 208.416 49.1608C208.661 48.8318 208.909 48.5075 209.16 48.1879C209.411 47.8675 209.665 47.552 209.921 47.2416C210.178 46.9312 210.438 46.625 210.7 46.3232C210.832 46.1725 210.963 46.0232 211.096 45.8752C211.228 45.7272 211.361 45.5798 211.495 45.433C211.629 45.2874 211.764 45.1431 211.899 45.0001C212.034 44.8571 212.169 44.7153 212.306 44.5747L212.43 44.4482C212.471 44.4064 212.513 44.3648 212.555 44.3235C212.597 44.2823 212.639 44.2413 212.681 44.2006C212.723 44.1599 212.765 44.1198 212.807 44.0803C212.903 43.9866 213 43.8962 213.098 43.8092C213.196 43.7223 213.295 43.6388 213.396 43.559C213.495 43.4788 213.596 43.4023 213.698 43.3295C213.8 43.2566 213.903 43.1872 214.006 43.1212C214.149 43.0276 214.298 42.9465 214.452 42.8784C214.601 42.8126 214.753 42.7604 214.909 42.7223C215.061 42.6848 215.216 42.6619 215.372 42.6538C215.527 42.6458 215.682 42.6529 215.837 42.675C215.988 42.704 216.137 42.7455 216.283 42.7992C216.432 42.8541 216.577 42.9207 216.718 42.9987C216.864 43.0791 217.005 43.1704 217.141 43.272C217.282 43.3777 217.418 43.4934 217.548 43.6182C217.836 43.8903 218.105 44.1904 218.352 44.5154C218.613 44.8584 218.858 45.2177 219.087 45.5918C219.323 45.9738 219.55 46.3749 219.773 46.7857C219.996 47.1965 220.214 47.6148 220.431 48.0318C220.452 48.0729 220.461 48.1207 220.458 48.1685C220.456 48.212 220.444 48.2541 220.424 48.291C220.418 48.3058 220.408 48.3187 220.397 48.3289C220.385 48.339 220.372 48.3461 220.358 48.3498C220.343 48.3503 220.328 48.3454 220.315 48.3355C220.302 48.3257 220.291 48.3114 220.285 48.2945V48.2945Z" fill="white"/>
<path d="M246.025 65.9114L249.349 64.0002L251.026 63.0357C251.162 62.9494 251.299 62.8658 251.437 62.785C251.575 62.7042 251.713 62.626 251.853 62.5502C251.993 62.4744 252.133 62.4016 252.275 62.3318C252.416 62.2619 252.558 62.1945 252.7 62.1297C252.823 62.0743 252.95 62.0329 253.08 62.0059C253.335 61.9527 253.597 61.9585 253.851 62.0231C253.981 62.0562 254.108 62.1036 254.231 62.1646C254.344 62.2305 254.453 62.3044 254.558 62.3857C254.666 62.4691 254.77 62.5596 254.87 62.6568C254.972 62.757 255.07 62.8635 255.163 62.976C255.259 63.0921 255.35 63.2139 255.436 63.3409C255.525 63.47 255.612 63.6016 255.698 63.7357C255.784 63.8699 255.869 64.0065 255.952 64.1457C256.035 64.2848 256.116 64.4265 256.196 64.5706C256.276 64.7148 256.354 64.8613 256.43 65.0102C256.525 65.1894 256.62 65.3692 256.715 65.5496C256.81 65.7301 256.904 65.9109 256.998 66.0922L257.281 66.6366L257.565 67.1818C257.957 67.9333 258.348 68.6874 258.74 69.4441C259.132 70.2009 259.525 70.9622 259.92 71.7281C260.315 72.4946 260.71 73.2631 261.105 74.0337C261.5 74.8043 261.897 75.5801 262.295 76.361C262.692 77.1414 263.09 77.9245 263.49 78.7105C263.89 79.4964 264.29 80.2869 264.69 81.082C265.091 81.8779 265.493 82.676 265.894 83.476C266.296 84.2761 266.699 85.0817 267.104 85.8927C267.509 86.7049 267.915 87.52 268.321 88.3381C268.727 89.1561 269.134 89.9788 269.543 90.806C269.952 91.6335 270.361 92.4638 270.77 93.2969C271.18 94.13 271.591 94.9681 272.003 95.8113L272.154 96.1208L272.305 96.4303L272.457 96.7399L272.608 97.0494C272.619 97.0734 272.633 97.0946 272.651 97.1117C272.668 97.1288 272.688 97.1415 272.71 97.1489C272.728 97.1542 272.747 97.1549 272.766 97.1512C272.784 97.1475 272.802 97.1393 272.818 97.1272C272.85 97.1026 272.874 97.0637 272.883 97.0189C272.892 96.9638 272.884 96.9063 272.858 96.8588C272.442 96.006 272.026 95.1561 271.611 94.3091C271.195 93.4621 270.781 92.62 270.368 91.7828C269.956 90.9459 269.543 90.1117 269.131 89.2804C268.719 88.449 268.308 87.6236 267.899 86.8041C267.488 85.9807 267.078 85.16 266.668 84.3419C266.259 83.5238 265.85 82.711 265.443 81.9036C265.037 81.0955 264.63 80.2903 264.223 79.4878C263.817 78.6854 263.411 77.8878 263.007 77.0951C262.603 76.3024 262.2 75.5123 261.797 74.7249C261.394 73.9375 260.992 73.1549 260.592 72.3772C260.192 71.5996 259.792 70.8245 259.392 70.0521C258.992 69.2798 258.594 68.5123 258.197 67.7496L257.899 67.1796L257.602 66.6109L257.304 66.0436L257.007 65.4776C256.923 65.3187 256.84 65.1596 256.757 65.0004C256.674 64.8413 256.59 64.6834 256.506 64.5268C256.422 64.3703 256.336 64.2155 256.249 64.0625C256.163 63.9095 256.074 63.7595 255.984 63.6124C255.819 63.3432 255.642 63.085 255.454 62.839C255.274 62.6025 255.077 62.3852 254.865 62.1894C254.668 62.0056 254.451 61.8538 254.221 61.7379C253.996 61.627 253.757 61.5662 253.514 61.5583C253.37 61.5662 253.228 61.5842 253.086 61.6123C252.944 61.6405 252.803 61.6786 252.665 61.7264C252.525 61.7748 252.388 61.8326 252.253 61.8997C252.117 61.9681 251.983 62.0455 251.854 62.1314L251.427 62.3764L251.001 62.6218L250.576 62.8673L250.154 63.1118L246.789 65.0508L245.96 65.5293C245.942 65.5401 245.926 65.5552 245.913 65.5737C245.9 65.5922 245.891 65.6137 245.885 65.6368C245.873 65.6846 245.871 65.7351 245.88 65.784C245.885 65.8279 245.903 65.8683 245.929 65.8994C245.942 65.9134 245.958 65.9221 245.976 65.9243C245.993 65.9264 246.01 65.9219 246.025 65.9114Z" fill="white"/>
<path d="M212.714 41.9551L212.559 42.1762C212.275 41.4961 211.899 40.8761 211.446 40.3411C211.064 39.8886 210.605 39.5378 210.1 39.3121C209.634 39.1087 209.132 39.0464 208.641 39.1308C208.117 39.2285 207.619 39.4688 207.186 39.833C206.695 40.2454 206.268 40.7568 205.925 41.344C205.544 41.9915 205.234 42.6952 205.005 43.4374C204.755 44.2423 204.578 45.0772 204.479 45.9274C204.374 46.825 204.348 47.7332 204.402 48.6373C204.428 49.0881 204.475 49.5369 204.542 49.9815C204.607 50.4103 204.694 50.8343 204.8 51.2511C204.903 51.65 205.026 52.0407 205.17 52.4207C205.307 52.7823 205.466 53.1315 205.645 53.4656L205.514 53.7097C205.327 53.3617 205.162 52.998 205.02 52.6215C204.869 52.2259 204.741 51.8193 204.635 51.4041C204.524 50.9703 204.434 50.5291 204.366 50.0828C204.296 49.62 204.247 49.1529 204.22 48.6837C204.164 47.7429 204.191 46.7978 204.301 45.8638C204.404 44.9788 204.587 44.1098 204.848 43.272C205.086 42.4993 205.408 41.7667 205.805 41.0924C206.162 40.4808 206.606 39.948 207.117 39.5182C207.568 39.1382 208.086 38.8871 208.632 38.7846C209.143 38.6959 209.665 38.7601 210.151 38.9712C210.677 39.2056 211.155 39.5703 211.554 40.0413C212.026 40.5991 212.418 41.2457 212.714 41.9551Z" fill="white"/>
<path d="M228.409 64.6886C228.377 64.6544 228.348 64.616 228.322 64.5741C228.295 64.5295 228.272 64.482 228.253 64.4321C228.232 64.3792 228.215 64.3243 228.203 64.2681C228.189 64.2088 228.18 64.1483 228.174 64.0872C228.168 64.0252 228.167 63.9629 228.169 63.9006C228.171 63.8395 228.177 63.7788 228.187 63.7188C228.197 63.6607 228.211 63.6036 228.228 63.5482C228.245 63.495 228.266 63.4438 228.291 63.3952L227.645 52.2959L228.724 52.3843L229.024 63.3509C229.07 63.4309 229.106 63.5187 229.129 63.6114C229.154 63.708 229.168 63.808 229.171 63.909C229.175 64.0108 229.168 64.1127 229.15 64.2123C229.133 64.3097 229.104 64.4035 229.065 64.4909C229.029 64.5693 228.983 64.6393 228.926 64.6974C228.879 64.7482 228.822 64.7854 228.761 64.8062C228.702 64.8244 228.641 64.8244 228.582 64.8062C228.518 64.7838 228.458 64.7435 228.409 64.6886V64.6886Z" fill="#9E616A"/>
<path d="M229.164 51.8348L228.88 55.5387L228.919 57.8027L227.731 58.0031L227.494 56.1317L227.363 51.1746C227.358 50.9873 227.374 50.8001 227.411 50.6178C227.444 50.4507 227.497 50.29 227.568 50.1407C227.631 50.0061 227.715 49.8863 227.814 49.7869C227.904 49.6969 228.011 49.6345 228.126 49.6052V49.6052C228.24 49.5776 228.358 49.5892 228.466 49.6388C228.579 49.6921 228.679 49.7758 228.76 49.8834C228.852 50.0059 228.926 50.1469 228.977 50.2999C229.037 50.4755 229.075 50.6608 229.089 50.8496L229.164 51.8348Z" fill="#2F2E41"/>
<path d="M224.659 84.0147L223.958 83.9581L223.626 79.2473L224.659 79.3132V84.0147Z" fill="#9E616A"/>
<path d="M224.838 85.2112L222.588 85.0215V84.972C222.587 84.7739 222.61 84.5768 222.656 84.3865C222.696 84.2194 222.759 84.0612 222.842 83.9186C222.914 83.7941 223.009 83.6904 223.119 83.6149C223.223 83.5453 223.341 83.513 223.459 83.522V83.522L224.838 83.6303L224.838 85.2112Z" fill="#2F2E41"/>
<path d="M230.58 84.4895L229.85 84.4302L229.504 79.6208L230.58 79.6898V84.4895Z" fill="#9E616A"/>
<path d="M230.766 85.7109L228.422 85.5132V85.4628C228.422 85.2606 228.446 85.0593 228.494 84.8654C228.535 84.6945 228.601 84.5331 228.688 84.3882C228.763 84.2608 228.862 84.1551 228.976 84.0787C229.084 84.0077 229.207 83.975 229.331 83.9845V83.9845L230.766 84.0977V85.7109Z" fill="#2F2E41"/>
<path d="M227.761 42.5291C227.973 42.5161 228.184 42.5753 228.368 42.6998C228.566 42.8351 228.735 43.0203 228.866 43.2424C229.016 43.4958 229.129 43.777 229.201 44.0746C229.284 44.4118 229.325 44.7615 229.324 45.1129C229.325 45.4687 229.283 45.8229 229.201 46.1649C229.128 46.4738 229.015 46.7674 228.866 47.0352C228.735 47.2721 228.566 47.4755 228.368 47.6334C228.188 47.777 227.978 47.8596 227.761 47.8722C227.549 47.8812 227.34 47.8183 227.157 47.6909C226.961 47.5531 226.793 47.3664 226.665 47.1439C226.517 46.8913 226.405 46.6115 226.334 46.3157C226.252 45.9816 226.212 45.6354 226.213 45.2876C226.212 44.9354 226.253 44.5849 226.334 44.2462C226.406 43.9392 226.518 43.6472 226.664 43.3804C226.794 43.1438 226.961 42.9399 227.157 42.7803C227.335 42.6333 227.544 42.5466 227.761 42.5291Z" fill="#9E616A"/>
<path d="M227.56 48.9653L228.644 49.1312C228.781 49.4589 228.89 49.8014 228.971 50.154C229.055 50.5196 229.113 50.8932 229.144 51.2705C229.176 51.6567 229.181 52.0454 229.159 52.4326C229.138 52.8221 229.089 53.2088 229.013 53.5886L228.195 57.6634C228.195 57.6634 228.266 57.9062 228.372 58.3267C228.479 58.7473 228.621 59.3482 228.763 60.0624C228.905 60.7765 229.049 61.6061 229.155 62.4839C229.269 63.3821 229.329 64.2889 229.334 65.1972C229.378 66.5833 229.492 67.965 229.675 69.3349C229.88 71.071 230.153 73.0494 230.427 74.9155C230.701 76.7816 230.977 78.546 231.184 79.8394C231.391 81.1328 231.529 81.962 231.529 81.962L228.449 82.287L227.124 68.4779L225.32 82.0035L223.287 81.2845L224.403 63.6256L225.145 57.778L225.177 54.9227C225.177 54.9227 225.157 54.79 225.14 54.5689C225.117 54.275 225.109 53.9796 225.117 53.6845C225.126 53.298 225.169 52.9136 225.244 52.5374C225.323 52.1311 225.461 51.7445 225.653 51.3952L226.626 49.0153L227.56 48.9653Z" fill="#CACACA"/>
<path d="M225.958 44.3536L228.235 44.2178V42.5043C228.114 42.4265 227.99 42.3567 227.862 42.2951C227.751 42.2385 227.633 42.2017 227.512 42.1859C227.405 42.172 227.297 42.1968 227.201 42.2571C227.091 42.3359 227.002 42.4511 226.946 42.5888C226.808 42.5998 226.675 42.6551 226.561 42.7488C226.436 42.8514 226.329 42.9823 226.247 43.134C226.153 43.3045 226.082 43.4911 226.035 43.6872C225.984 43.904 225.958 44.1283 225.958 44.3536Z" fill="#2F2E41"/>
<path d="M228.363 42.193C228.524 42.1834 228.685 42.2171 228.833 42.2918C228.981 42.3665 229.113 42.4801 229.219 42.6242C229.467 42.9634 229.652 43.3604 229.762 43.7898C229.898 44.2773 229.993 44.7791 230.048 45.2884C230.102 45.7611 230.129 46.2375 230.13 46.7145C230.133 46.9144 230.118 47.114 230.086 47.3102C230.063 47.4543 230.019 47.5929 229.958 47.7201C229.907 47.8225 229.839 47.911 229.758 47.9797C229.677 48.045 229.588 48.0936 229.495 48.1234L229.358 46.8852L229.037 48.199L228.955 48.2025L228.87 48.2052H228.697L228.588 47.8293L228.348 48.2145C228.107 48.226 227.878 48.2521 227.67 48.2587C227.485 48.274 227.298 48.2496 227.12 48.1866C227.04 48.1545 226.966 48.1035 226.902 48.0367C226.839 47.9698 226.787 47.8885 226.751 47.7975C226.648 47.5121 226.601 47.2024 226.615 46.8923C226.616 46.4185 226.641 45.9453 226.689 45.4751C226.739 44.9614 226.829 44.4544 226.958 43.9605C227.066 43.5149 227.247 43.0991 227.491 42.7365C227.596 42.5787 227.728 42.4489 227.879 42.3554C228.029 42.2618 228.194 42.2065 228.363 42.193V42.193Z" fill="#2F2E41"/>
<path opacity="0.2" d="M226.345 58.4947L226.288 54.2094L226.136 52.3105L225.762 54.2054L226.345 58.4947Z" fill="black"/>
<path d="M229.223 57.8894L227.497 57.9097V49.2466L229.223 49.1741C229.394 49.1681 229.563 49.2196 229.711 49.3226C229.87 49.4343 230.006 49.5851 230.111 49.7648C230.232 49.9696 230.323 50.1965 230.381 50.4365C230.448 50.7072 230.482 50.988 230.481 51.2701V55.7257C230.482 56.0091 230.448 56.2911 230.381 56.5632C230.322 56.8076 230.231 57.0393 230.111 57.2495C230.006 57.4356 229.87 57.5939 229.711 57.7147C229.565 57.8259 229.396 57.8871 229.223 57.8916V57.8894Z" fill="url(#paint4_linear_232_1370)"/>
<path d="M228.981 53.2276C228.951 53.2282 228.922 53.2189 228.896 53.2006C228.869 53.1808 228.845 53.1543 228.827 53.1228C228.806 53.087 228.79 53.0475 228.78 53.0056C228.769 52.9585 228.763 52.9097 228.763 52.8606V49.6285L229.2 49.6108V52.8477C229.2 52.8971 229.194 52.9462 229.182 52.9937C229.172 53.0363 229.156 53.0768 229.135 53.1135C229.117 53.1461 229.093 53.1739 229.065 53.1953C229.04 53.2149 229.011 53.2259 228.98 53.2272L228.981 53.2276Z" fill="#3F3D56"/>
<path d="M229.507 57.2008L228.239 57.219C228.202 57.2192 228.165 57.207 228.133 57.1836C228.098 57.1581 228.068 57.1242 228.046 57.0841C228.019 57.0388 228 56.9888 227.987 56.9359C227.972 56.8766 227.965 56.8151 227.965 56.7533V55.4608C227.965 55.3988 227.972 55.3372 227.987 55.2777C228 55.2245 228.02 55.1741 228.046 55.1282C228.068 55.087 228.098 55.0518 228.133 55.0247C228.165 55.0002 228.201 54.9866 228.239 54.9854L229.507 54.9575C229.545 54.957 229.582 54.9691 229.615 54.9925C229.65 55.0177 229.679 55.0515 229.703 55.0915C229.729 55.137 229.749 55.1874 229.762 55.2405C229.777 55.3001 229.784 55.362 229.784 55.4241V56.7246C229.784 56.7868 229.777 56.8488 229.762 56.9085C229.749 56.9622 229.729 57.0131 229.703 57.0593C229.68 57.1005 229.65 57.1355 229.615 57.1624C229.582 57.1867 229.545 57.2 229.507 57.2008V57.2008Z" fill="#3F3D56"/>
<path d="M225.927 54.6307C225.841 54.4432 225.766 54.2486 225.704 54.0484C225.639 53.8408 225.585 53.6283 225.544 53.4125C225.5 53.1898 225.469 52.9641 225.449 52.7368C225.428 52.5043 225.419 52.2705 225.422 52.0368C225.421 51.5859 225.46 51.1361 225.537 50.6947C225.603 50.3122 225.708 49.9409 225.85 49.5892C225.962 49.3022 226.12 49.0438 226.315 48.8282C226.47 48.6532 226.672 48.5482 226.885 48.531C227.004 48.5362 227.121 48.5676 227.23 48.6234C227.344 48.6826 227.45 48.7631 227.542 48.8618C227.645 48.9701 227.734 49.0941 227.809 49.2306C227.893 49.3821 227.962 49.5444 228.015 49.7143L227.892 49.8514C227.846 49.6989 227.785 49.5531 227.71 49.4167C227.644 49.294 227.564 49.1822 227.473 49.0842C227.39 48.9941 227.296 48.9202 227.194 48.8653C227.096 48.8135 226.992 48.7836 226.885 48.7769C226.692 48.793 226.509 48.8905 226.37 49.0519C226.194 49.253 226.051 49.4926 225.951 49.7577C225.822 50.0855 225.727 50.4307 225.668 50.7858C225.598 51.1961 225.563 51.6138 225.564 52.0324C225.561 52.2518 225.57 52.4712 225.589 52.6895C225.607 52.9028 225.637 53.1145 225.677 53.3236C225.715 53.5263 225.765 53.7259 225.826 53.921C225.884 54.1092 225.954 54.2921 226.035 54.4684L225.927 54.6307Z" fill="url(#paint5_linear_232_1370)"/>
<path d="M226.621 65.1145C226.587 65.0743 226.557 65.0298 226.531 64.9819C226.504 64.9299 226.48 64.875 226.461 64.8178C226.44 64.7583 226.424 64.6969 226.412 64.6343C226.4 64.5687 226.391 64.502 226.387 64.4349C226.383 64.3672 226.383 64.2992 226.387 64.2314C226.392 64.1655 226.4 64.1 226.413 64.0356C226.426 63.9736 226.443 63.9129 226.463 63.8543C226.484 63.7982 226.509 63.7446 226.538 63.6942L226.22 51.5518L227.385 51.7543L227.333 63.726C227.38 63.8174 227.415 63.9165 227.437 64.0201C227.485 64.2346 227.487 64.4601 227.441 64.6754C227.419 64.7793 227.383 64.8786 227.336 64.9699C227.295 65.0512 227.242 65.1225 227.179 65.18C227.124 65.2295 227.06 65.2627 226.993 65.2768C226.928 65.2898 226.862 65.2828 226.8 65.2565C226.731 65.2262 226.669 65.1778 226.618 65.115L226.621 65.1145Z" fill="#9E616A"/>
<path d="M227.88 51.1979L227.444 55.2051L227.409 57.6744L226.117 57.773L225.925 55.7137L225.954 50.3007C225.954 50.0971 225.978 49.8946 226.023 49.6984C226.064 49.5203 226.127 49.3503 226.209 49.1938C226.283 49.054 226.377 48.9318 226.488 48.8334C226.589 48.7438 226.708 48.6861 226.833 48.6659V48.6659C226.958 48.6471 227.086 48.6713 227.2 48.7357C227.32 48.8053 227.426 48.9062 227.51 49.0311C227.606 49.1736 227.68 49.3345 227.731 49.5069C227.789 49.7035 227.823 49.909 227.832 50.1172L227.88 51.1979Z" fill="#CACACA"/>
<path d="M228.005 87.3599C228.017 87.3072 228.039 87.2586 228.069 87.218C228.1 87.1773 228.138 87.1459 228.18 87.1264C228.291 87.0776 228.411 87.0624 228.528 87.0821C228.689 87.1054 228.848 87.1532 228.999 87.2245C229.189 87.3115 229.372 87.419 229.546 87.5456C229.729 87.6779 229.903 87.828 230.066 87.9944C230.212 88.1414 230.346 88.3043 230.466 88.4808C230.565 88.6228 230.645 88.781 230.705 88.9504C230.753 89.0729 230.766 89.21 230.744 89.3422C230.733 89.3954 230.71 89.4445 230.679 89.4852C230.648 89.526 230.61 89.5574 230.566 89.5766C230.454 89.6245 230.332 89.6385 230.214 89.6173C230.051 89.5928 229.891 89.5438 229.739 89.4714C229.549 89.383 229.366 89.2742 229.192 89.1463C229.009 89.0142 228.836 88.8643 228.674 88.6984C228.53 88.5513 228.398 88.3884 228.279 88.212C228.182 88.0715 228.103 87.9151 228.044 87.7477C227.997 87.6263 227.984 87.4907 228.005 87.3599V87.3599Z" fill="white"/>
<path d="M232.966 87.4227C232.983 87.3738 233.011 87.3312 233.047 87.2994C233.083 87.2677 233.125 87.248 233.17 87.2423C233.293 87.2274 233.417 87.2477 233.532 87.3016C233.697 87.373 233.855 87.467 234.002 87.5815C234.19 87.7245 234.368 87.8852 234.534 88.0622C234.709 88.2477 234.873 88.4481 235.024 88.6618C235.158 88.8506 235.278 89.0523 235.384 89.2649C235.47 89.4326 235.536 89.6131 235.582 89.8018C235.618 89.9317 235.618 90.0721 235.582 90.202C235.564 90.2514 235.536 90.2941 235.499 90.3258C235.463 90.3575 235.42 90.3769 235.375 90.3819C235.25 90.3956 235.125 90.3738 235.008 90.3183C234.842 90.245 234.683 90.1493 234.534 90.033C234.347 89.888 234.17 89.7254 234.005 89.5466C233.831 89.3618 233.668 89.1623 233.518 88.9497C233.386 88.7622 233.266 88.5619 233.162 88.3509C233.077 88.1849 233.011 88.0062 232.966 87.8194C232.93 87.6906 232.93 87.5516 232.966 87.4227Z" fill="white"/>
<path d="M235.272 93.3246C235.289 93.274 235.316 93.2295 235.351 93.1955C235.387 93.1614 235.429 93.1392 235.474 93.1309C235.598 93.1089 235.724 93.1223 235.842 93.1702C236.011 93.2328 236.173 93.3186 236.326 93.4258C236.519 93.5596 236.703 93.7119 236.875 93.8813C237.058 94.0587 237.229 94.2519 237.388 94.4593C237.529 94.6423 237.657 94.8392 237.77 95.0478C237.862 95.2123 237.934 95.3909 237.985 95.5785C238.026 95.7084 238.029 95.8504 237.996 95.9831C237.979 96.0339 237.952 96.0786 237.916 96.1125C237.88 96.1465 237.837 96.1685 237.791 96.1763C237.666 96.1968 237.539 96.1817 237.419 96.1321C237.249 96.0676 237.085 95.9799 236.932 95.8708C236.738 95.7362 236.554 95.5831 236.381 95.4131C236.2 95.2357 236.03 95.0427 235.872 94.8356C235.733 94.6536 235.606 94.4579 235.495 94.2505C235.405 94.0876 235.333 93.9108 235.283 93.7252C235.244 93.5965 235.24 93.456 235.272 93.3246V93.3246Z" fill="white"/>
<path d="M240.219 95.8018C240.236 95.7503 240.264 95.705 240.301 95.6707C240.338 95.6364 240.381 95.6142 240.427 95.6064C240.555 95.5853 240.686 95.6005 240.808 95.6506C240.983 95.716 241.151 95.805 241.309 95.9159C241.508 96.0529 241.698 96.2087 241.877 96.382C242.065 96.5633 242.243 96.7608 242.407 96.9728C242.553 97.1602 242.685 97.362 242.803 97.5759C242.897 97.7436 242.972 97.9259 243.026 98.1176C243.067 98.2496 243.071 98.3941 243.037 98.5289C243.019 98.5809 242.99 98.6264 242.953 98.6606C242.916 98.6949 242.872 98.7168 242.825 98.7239C242.695 98.744 242.563 98.7276 242.439 98.6761C242.263 98.6093 242.094 98.5188 241.935 98.4064C241.735 98.2676 241.544 98.11 241.366 97.935C241.178 97.7533 241.002 97.5555 240.839 97.3434C240.695 97.1574 240.565 96.9574 240.45 96.7455C240.356 96.5794 240.282 96.3989 240.23 96.2091C240.189 96.0784 240.185 95.9354 240.219 95.8018V95.8018Z" fill="white"/>
<path d="M216.707 45.6969C216.378 45.4211 216.008 45.2202 215.618 45.1044C215.251 44.9986 214.871 44.9804 214.499 45.0509C214.115 45.1259 213.746 45.2842 213.41 45.5178C213.036 45.7788 212.698 46.1064 212.408 46.4893C212.989 46.6394 213.57 46.8055 214.153 46.9877C214.735 47.1699 215.321 47.3692 215.91 47.5855C216.498 47.8022 217.087 48.0353 217.677 48.2847C218.266 48.5341 218.859 48.8013 219.454 49.0864C219.203 48.8323 218.968 48.5578 218.749 48.2648C218.524 47.9685 218.303 47.6554 218.085 47.3463C217.867 47.0372 217.646 46.7326 217.418 46.4509C217.2 46.1749 216.962 45.9226 216.707 45.6969V45.6969Z" fill="white"/>
<path d="M212.395 46.4854L212.14 46.8749C212.162 46.841 212.184 46.8076 212.206 46.7745C212.227 46.7415 212.249 46.7089 212.272 46.6768C212.294 46.6447 212.317 46.6131 212.339 46.5822C212.362 46.5512 212.385 46.5204 212.408 46.4898L212.395 46.4854Z" fill="#F2F2F2"/>
<path d="M255.304 66.071C255.23 65.8973 255.147 65.7292 255.055 65.5678C254.966 65.4128 254.869 65.2651 254.764 65.1256C254.662 64.9918 254.553 64.8669 254.436 64.752C254.324 64.641 254.205 64.5408 254.079 64.4521L253.604 64.4769C254.51 67.0066 255.5 69.4708 256.575 71.8696C257.656 74.2826 258.82 76.6239 260.068 78.8936C261.325 81.1786 262.664 83.385 264.086 85.5129C265.52 87.6567 267.036 89.7138 268.636 91.6842L265.198 85.0795L261.832 78.6119L258.534 72.2769L255.304 66.071Z" fill="white"/>
<path d="M190.272 222H0.442935C0.325684 222 0.213348 221.944 0.130559 221.845C0.0477695 221.747 0.00128174 221.613 0.00128174 221.474C0.00128174 221.334 0.0477695 221.2 0.130559 221.102C0.213348 221.003 0.325684 220.947 0.442935 220.947H190.272C190.39 220.947 190.502 221.002 190.585 221.101C190.668 221.2 190.715 221.334 190.715 221.474C190.715 221.613 190.668 221.747 190.585 221.846C190.502 221.945 190.39 222 190.272 222V222Z" fill="#CACACA"/>
<path d="M65.8856 93.0798C65.6906 93.0797 65.5005 93.0069 65.3422 92.8716C65.1838 92.7363 65.0652 92.5453 65.003 92.3256L64.5297 90.649C64.4899 90.5111 64.4735 90.3652 64.4814 90.2197C64.4893 90.0743 64.5213 89.9321 64.5756 89.8014C64.6299 89.6707 64.7053 89.5541 64.7977 89.4582C64.89 89.3623 64.9974 89.2891 65.1137 89.2427C65.2299 89.1963 65.3527 89.1778 65.4751 89.1881C65.5974 89.1983 65.7168 89.2373 65.8264 89.3026C65.936 89.3679 66.0336 89.4584 66.1137 89.5688C66.1938 89.6791 66.2547 89.8073 66.293 89.9457L66.7664 91.6223C66.8445 91.9003 66.8267 92.2038 66.7169 92.4663C66.6071 92.7287 66.4142 92.9287 66.1806 93.0223H66.1804C66.0854 93.0603 65.9858 93.0797 65.8856 93.0798V93.0798Z" fill="#3F3D56"/>
<path d="M66.966 97.5143C66.7639 97.5137 66.5675 97.435 66.4064 97.29C66.2453 97.145 66.1282 96.9417 66.0728 96.7107L65.666 95.0092C65.5988 94.7273 65.6286 94.4252 65.7487 94.1694C65.8688 93.9135 66.0694 93.7248 66.3065 93.6447C66.5436 93.5646 66.7978 93.5996 67.0131 93.7421C67.2285 93.8846 67.3875 94.1229 67.4551 94.4047L67.862 96.1061C67.8954 96.2458 67.9053 96.3919 67.8912 96.5361C67.8771 96.6803 67.8392 96.8198 67.7797 96.9466C67.7203 97.0735 67.6404 97.1851 67.5446 97.2752C67.4488 97.3653 67.339 97.4321 67.2215 97.4718C67.1384 97.4999 67.0524 97.5143 66.966 97.5143V97.5143Z" fill="#3F3D56"/>
</g>
<defs>
<linearGradient id="paint0_linear_232_1370" x1="39.5325" y1="99.4753" x2="111.382" y2="111.512" gradientUnits="userSpaceOnUse">
<stop stop-color="#B936F5"/>
<stop offset="1" stop-color="#C64C85"/>
<stop offset="1" stop-color="#F1005B"/>
</linearGradient>
<linearGradient id="paint1_linear_232_1370" x1="64.0462" y1="82.7053" x2="72.0146" y2="83.3275" gradientUnits="userSpaceOnUse">
<stop stop-color="#B936F5"/>
<stop offset="1" stop-color="#C64C85"/>
<stop offset="1" stop-color="#F1005B"/>
</linearGradient>
<linearGradient id="paint2_linear_232_1370" x1="50.9339" y1="116.948" x2="99.8341" y2="125.044" gradientUnits="userSpaceOnUse">
<stop stop-color="#B936F5"/>
<stop offset="1" stop-color="#C64C85"/>
<stop offset="1" stop-color="#F1005B"/>
</linearGradient>
<linearGradient id="paint3_linear_232_1370" x1="203.665" y1="36.0707" x2="213.612" y2="37.1481" gradientUnits="userSpaceOnUse">
<stop stop-color="#B936F5"/>
<stop offset="1" stop-color="#C64C85"/>
<stop offset="1" stop-color="#F1005B"/>
</linearGradient>
<linearGradient id="paint4_linear_232_1370" x1="226.944" y1="45.8455" x2="231.192" y2="46.1013" gradientUnits="userSpaceOnUse">
<stop stop-color="#B936F5"/>
<stop offset="1" stop-color="#C64C85"/>
<stop offset="1" stop-color="#F1005B"/>
</linearGradient>
<linearGradient id="paint5_linear_232_1370" x1="224.941" y1="46.2073" x2="228.626" y2="46.4834" gradientUnits="userSpaceOnUse">
<stop stop-color="#B936F5"/>
<stop offset="1" stop-color="#C64C85"/>
<stop offset="1" stop-color="#F1005B"/>
</linearGradient>
<clipPath id="clip0_232_1370">
<rect width="292" height="222" fill="white"/>
</clipPath>
</defs>
</svg>
