<svg width="292" height="222" viewBox="0 0 292 222" fill="none" xmlns="http://www.w3.org/2000/svg">
<path opacity="0.1" d="M106.293 220.466C164.997 220.466 212.586 218.809 212.586 216.766C212.586 214.722 164.997 213.065 106.293 213.065C47.5889 213.065 0 214.722 0 216.766C0 218.809 47.5889 220.466 106.293 220.466Z" fill="#6C63FF"/>
<path opacity="0.1" d="M78.349 6.71845C85.1207 0.823684 95.75 -0.377702 105.425 0.0918668C135.815 1.56677 163.248 15.8989 186.977 32.1101C195.567 37.9788 204.025 44.3035 209.601 52.3852C220.952 68.8369 217.585 91.6279 201.801 105.181C196.431 109.792 189.921 113.327 183.237 116.461C171.354 122.033 158.533 126.506 145.045 127.779C135.428 128.687 125.691 127.949 116.13 126.682C89.4155 123.143 63.1935 115.317 41.2156 101.928C31.5762 96.055 22.4905 88.7542 18.5173 79.254C14.5442 69.7538 17.0869 57.7152 26.9298 52.092C31.0006 49.7663 35.8679 48.7159 40.6331 47.7296C47.6473 46.2779 54.774 44.8467 61.1038 41.8953C67.6416 38.8469 75.383 32.9518 74.0886 26.2044C72.6996 18.9646 71.5852 12.6063 78.349 6.71845Z" fill="#FF9100"/>
<path opacity="0.1" d="M263.572 222C279.272 222 292 220.9 292 219.543C292 218.186 279.272 217.086 263.572 217.086C247.872 217.086 235.144 218.186 235.144 219.543C235.144 220.9 247.872 222 263.572 222Z" fill="#6C63FF"/>
<path d="M148.265 83.6093C147.802 82.7341 145.355 77.2953 145.355 77.2953L141.256 66.9178C141.256 66.9178 138.346 62.5417 138.346 61.729C138.346 60.9163 133.056 57.6655 133.056 57.6655C133.056 57.6655 128.758 56.4152 128.427 56.2902C128.097 56.1651 123.005 54.5198 123.005 54.5198C123.005 54.5198 121 51.9441 120.714 52.6168L120.714 52.6185C120.704 52.6015 120.693 52.5868 120.682 52.5693C120.273 51.8216 120.013 51.0042 119.918 50.1612C119.907 50.0863 119.898 50.0073 119.888 49.9292C121.209 49.0548 122.291 47.879 123.042 46.5037C123.792 45.1285 124.188 43.5952 124.195 42.0367C124.194 41.6264 124.166 41.2166 124.11 40.8099C124.147 40.7877 124.185 40.7682 124.224 40.7514C124.306 40.7165 124.286 40.6881 124.225 40.6585C124.246 40.6479 124.267 40.6366 124.287 40.628C124.397 40.5815 124.324 40.5463 124.218 40.5045L124.224 40.5014C124.373 40.4381 124.185 40.3961 124.033 40.3292C124.025 40.2859 124.017 40.2425 124.009 40.1994C124.042 40.1171 124.063 40.0302 124.069 39.9418C124.083 39.9484 124.095 39.9554 124.109 39.9615C124.146 39.8004 124.145 39.6332 124.107 39.4725C124.097 39.5051 124.086 39.5372 124.072 39.5685C124.082 39.4228 124.051 39.2773 123.983 39.1471C123.915 39.017 123.813 38.9069 123.687 38.8285C123.68 38.822 123.671 38.8151 123.664 38.8085L123.944 36.0039C128.079 35.813 128.805 28.9407 127.862 28.5589C126.918 28.1771 127.862 27.3499 127.862 25.6954C127.862 24.041 124.742 22.1956 124.742 22.1956C124.742 22.1956 123.436 22.832 121.405 19.6503C119.374 16.4687 111.901 15.9596 111.394 16.7868C110.886 17.6141 107.549 18.6958 103.196 19.9048C98.8431 21.1139 99.6411 26.1409 100.367 27.2226C100.964 28.1169 101.314 29.1474 101.382 30.2134C101.382 30.8497 102.761 33.5222 102.761 33.5222C102.326 34.4483 103.432 39.5216 103.76 40.9636C103.755 41.0079 103.749 41.052 103.745 41.0966C103.742 41.1009 103.738 41.1046 103.736 41.109C103.72 41.1323 103.706 41.1565 103.693 41.1815C103.623 41.331 103.6 41.4974 103.626 41.6598C103.603 41.8373 103.628 42.0178 103.7 42.1825C103.725 43.5409 104.046 44.8785 104.644 46.1056C105.241 47.3327 106.099 48.421 107.162 49.2976C107.167 49.3844 107.172 49.4717 107.177 49.5611C107.238 50.7388 107.272 52.1317 107.209 53.4645C107.205 53.5327 107.2 53.5995 107.196 53.6673C106.956 53.7147 106.731 53.8166 106.539 53.9647C106.347 54.1127 106.193 54.3029 106.09 54.5198C105.68 55.29 103.299 56.4778 103.299 56.4778C103.299 56.4778 99.1332 56.6653 98.7365 57.4155C98.3397 58.1657 92.3222 60.6663 92.3222 60.6663C92.3222 60.6663 89.1481 62.4792 89.611 64.5422C89.8529 65.6202 89.1739 67.2949 88.4704 68.649C86.9989 68.1039 85.4667 67.7307 83.9055 67.5371L87.2766 70.6876C87.206 70.7953 87.1643 70.8562 87.1643 70.8562L85.2467 77.4828C85.2467 77.4828 84.5854 79.7959 83.9242 80.3585C83.2629 80.9211 84.5193 86.0474 84.5193 86.0474C84.5193 86.0474 83.7919 89.6733 83.1968 90.611C82.6016 91.5487 84.1225 93.8618 84.1225 93.8618L87.1643 100.613L95.2317 102.614C95.2317 102.614 95.7693 102.725 96.6381 102.907C96.6108 103.068 96.5828 103.229 96.5543 103.389C96.1655 105.54 95.6549 107.518 95.0334 108.053C93.5125 109.366 93.5786 115.242 93.5786 115.242L93.6447 123.556C93.6447 123.556 94.1737 133.809 93.9092 134.184C93.7423 134.421 94.0773 134.807 94.9613 135.154C94.936 135.308 94.9112 135.465 94.8879 135.624C94.6393 137.325 94.5282 139.265 95.0995 140.123C95.3476 140.587 95.4833 141.1 95.4962 141.623C95.4962 142.436 96.7527 144.124 96.7527 144.124C96.7527 144.124 95.7608 151.063 97.4139 153.439C99.0671 155.814 100.456 160.128 99.6622 161.128C99.6622 161.128 98.2736 164.066 98.9348 165.379C99.5961 166.692 98.9348 167.442 98.0752 167.755C97.2155 168.067 97.2896 170.63 97.2896 170.63L98.8687 182.821C98.8687 182.821 99.7283 185.321 99.001 186.197C98.2736 187.072 98.2736 191.448 99.3977 192.948C100.522 194.449 97.8107 197.199 97.8107 197.199C97.8107 197.199 96.1575 199.512 98.8026 200.262C98.8026 200.262 99.3316 200.387 98.3397 201.388C97.3478 202.388 97.1494 203.638 97.8107 204.076C97.9478 204.156 98.0912 204.226 98.2396 204.284C98.215 204.432 98.1885 204.586 98.1572 204.749C97.9032 206.054 97.4245 207.754 96.5543 208.577C94.8677 210.265 93.4122 212.16 92.2243 214.213C91.3171 215.894 90.9203 217.467 91.9254 218.204C94.306 219.955 97.3478 220.517 99.1332 219.83C100.919 219.142 103.431 217.016 103.431 217.016L104.027 214.578C104.027 214.578 103.63 213.078 105.614 212.515C107.597 211.953 109.449 209.952 109.449 209.952V206.712C109.929 206.443 110.393 206.148 110.838 205.826C110.838 205.826 111.763 202.638 110.838 201.575C109.912 200.513 109.581 200.137 110.771 199.45C111.962 198.762 112.123 197.262 111.25 195.949C110.375 194.636 108.986 192.698 110.176 189.947C111.367 187.197 111.803 178.757 111.803 178.757C111.803 178.757 111.248 173.006 111.803 171.693C112.358 170.38 111.168 167.755 111.168 167.755C111.168 167.755 111.565 164.504 112.292 163.003C113.02 161.503 113.615 153.564 113.615 153.564C113.615 153.564 114.937 150.188 114.937 148C114.937 145.812 112.887 140.561 115.929 139.185C115.929 139.185 117.252 140.31 116.723 144.812C116.723 144.812 118.244 150.063 118.244 151.688C118.244 153.314 119.368 159.19 119.368 159.19C119.368 159.19 119.5 161.066 119.963 161.753C120.426 162.441 119.963 164.316 119.963 164.316C119.963 164.316 121.682 165.879 121.219 166.879C120.756 167.88 121.299 170.135 121.299 170.135L120.889 184.134C120.889 184.134 119.698 190.135 122.476 193.761C122.476 193.761 121.484 199.075 120.889 199.45C120.294 199.825 123.071 203.076 123.071 203.076C123.071 203.076 122.301 205.182 123.864 205.285V208.765C124.407 209.701 125.152 210.512 126.047 211.14C127.501 212.14 126.906 215.579 126.906 215.579C126.906 215.579 128.758 219.955 133.651 219.017C138.544 218.079 139.206 217.642 138.941 216.079C138.846 215.509 138.634 214.491 138.33 213.336C137.804 211.328 136.997 208.905 136.032 207.709C134.511 205.826 133.254 201.888 133.254 201.888C133.254 201.888 132.659 200.575 133.254 200.137C133.849 199.7 133.585 198.887 133.585 198.887C133.585 198.887 134.164 197.262 133.643 196.262C133.122 195.261 134.643 193.198 134.643 193.198L134.18 183.571L134.643 169.568C134.643 169.568 132.593 167.255 133.453 165.879C134.312 164.504 132.461 162.566 132.461 162.566C132.461 162.566 132.262 162.503 132.791 160.941C133.108 160.019 133.061 159.016 132.659 158.127C132.659 158.127 131.535 154.251 133.519 151.313C133.519 151.313 134.379 147.437 134.643 145.437C134.826 144.046 135.968 138.853 136.648 135.814C136.686 135.643 136.723 135.478 136.759 135.321C137.738 135.374 138.478 135.434 138.478 135.434C138.478 135.434 136.957 125.119 138.478 122.994C139.999 120.868 137.288 104.614 137.288 104.614C137.288 104.614 136.64 101.774 136.241 98.8755C136.218 98.7104 136.197 98.5454 136.176 98.3804C137.404 98.2845 138.636 98.2578 139.867 98.3004C143.041 98.4879 146.149 97.3002 146.215 96.1124C146.281 94.9246 148.001 90.236 148.265 89.1732C148.53 88.1105 148.728 84.4845 148.265 83.6093Z" fill="url(#paint0_linear_232_1458)"/>
<path d="M109.68 204.208V209.997C109.68 209.997 107.896 211.988 105.985 212.549C104.073 213.109 104.456 214.603 104.456 214.603L103.882 217.03C103.882 217.03 101.461 219.146 99.7405 219.831C98.0201 220.516 95.0891 219.955 92.7953 218.213C91.8268 217.478 92.2091 215.912 93.0833 214.239C94.2222 212.202 95.6245 210.316 97.2555 208.627C98.094 207.808 98.5553 206.115 98.8 204.816C98.981 203.842 99.0396 203.088 99.0396 203.088L109.68 204.208Z" fill="#4C495A"/>
<path opacity="0.1" d="M109.68 208.528V209.997C109.68 209.997 107.896 211.988 105.985 212.548C104.073 213.109 104.456 214.602 104.456 214.602L103.882 217.03C103.882 217.03 101.461 219.146 99.7405 219.831C98.0201 220.516 95.0891 219.955 92.7953 218.213C91.8268 217.478 92.2091 215.912 93.0833 214.239C93.0425 215.997 93.5752 217.971 96.1723 217.901C98.9753 217.814 101.677 216.855 103.882 215.163C103.882 215.163 103.818 211.055 106.749 210.121C107.821 209.776 108.815 209.235 109.68 208.528V208.528Z" fill="black"/>
<path d="M133.001 219.022C128.286 219.955 126.502 215.598 126.502 215.598C126.502 215.598 127.075 212.175 125.673 211.179C124.806 210.548 124.089 209.741 123.571 208.814V203.088L129.305 199.104L132.409 201.788L132.618 201.967C132.618 201.967 133.829 205.888 135.295 207.763C136.225 208.953 137.002 211.366 137.509 213.365C137.803 214.515 138.006 215.529 138.098 216.096C138.353 217.652 137.716 218.088 133.001 219.022Z" fill="#4C495A"/>
<path opacity="0.1" d="M133.001 219.022C128.286 219.955 126.502 215.598 126.502 215.598C126.502 215.598 127.075 212.175 125.673 211.179C124.806 210.548 124.089 209.741 123.571 208.814V206.596C124.481 207.534 126.196 209.352 126.565 210.121C127.075 211.179 127.139 215.038 129.496 215.723C131.854 216.408 136.442 217.03 136.824 215.287C136.983 214.625 137.213 213.981 137.509 213.365C137.803 214.515 138.006 215.529 138.098 216.096C138.353 217.652 137.716 218.088 133.001 219.022Z" fill="black"/>
<path opacity="0.1" d="M99.0396 203.088L109.68 204.208V207.268C108.48 207.962 106.76 208.699 105.794 207.943C104.366 206.827 100.123 205.411 98.8 204.815C98.981 203.842 99.0396 203.088 99.0396 203.088Z" fill="black"/>
<path opacity="0.1" d="M132.618 202.465C131.153 201.967 128.541 204.146 125.1 205.515C124.622 205.735 124.099 205.849 123.571 205.849V203.088L129.305 199.104L132.409 201.788C132.457 202.02 132.527 202.246 132.618 202.465Z" fill="black"/>
<path d="M136.378 133.936C136.378 133.936 136.176 134.852 135.888 136.182C135.233 139.207 134.132 144.378 133.957 145.762C133.702 147.754 132.873 151.613 132.873 151.613C130.962 154.538 132.045 158.397 132.045 158.397C132.432 159.285 132.478 160.28 132.172 161.198C131.663 162.754 131.854 162.817 131.854 162.817C131.854 162.817 133.638 164.746 132.81 166.115C131.981 167.485 133.957 169.788 133.957 169.788L133.511 183.73L133.957 193.315C133.957 193.315 132.491 195.369 132.993 196.365C133.495 197.361 132.937 198.98 132.937 198.98C132.937 198.98 133.192 199.789 132.618 200.224C132.045 200.66 132.618 201.967 132.618 201.967C131.153 201.469 128.541 203.648 125.1 205.017C121.659 206.386 122.806 203.15 122.806 203.15C122.806 203.15 120.13 199.913 120.703 199.54C121.277 199.166 122.233 193.876 122.233 193.876C119.556 190.266 120.703 184.29 120.703 184.29L121.098 170.353C121.098 170.353 120.576 168.107 121.022 167.111C121.468 166.115 119.811 164.559 119.811 164.559C119.811 164.559 120.257 162.692 119.811 162.007C119.365 161.323 119.238 159.456 119.238 159.456C119.238 159.456 118.155 153.605 118.155 151.986C118.155 150.368 116.689 145.14 116.689 145.14C117.199 140.658 115.925 139.538 115.925 139.538C112.994 140.907 114.969 146.136 114.969 148.314C114.969 150.493 113.694 153.854 113.694 153.854C113.694 153.854 113.121 161.759 112.42 163.252C111.719 164.746 111.337 167.983 111.337 167.983C111.337 167.983 112.484 170.597 111.949 171.904C111.413 173.211 111.949 178.937 111.949 178.937C111.949 178.937 111.528 187.34 110.381 190.079C109.234 192.818 110.572 194.747 111.416 196.054C112.257 197.361 112.102 198.855 110.955 199.54C109.808 200.224 110.126 200.598 111.018 201.656C111.91 202.714 111.018 205.888 111.018 205.888C111.018 205.888 107.386 208.689 105.794 207.445C104.201 206.2 99.1033 204.581 98.4661 204.146C97.8289 203.71 98.0201 202.465 98.9758 201.469C99.9316 200.473 99.4218 200.349 99.4218 200.349C96.8732 199.602 98.4661 197.299 98.4661 197.299C98.4661 197.299 101.078 194.56 99.9953 193.066C98.9121 191.573 98.9121 187.216 99.613 186.344C100.314 185.473 99.4856 182.983 99.4856 182.983L97.964 170.846C97.964 170.846 97.8926 168.294 98.7209 167.983C99.5493 167.672 100.186 166.925 99.5493 165.618C98.9121 164.31 100.25 161.385 100.25 161.385C101.015 160.389 99.6767 156.094 98.0838 153.729C96.4908 151.364 97.4466 144.455 97.4466 144.455C97.4466 144.455 96.236 142.775 96.236 141.965C96.2241 141.446 96.0934 140.935 95.8537 140.472C95.3032 139.618 95.4102 137.686 95.6498 135.993C95.8817 134.354 96.236 132.94 96.236 132.94L136.378 133.936Z" fill="#5F5D7E"/>
<path d="M123.889 63.4153L111.337 66.2785C111.337 66.2785 105.156 61.1746 106.686 58.4359C107.211 57.4948 107.443 55.8889 107.522 54.191C107.583 52.864 107.55 51.4772 107.491 50.3045C107.402 48.6091 107.259 47.3567 107.259 47.3567C107.259 47.3567 120.13 40.2611 119.684 47.3567C119.593 48.5384 119.621 49.7258 119.768 50.9021C119.859 51.739 120.109 52.5521 120.505 53.2997C121.193 54.4972 122.041 54.5146 122.041 54.5146L123.889 63.4153Z" fill="#FDC2CC"/>
<path opacity="0.1" d="M119.768 50.9021C117.954 52.1732 115.752 52.8062 113.523 52.6976C111.293 52.5891 109.167 51.7455 107.491 50.3045C107.402 48.6091 107.259 47.3567 107.259 47.3567C107.259 47.3567 120.13 40.2611 119.684 47.3567C119.593 48.5384 119.621 49.7258 119.768 50.9021V50.9021Z" fill="black"/>
<path d="M114.013 52.4607C119.468 52.4607 123.889 48.1413 123.889 42.8131C123.889 37.4849 119.468 33.1655 114.013 33.1655C108.559 33.1655 104.137 37.4849 104.137 42.8131C104.137 48.1413 108.559 52.4607 114.013 52.4607Z" fill="#FDC2CC"/>
<path opacity="0.1" d="M123.889 63.4155L111.337 66.2786C111.337 66.2786 105.156 61.1747 106.686 58.4361C107.211 57.4949 107.443 55.8891 107.522 54.1911C107.799 55.6676 108.61 56.9975 109.808 57.9381C112.675 59.8054 112.229 62.1084 112.229 62.1084L117.39 61.9216C117.071 59.8676 118.983 58.7473 119.62 58.4983C120.257 58.2493 119.939 57.129 119.939 57.129L120.505 53.2998C121.193 54.4974 122.041 54.5148 122.041 54.5148L123.889 63.4155Z" fill="black"/>
<path opacity="0.1" d="M136.378 133.936C136.378 133.936 136.176 134.852 135.888 136.182C134.502 136.11 132.669 136.057 131.854 136.239C130.452 136.55 124.845 136.675 124.845 136.675L110.955 137.155V136.737C109.357 136.75 107.761 136.853 106.176 137.048C103.818 137.359 100.123 136.924 97.7652 136.55C97.0396 136.449 96.3292 136.261 95.6498 135.993C95.8817 134.354 96.236 132.94 96.236 132.94L136.378 133.936Z" fill="black"/>
<path d="M135.295 94.412C135.093 95.5747 135.241 97.5018 135.496 99.4039C135.881 102.289 136.505 105.118 136.505 105.118C136.505 105.118 139.118 121.301 137.652 123.417C136.187 125.533 137.652 135.803 137.652 135.803C137.652 135.803 133.256 135.43 131.854 135.741C130.452 136.052 124.845 136.177 124.845 136.177L110.955 136.657V136.239C109.357 136.252 107.761 136.356 106.176 136.55C103.818 136.861 100.123 136.426 97.7652 136.052C95.4077 135.679 94.4519 134.932 94.7068 134.558C94.9617 134.185 94.4519 123.977 94.4519 123.977L94.3882 115.699C94.3882 115.699 94.3245 109.848 95.79 108.541C96.3889 108.008 96.8808 106.039 97.2555 103.898C97.7933 100.798 98.0838 97.3374 98.0838 97.3374L88.3988 72.0047L88.2076 71.5068C88.2076 71.5068 91.0112 67.2743 90.5652 65.2203C90.1192 63.1663 93.1776 61.3613 93.1776 61.3613C93.1776 61.3613 98.9758 58.8715 99.3581 58.1246C99.7404 57.3777 103.755 57.191 103.755 57.191C103.755 57.191 106.048 56.0084 106.443 55.2416C106.54 55.0274 106.687 54.8386 106.872 54.691C107.058 54.5433 107.277 54.4411 107.511 54.3926C107.781 55.8872 108.597 57.2354 109.808 58.1869C112.675 60.0542 112.229 62.3571 112.229 62.3571L117.39 62.1704C117.072 60.1164 118.983 58.996 119.62 58.7471C120.257 58.4981 119.939 57.3777 119.939 57.3777L120.535 53.3469C120.81 52.6772 122.742 55.2416 122.742 55.2416C122.742 55.2416 127.649 56.8798 127.967 57.0043C128.286 57.1288 132.427 58.3736 132.427 58.3736C132.427 58.3736 137.525 61.6102 137.525 62.4194C137.525 63.2285 140.328 67.5855 140.328 67.5855C140.328 67.5855 140.295 67.7598 140.234 68.0785C139.587 71.5093 135.761 91.7356 135.295 94.412Z" fill="#FF9100"/>
<path d="M114.905 84.3288C114.905 84.3288 103.882 81.4657 102.799 80.781C101.716 80.0963 95.344 84.0798 103.117 89.4949C103.117 89.4949 112.623 91.4245 115.166 89.4949C117.709 87.5654 114.905 84.3288 114.905 84.3288Z" fill="#FDC2CC"/>
<path opacity="0.1" d="M138.735 67.2744L140.073 67.3367L144.024 77.6689C144.024 77.6689 146.381 83.084 146.827 83.9554C147.273 84.8268 147.082 88.4369 146.827 89.495C146.573 90.5531 144.916 95.2213 144.852 96.4039C144.788 97.5865 141.794 98.7691 138.735 98.5824C135.677 98.3957 128.541 99.3293 128.541 99.3293C128.541 99.3293 120.919 98.5512 116.243 100.885C116.243 100.885 113.248 94.8479 113.567 83.582C113.567 83.582 118.856 83.2708 120.194 83.7687C121.532 84.2666 128.031 85.6982 128.859 84.9513C129.688 84.2044 133.447 86.3206 133.447 86.3206C133.638 85.9102 133.737 85.4645 133.737 85.0135C133.737 84.5626 133.638 84.1169 133.447 83.7065C132.81 82.2126 131.726 77.5444 133.128 76.0506C134.53 74.5568 138.735 67.2744 138.735 67.2744Z" fill="black"/>
<path opacity="0.1" d="M135.496 99.4039C132.333 99.6131 128.795 100.076 128.795 100.076C128.795 100.076 121.175 99.2969 116.498 101.632C116.498 101.632 113.503 95.5947 113.822 84.3288C113.822 84.3288 119.11 84.0176 120.449 84.5155C121.787 85.0135 128.286 86.445 129.114 85.6981C129.942 84.9512 133.702 87.0675 133.702 87.0675C133.893 86.657 133.992 86.2113 133.992 85.7604C133.992 85.3094 133.893 84.8637 133.702 84.4533C133.065 82.9595 131.981 78.2913 133.383 76.7974C134.785 75.3036 138.99 68.0212 138.99 68.0212L140.234 68.0785C139.587 71.5093 135.761 91.7357 135.295 94.4121C135.093 95.5748 135.241 97.5018 135.496 99.4039Z" fill="black"/>
<path d="M138.99 67.5234L140.328 67.5857L144.279 77.9179C144.279 77.9179 146.636 83.3331 147.082 84.2044C147.528 85.0758 147.337 88.6859 147.082 89.744C146.827 90.8022 145.171 95.4703 145.107 96.653C145.043 97.8356 142.049 99.0182 138.99 98.8314C135.932 98.6447 128.795 99.5784 128.795 99.5784C128.795 99.5784 121.174 98.8002 116.498 101.134C116.498 101.134 113.503 95.0969 113.822 83.831C113.822 83.831 119.11 83.5198 120.449 84.0177C121.787 84.5157 128.286 85.9472 129.114 85.2003C129.942 84.4534 133.702 86.5697 133.702 86.5697C133.893 86.1592 133.992 85.7135 133.992 85.2626C133.992 84.8116 133.893 84.3659 133.702 83.9555C133.064 82.4617 131.981 77.7935 133.383 76.2996C134.785 74.8058 138.99 67.5234 138.99 67.5234Z" fill="#FF9100"/>
<path d="M125.529 90.3858L127.118 91.3474L135.978 77.3697L134.388 76.408L125.529 90.3858Z" fill="#DFE6F5"/>
<path d="M140.521 75.4769C142.087 73.0066 141.919 70.1343 140.145 69.0615C138.371 67.9887 135.664 69.1215 134.098 71.5918C132.532 74.0621 132.701 76.9344 134.475 78.0072C136.248 79.08 138.955 77.9472 140.521 75.4769Z" fill="#DFE6F5"/>
<path opacity="0.1" d="M139.615 74.9286C140.739 73.1555 140.618 71.0938 139.345 70.3237C138.072 69.5536 136.128 70.3668 135.004 72.14C133.881 73.9131 134.001 75.9749 135.275 76.7449C136.548 77.515 138.491 76.7018 139.615 74.9286Z" fill="black"/>
<path d="M121 97.5301L122.59 98.4917L128.103 89.7944L126.513 88.8328L121 97.5301Z" fill="#53526B"/>
<path d="M111.656 98.1467L115.542 97.0886C115.542 97.0886 134.721 97.5865 128.286 89.8685C128.286 89.8685 124.909 86.6941 117.836 89.246C110.763 91.798 108.788 92.1092 108.788 92.1092L111.656 98.1467Z" fill="#FDC2CC"/>
<path opacity="0.1" d="M108.788 65.5939C109.211 65.5939 109.553 65.2595 109.553 64.847C109.553 64.4345 109.211 64.1001 108.788 64.1001C108.366 64.1001 108.024 64.4345 108.024 64.847C108.024 65.2595 108.366 65.5939 108.788 65.5939Z" fill="black"/>
<path opacity="0.1" d="M121.914 65.1581C122.336 65.1581 122.679 64.8237 122.679 64.4112C122.679 63.9987 122.336 63.6643 121.914 63.6643C121.492 63.6643 121.149 63.9987 121.149 64.4112C121.149 64.8237 121.492 65.1581 121.914 65.1581Z" fill="black"/>
<path d="M108.788 65.3449C109.211 65.3449 109.553 65.0105 109.553 64.598C109.553 64.1855 109.211 63.8511 108.788 63.8511C108.366 63.8511 108.024 64.1855 108.024 64.598C108.024 65.0105 108.366 65.3449 108.788 65.3449Z" fill="white"/>
<path opacity="0.1" d="M109.871 75.9262C110.294 75.9262 110.636 75.5918 110.636 75.1793C110.636 74.7668 110.294 74.4324 109.871 74.4324C109.449 74.4324 109.107 74.7668 109.107 75.1793C109.107 75.5918 109.449 75.9262 109.871 75.9262Z" fill="black"/>
<path opacity="0.1" d="M122.296 75.1791C122.719 75.1791 123.061 74.8447 123.061 74.4322C123.061 74.0197 122.719 73.6853 122.296 73.6853C121.874 73.6853 121.532 74.0197 121.532 74.4322C121.532 74.8447 121.874 75.1791 122.296 75.1791Z" fill="black"/>
<path d="M109.871 75.6772C110.294 75.6772 110.636 75.3428 110.636 74.9303C110.636 74.5178 110.294 74.1833 109.871 74.1833C109.449 74.1833 109.107 74.5178 109.107 74.9303C109.107 75.3428 109.449 75.6772 109.871 75.6772Z" fill="white"/>
<path opacity="0.1" d="M121.978 111.222C122.4 111.222 122.742 110.887 122.742 110.475C122.742 110.062 122.4 109.728 121.978 109.728C121.555 109.728 121.213 110.062 121.213 110.475C121.213 110.887 121.555 111.222 121.978 111.222Z" fill="black"/>
<path opacity="0.1" d="M111.915 111.222C112.337 111.222 112.679 110.887 112.679 110.475C112.679 110.062 112.337 109.728 111.915 109.728C111.493 109.728 111.15 110.062 111.15 110.475C111.15 110.887 111.493 111.222 111.915 111.222Z" fill="black"/>
<path d="M121.978 110.973C122.4 110.973 122.742 110.638 122.742 110.226C122.742 109.813 122.4 109.479 121.978 109.479C121.555 109.479 121.213 109.813 121.213 110.226C121.213 110.638 121.555 110.973 121.978 110.973Z" fill="white"/>
<path opacity="0.1" d="M112.679 123.728C113.102 123.728 113.444 123.394 113.444 122.982C113.444 122.569 113.102 122.235 112.679 122.235C112.257 122.235 111.915 122.569 111.915 122.982C111.915 123.394 112.257 123.728 112.679 123.728Z" fill="black"/>
<path opacity="0.1" d="M122.296 122.981C122.719 122.981 123.061 122.647 123.061 122.234C123.061 121.822 122.719 121.488 122.296 121.488C121.874 121.488 121.532 121.822 121.532 122.234C121.532 122.647 121.874 122.981 122.296 122.981Z" fill="black"/>
<path d="M112.679 123.479C113.102 123.479 113.444 123.145 113.444 122.733C113.444 122.32 113.102 121.986 112.679 121.986C112.257 121.986 111.915 122.32 111.915 122.733C111.915 123.145 112.257 123.479 112.679 123.479Z" fill="white"/>
<path d="M111.915 110.973C112.337 110.973 112.679 110.638 112.679 110.226C112.679 109.813 112.337 109.479 111.915 109.479C111.493 109.479 111.15 109.813 111.15 110.226C111.15 110.638 111.493 110.973 111.915 110.973Z" fill="white"/>
<path d="M122.296 122.733C122.719 122.733 123.061 122.398 123.061 121.986C123.061 121.573 122.719 121.239 122.296 121.239C121.874 121.239 121.532 121.573 121.532 121.986C121.532 122.398 121.874 122.733 122.296 122.733Z" fill="white"/>
<path d="M121.914 64.9091C122.336 64.9091 122.679 64.5747 122.679 64.1622C122.679 63.7497 122.336 63.4153 121.914 63.4153C121.492 63.4153 121.149 63.7497 121.149 64.1622C121.149 64.5747 121.492 64.9091 121.914 64.9091Z" fill="white"/>
<path d="M122.296 74.9301C122.719 74.9301 123.061 74.5957 123.061 74.1832C123.061 73.7707 122.719 73.4363 122.296 73.4363C121.874 73.4363 121.532 73.7707 121.532 74.1832C121.532 74.5957 121.874 74.9301 122.296 74.9301Z" fill="white"/>
<path opacity="0.1" d="M123.443 100.387C123.443 100.387 123.571 117.442 123.953 120.492C123.953 120.492 124.092 101.191 123.443 100.387Z" fill="black"/>
<path opacity="0.1" d="M126.693 108.292C126.43 108.292 131.918 128.272 132.172 129.704C132.427 131.135 128.222 108.292 126.693 108.292Z" fill="black"/>
<path opacity="0.1" d="M131.026 105.056C131.026 105.242 134.084 115.886 135.613 116.446C137.142 117.006 131.026 105.056 131.026 105.056Z" fill="black"/>
<path opacity="0.1" d="M143.068 84.3289C143.068 84.3289 136.569 84.6118 136.378 85.5285C136.187 86.4451 143.068 84.3289 143.068 84.3289Z" fill="black"/>
<path opacity="0.1" d="M131.599 165.493C131.599 165.493 126.948 167.423 127.649 167.547C128.349 167.672 131.599 165.493 131.599 165.493Z" fill="black"/>
<path opacity="0.1" d="M121.978 162.63C121.797 162.232 125.1 164.248 125.1 164.497C125.1 164.746 122.233 163.19 121.978 162.63Z" fill="black"/>
<path opacity="0.1" d="M126.31 169.165C126.31 169.165 129.942 168.986 130.197 170.352C130.452 171.717 126.31 169.165 126.31 169.165Z" fill="black"/>
<path opacity="0.1" d="M100.186 169.158C100.186 169.158 104.137 168.403 104.456 169.158C104.774 169.912 100.186 169.158 100.186 169.158Z" fill="black"/>
<path opacity="0.1" d="M101.652 192.631C101.652 192.631 101.911 195.805 100.953 196.552C99.9953 197.299 101.652 192.631 101.652 192.631Z" fill="black"/>
<path opacity="0.1" d="M101.169 199.353C102.417 199.477 108.979 198.357 108.916 199.353C108.852 200.349 101.169 199.353 101.169 199.353Z" fill="black"/>
<path opacity="0.1" d="M131.28 195.494C131.28 195.494 129.042 195.158 129.588 196.633L131.28 195.494Z" fill="black"/>
<path opacity="0.1" d="M89.6731 71.258H88.4625L86.6147 77.8557C86.6147 77.8557 85.9775 80.1587 85.3404 80.7189C84.7032 81.279 85.9138 86.3829 85.9138 86.3829C85.9138 86.3829 85.2129 89.993 84.6395 90.9266C84.066 91.8603 85.5315 94.1632 85.5315 94.1632L88.4625 100.885L96.236 102.877C96.236 102.877 109.935 105.803 110.572 106.238C111.21 106.674 111.783 106.052 112.229 102.006C112.675 97.9601 113.886 90.1175 114.841 89.744C114.841 89.744 107.195 90.5532 106.558 90.4287C105.921 90.3042 102.863 90.4909 102.863 90.4909C102.863 90.4909 98.8484 90.242 98.2112 90.6154C97.5741 90.9889 99.0396 88.8076 99.0396 88.8076C99.3078 87.8088 99.3078 86.7593 99.0396 85.7605C98.5935 84.0799 98.3387 65.0337 89.6731 71.258Z" fill="black"/>
<path opacity="0.1" d="M114.587 90.4908C113.631 90.8643 112.42 98.7069 111.974 102.753C111.528 106.798 110.955 107.421 110.317 106.985C109.8 106.632 100.668 104.635 97.2555 103.898C97.7932 100.798 98.0838 97.3375 98.0838 97.3375L88.3988 72.0048H89.4183C98.0838 65.7806 98.3387 84.8268 98.7847 86.5073C99.053 87.5062 99.053 88.5558 98.7847 89.5547C98.7847 89.5547 97.3192 91.7357 97.9564 91.3622C98.5935 90.9888 102.608 91.2378 102.608 91.2378C102.608 91.2378 105.666 91.051 106.303 91.1755C106.94 91.3 114.587 90.4908 114.587 90.4908Z" fill="black"/>
<path d="M89.4183 71.5068H88.2076L86.3598 78.1045C86.3598 78.1045 85.7227 80.4074 85.0855 80.9676C84.4483 81.5278 85.659 86.6317 85.659 86.6317C85.659 86.6317 84.9581 90.2418 84.3846 91.1754C83.8112 92.1091 85.2767 94.412 85.2767 94.412L88.2076 101.134L95.9811 103.126C95.9811 103.126 109.68 106.051 110.317 106.487C110.955 106.923 111.528 106.3 111.974 102.255C112.42 98.2089 113.631 90.3663 114.587 89.9928C114.587 89.9928 106.94 90.802 106.303 90.6775C105.666 90.553 102.608 90.7397 102.608 90.7397C102.608 90.7397 98.5935 90.4908 97.9564 90.8642C97.3192 91.2377 98.7847 89.0564 98.7847 89.0564C99.053 88.0576 99.053 87.0081 98.7847 86.0093C98.3387 84.3287 98.0838 65.2825 89.4183 71.5068Z" fill="#FF9100"/>
<path opacity="0.1" d="M93.5599 94.0386C93.5599 94.0386 90.0555 100.512 89.4183 99.7649C88.7811 99.018 93.5599 94.0386 93.5599 94.0386Z" fill="black"/>
<path opacity="0.1" d="M89.928 90.3525C89.928 90.3525 86.6784 92.9806 88.2076 93.6652C89.7368 94.3499 89.928 90.3525 89.928 90.3525Z" fill="black"/>
<path opacity="0.1" d="M92.9864 87.1296C93.2413 87.1919 97.7015 88.0572 97.7652 88.4337C97.8289 88.8102 92.9864 87.1296 92.9864 87.1296Z" fill="black"/>
<path opacity="0.1" d="M123.917 41.5333C123.779 41.5809 123.661 41.6725 123.582 41.7935C123.503 41.9144 123.467 42.0578 123.481 42.2006C123.221 42.4246 122.857 42.1607 122.645 41.8744C122.431 41.5906 122.189 41.2395 121.866 41.2794C121.712 41.3273 121.563 41.3881 121.42 41.4611C120.91 41.6205 120.479 41.0354 120.194 40.5225C119.697 39.6237 119.2 38.7258 118.703 37.8286C117.706 38.3938 116.529 37.8013 115.54 37.2162C114.551 36.6311 113.373 36.0361 112.374 36.6012C110.909 37.4278 110.855 40.1839 109.336 40.8636C108.847 41.0827 108.279 41.0354 107.825 41.3366C107.376 41.6354 107.134 42.2105 106.933 42.7607C106.858 43.074 106.683 43.3557 106.433 43.5649C106.274 43.646 106.098 43.6879 105.918 43.6869C105.468 43.7617 105.005 43.6982 104.593 43.5052C104.377 43.3726 104.214 43.1721 104.131 42.9367C104.047 42.7013 104.049 42.4451 104.134 42.2105C104.146 42.1857 104.16 42.1616 104.175 42.1383C104.338 41.9455 104.485 41.7398 104.614 41.5234C104.766 41.1275 104.547 40.6669 104.596 40.2387C104.675 39.5067 105.467 39.1208 105.602 38.4013C105.658 38.1199 105.6 37.8187 105.653 37.5349C105.661 37.4977 105.671 37.4611 105.684 37.4253L105.218 37.739C105.74 37.144 106.003 36.3174 106.385 35.5954C106.81 34.8048 107.394 34.1067 108.103 33.5431C108.812 32.9795 109.63 32.5622 110.509 32.3164C112.17 31.8434 113.926 31.9728 115.603 32.3737C117.198 32.7618 118.726 33.3767 120.138 34.1986C120.642 34.4628 121.09 34.8186 121.458 35.2468C121.766 35.6908 122.028 36.1637 122.24 36.6585C122.735 37.6593 124.085 38.5855 123.01 38.7249C122.115 38.8419 122.931 39.4544 123.4 39.8677C123.506 39.9487 123.597 40.0463 123.67 40.1565C123.748 40.314 123.784 40.4881 123.774 40.6628C123.764 40.8374 123.709 41.0067 123.614 41.1549C123.433 41.379 124.167 41.4238 123.917 41.5333Z" fill="black"/>
<path d="M123.917 41.2843C123.779 41.3319 123.661 41.4235 123.582 41.5445C123.503 41.6654 123.467 41.8087 123.481 41.9515C123.221 42.1756 122.857 41.9117 122.645 41.6254C122.431 41.3416 122.189 40.9905 121.866 41.0303C121.712 41.0783 121.563 41.1391 121.42 41.2121C120.91 41.3714 120.479 40.7864 120.194 40.2735C119.697 39.3747 119.2 38.4768 118.703 37.5796C117.706 38.1448 116.529 37.5522 115.54 36.9672C114.551 36.3821 113.373 35.787 112.374 36.3522C110.909 37.1788 110.855 39.9349 109.336 40.6146C108.847 40.8337 108.279 40.7864 107.825 41.0876C107.376 41.3864 107.134 41.9615 106.933 42.5117C106.858 42.8249 106.683 43.1067 106.433 43.3159C106.274 43.397 106.098 43.4389 105.918 43.4379C105.468 43.5127 105.005 43.4492 104.593 43.2561C104.377 43.1236 104.214 42.9231 104.131 42.6876C104.047 42.4522 104.049 42.1961 104.134 41.9615C104.146 41.9366 104.16 41.9125 104.175 41.8893C104.338 41.6965 104.485 41.4908 104.614 41.2744C104.766 40.8785 104.547 40.4179 104.596 39.9897C104.675 39.2577 105.467 38.8718 105.602 38.1523C105.658 37.8709 105.6 37.5697 105.653 37.2858C105.661 37.2487 105.671 37.212 105.684 37.1763L105.218 37.49C105.74 36.895 106.003 36.0684 106.385 35.3464C106.81 34.5558 107.394 33.8577 108.103 33.2941C108.812 32.7305 109.63 32.3132 110.509 32.0674C112.17 31.5944 113.926 31.7238 115.603 32.1247C117.198 32.5128 118.726 33.1277 120.138 33.9496C120.642 34.2138 121.09 34.5696 121.458 34.9978C121.766 35.4418 122.028 35.9147 122.24 36.4095C122.735 37.4103 124.086 38.3365 123.01 38.4759C122.115 38.5929 122.931 39.2054 123.4 39.6187C123.506 39.6997 123.597 39.7973 123.67 39.9075C123.748 40.0649 123.784 40.2391 123.774 40.4137C123.764 40.5883 123.709 40.7577 123.614 40.9059C123.433 41.1299 124.167 41.1748 123.917 41.2843Z" fill="#865A61"/>
<path opacity="0.1" d="M123.4 39.6187L123.298 40.6669C123.298 40.6669 112.604 27.4266 104.285 42.3773C104.285 42.3773 104.244 42.1955 104.175 41.8893C104.338 41.6965 104.485 41.4908 104.614 41.2743C104.766 40.8785 104.547 40.4179 104.596 39.9897C104.675 39.2577 105.467 38.8718 105.602 38.1523C105.658 37.8709 105.6 37.5697 105.653 37.2858C105.661 37.2487 105.671 37.212 105.684 37.1763L105.218 37.49C105.74 36.895 106.003 36.0684 106.385 35.3464C106.81 34.5558 107.394 33.8577 108.103 33.2941C108.812 32.7305 109.63 32.3132 110.509 32.0674C112.17 31.5944 113.926 31.7238 115.603 32.1247C117.198 32.5128 118.726 33.1277 120.138 33.9496C120.642 34.2138 121.09 34.5696 121.458 34.9978C121.766 35.4418 122.028 35.9147 122.24 36.4095C122.735 37.4103 124.085 38.3365 123.01 38.4759C122.115 38.5929 122.931 39.2054 123.4 39.6187Z" fill="black"/>
<g opacity="0.1">
<path opacity="0.1" d="M123.664 41.1487C123.611 41.2066 123.573 41.2756 123.551 41.3503C123.53 41.4251 123.527 41.5035 123.542 41.5796C123.282 41.8037 122.918 41.5398 122.706 41.2535C122.492 40.9696 122.25 40.6186 121.927 40.6584C121.773 40.7063 121.624 40.7672 121.481 40.8402C120.971 40.9995 120.54 40.4144 120.255 39.9016C119.758 39.0028 119.261 38.1048 118.764 37.2077C117.767 37.7729 116.59 37.1803 115.601 36.5952C114.612 36.0101 113.434 35.4151 112.435 35.9803C110.97 36.8069 110.916 39.563 109.397 40.2427C108.908 40.4617 108.339 40.4144 107.886 40.7157C107.437 41.0145 107.195 41.5896 106.994 42.1398C106.919 42.453 106.744 42.7348 106.494 42.944C106.335 43.0251 106.159 43.067 105.979 43.066C105.529 43.1407 105.066 43.0772 104.654 42.8842C104.407 42.7243 104.23 42.4803 104.157 42.1998C104.107 42.4228 104.127 42.6557 104.216 42.867C104.305 43.0784 104.458 43.2581 104.654 43.3822C105.066 43.5752 105.529 43.6387 105.979 43.5639C106.159 43.5649 106.335 43.5231 106.494 43.4419C106.744 43.2327 106.919 42.951 106.994 42.6377C107.195 42.0875 107.437 41.5124 107.886 41.2136C108.339 40.9124 108.908 40.9597 109.397 40.7406C110.916 40.0609 110.97 37.3048 112.435 36.4782C113.434 35.9131 114.612 36.5081 115.601 37.0932C116.59 37.6782 117.767 38.2708 118.764 37.7056C119.261 38.6019 119.758 39.4999 120.255 40.3995C120.54 40.9124 120.971 41.4974 121.481 41.3381C121.624 41.2651 121.773 41.2043 121.927 41.1564C122.25 41.1165 122.492 41.4676 122.706 41.7514C122.918 42.0377 123.282 42.3016 123.542 42.0776C123.528 41.9348 123.563 41.7914 123.642 41.6705C123.721 41.5495 123.84 41.4579 123.978 41.4103C124.177 41.3232 123.754 41.2767 123.664 41.1487Z" fill="black"/>
<path opacity="0.1" d="M122.83 38.6613C122.907 38.631 122.988 38.6111 123.071 38.602C123.545 38.5405 123.547 38.3258 123.359 38.0195C123.27 38.0666 123.172 38.0953 123.071 38.104C122.559 38.171 122.608 38.4002 122.83 38.6613Z" fill="black"/>
<path opacity="0.1" d="M123.807 40.7466C123.842 40.5861 123.841 40.4199 123.804 40.2598C123.781 40.359 123.737 40.4524 123.675 40.5338C123.595 40.6327 123.693 40.6966 123.807 40.7466Z" fill="black"/>
<path opacity="0.1" d="M104.671 40.0295C104.666 40.058 104.66 40.0861 104.657 40.1157C104.646 40.3399 104.663 40.5645 104.706 40.7849C104.736 40.5329 104.725 40.2778 104.671 40.0295V40.0295Z" fill="black"/>
<path opacity="0.1" d="M105.706 36.9919C105.586 37.2139 105.443 37.423 105.278 37.616L105.69 37.3393C105.688 37.2233 105.693 37.1073 105.706 36.9919V36.9919Z" fill="black"/>
</g>
<path d="M104.284 42.1284C104.284 42.1284 102.746 35.4127 103.236 34.3357C103.236 34.3357 101.908 31.6748 101.908 31.0412C101.843 29.984 101.506 28.9598 100.929 28.0635C100.23 26.9865 99.4609 21.9814 103.655 20.7777C107.849 19.5739 111.065 18.4969 111.554 17.6732C112.043 16.8496 119.243 17.3565 121.201 20.5242C123.158 23.692 124.416 23.0584 124.416 23.0584C124.416 23.0584 127.422 24.8958 127.422 26.543C127.422 28.1902 126.513 29.0139 127.422 29.394C128.331 29.7741 127.632 36.6165 123.647 36.8066L123.298 40.4178C123.298 40.4178 112.603 27.1765 104.284 42.1284Z" fill="#FF9100"/>
<path opacity="0.1" d="M104.742 22.0862C104.742 22.0862 103.818 27.3768 105.507 29.1507L104.742 22.0862Z" fill="black"/>
<path opacity="0.1" d="M109.075 20.8726C109.075 20.8726 106.717 26.5366 107.291 27.6259L109.075 20.8726Z" fill="black"/>
<path opacity="0.1" d="M111.114 19.0676C111.114 19.0676 109.521 26.4434 110.286 27.0347L111.114 19.0676Z" fill="black"/>
<path opacity="0.1" d="M113.854 21.0593C113.854 21.0593 111.879 25.7898 112.675 26.4433L113.854 21.0593Z" fill="black"/>
<path opacity="0.1" d="M117.581 21.6194C117.581 21.6194 115.256 25.4784 115.733 26.1631L117.581 21.6194Z" fill="black"/>
<path opacity="0.1" d="M122.36 25.3853C122.36 25.3853 119.875 26.0388 120.385 26.8168L122.36 25.3853Z" fill="black"/>
<path opacity="0.1" d="M124.718 29.3999C124.718 29.3999 122.487 30.458 122.902 31.0182L124.718 29.3999Z" fill="black"/>
<path opacity="0.1" d="M103.236 34.3357C103.236 34.3357 117.48 28.6838 123.647 36.8066C123.647 36.8066 116.161 30.5888 103.236 34.3357Z" fill="black"/>
<path d="M98.0883 80.7755L100.073 78.8142L105.685 84.2327L103.7 86.1944L98.5391 81.211L98.0883 80.7755Z" fill="#53526B"/>
<path d="M85.0675 68.2021C85.0675 68.2021 93.7544 68.9243 101.839 77.8139L98.4697 81.144L85.0675 68.2021Z" fill="#DFE6F5"/>
<path d="M111.123 84.0973C111.123 84.0973 102.774 81.1241 101.954 80.4131C101.133 79.7021 96.3069 83.8388 102.195 89.4621C102.195 89.4621 109.395 91.4658 111.321 89.4621C113.247 87.4584 111.123 84.0973 111.123 84.0973Z" fill="#FDC2CC"/>
<path d="M265.675 140.924H263.977V178.238H265.675V140.924Z" fill="#535461"/>
<path d="M276.338 178.125L276.23 179.806L276.08 182.177L276.018 183.167L275.868 185.541L275.803 186.53L275.653 188.902L273.941 215.882C273.867 217.043 273.343 218.132 272.476 218.929C271.609 219.725 270.463 220.169 269.272 220.169H260.379C259.189 220.169 258.043 219.725 257.176 218.928C256.309 218.132 255.786 217.042 255.713 215.882L253.999 188.902L253.849 186.53L253.786 185.541L253.633 183.167L253.571 182.177L253.421 179.806L253.314 178.125C253.293 177.803 253.341 177.479 253.453 177.175C253.566 176.871 253.741 176.593 253.967 176.358C254.194 176.123 254.468 175.935 254.771 175.807C255.075 175.679 255.402 175.612 255.733 175.613H273.921C274.252 175.613 274.579 175.679 274.882 175.807C275.186 175.935 275.459 176.123 275.686 176.358C275.912 176.594 276.087 176.872 276.199 177.176C276.311 177.48 276.358 177.803 276.338 178.125V178.125Z" fill="#65617D"/>
<path d="M276.23 179.806L276.08 182.177H253.571L253.421 179.806H276.23Z" fill="#9D9CB5"/>
<path d="M276.018 183.167L275.868 185.541H253.786L253.633 183.167H276.018Z" fill="#9D9CB5"/>
<path d="M275.803 186.531L275.653 188.902H253.999L253.849 186.531H275.803Z" fill="#9D9CB5"/>
<path d="M250.83 154.91C260.711 161.893 264.826 172.815 264.826 172.815C264.826 172.815 252.919 172.416 243.038 165.434C233.156 158.451 229.042 147.529 229.042 147.529C229.042 147.529 240.949 147.928 250.83 154.91Z" fill="#FF9100"/>
<path d="M229.042 147.529C229.042 147.529 241.401 154.23 245.365 159.778C249.33 165.326 264.826 172.815 264.826 172.815" stroke="#535461" stroke-width="2" stroke-miterlimit="10"/>
<path d="M257.208 140.842C262.586 144.642 264.826 150.587 264.826 150.587C264.826 150.587 258.345 150.37 252.967 146.569C247.588 142.769 245.349 136.824 245.349 136.824C245.349 136.824 251.83 137.041 257.208 140.842Z" fill="#FF9100"/>
<path d="M245.349 136.824C245.349 136.824 252.075 140.472 254.233 143.491C256.391 146.511 264.826 150.587 264.826 150.587" stroke="#535461" stroke-width="2" stroke-miterlimit="10"/>
<path d="M272.641 150.284C266.464 156.917 265.157 165.583 265.157 165.583C265.157 165.583 273.866 163.496 280.043 156.863C286.221 150.23 287.528 141.564 287.528 141.564C287.528 141.564 278.819 143.651 272.641 150.284Z" fill="#FF9100"/>
<path d="M287.528 141.564C287.528 141.564 279.481 148.363 277.436 153.047C275.391 157.732 265.157 165.583 265.157 165.583" stroke="#535461" stroke-width="2" stroke-miterlimit="10"/>
<defs>
<linearGradient id="paint0_linear_232_1458" x1="115.801" y1="220.115" x2="115.801" y2="16.4353" gradientUnits="userSpaceOnUse">
<stop stop-color="#808080" stop-opacity="0.25"/>
<stop offset="0.53514" stop-color="#808080" stop-opacity="0.12"/>
<stop offset="1" stop-color="#808080" stop-opacity="0.1"/>
</linearGradient>
</defs>
</svg>
