<svg width="1224" height="670" viewBox="0 0 1224 670" fill="none" xmlns="http://www.w3.org/2000/svg">
<path d="M1224 359.744V641.208C1223.99 648.841 1219.76 656.159 1212.25 661.557C1204.74 666.954 1194.55 669.991 1183.92 670H883.417L886.208 667.462L1220.47 362.967L1224 359.744Z" fill="#CCCCCC"/>
<path d="M40.0761 0.5H1183.92C1194.46 0.509115 1204.54 3.52143 1211.96 8.84927C1219.37 14.1755 1223.49 21.3553 1223.5 28.7922V641.207C1223.49 648.645 1219.37 655.824 1211.96 661.151C1204.54 666.479 1194.46 669.491 1183.92 669.5H40.0763C29.5399 669.491 19.4596 666.479 12.0438 661.151C4.6302 655.824 0.512465 648.645 0.5 641.208V28.7927C0.512621 21.3551 4.63034 14.1754 12.0438 8.84927C19.4596 3.52146 29.5397 0.509154 40.0761 0.5ZM1218.12 651.505C1220 648.249 1220.97 644.749 1220.97 641.208V28.7922C1220.97 25.251 1220 21.7514 1218.12 18.4954C1216.24 15.2406 1213.5 12.2953 1210.06 9.82155C1206.61 7.34778 1202.53 5.39076 1198.05 4.05715C1193.57 2.72346 1188.77 2.03788 1183.92 2.03788H278.492C205.48 2.03788 135.437 22.8744 83.7745 59.9908C32.1101 97.1087 3.03247 147.493 3.03247 200.081V641.208C3.03247 648.367 6.99138 655.183 13.9441 660.178C20.8945 665.172 30.2954 667.962 40.0758 667.962H1183.92C1188.77 667.962 1193.57 667.277 1198.05 665.943C1202.53 664.609 1206.61 662.652 1210.06 660.178C1213.5 657.705 1216.24 654.759 1218.12 651.505Z" stroke="#EE4540"/>
<path d="M1112.53 110.738H111.555C111.087 110.738 110.638 110.605 110.306 110.367C109.975 110.129 109.789 109.806 109.789 109.47C109.789 109.133 109.975 108.81 110.306 108.572C110.638 108.334 111.087 108.201 111.555 108.201H1112.53C1113 108.201 1113.45 108.334 1113.78 108.572C1114.11 108.81 1114.3 109.133 1114.3 109.47C1114.3 109.806 1114.11 110.129 1113.78 110.367C1113.45 110.605 1113 110.738 1112.53 110.738Z" fill="#CCCCCC"/>
<path d="M161.637 72.6443C169.886 72.6443 176.573 67.7329 176.573 61.6743C176.573 55.6157 169.886 50.7042 161.637 50.7042C153.388 50.7042 146.7 55.6157 146.7 61.6743C146.7 67.7329 153.388 72.6443 161.637 72.6443Z" fill="#CCCCCC"/>
<path d="M213.235 72.6443C221.484 72.6443 228.171 67.7329 228.171 61.6743C228.171 55.6157 221.484 50.7042 213.235 50.7042C204.986 50.7042 198.299 55.6157 198.299 61.6743C198.299 67.7329 204.986 72.6443 213.235 72.6443Z" fill="#CCCCCC"/>
<path d="M264.833 72.6443C273.082 72.6443 279.77 67.7329 279.77 61.6743C279.77 55.6157 273.082 50.7042 264.833 50.7042C256.584 50.7042 249.897 55.6157 249.897 61.6743C249.897 67.7329 256.584 72.6443 264.833 72.6443Z" fill="#CCCCCC"/>
<path d="M323.669 70.3447C323.434 70.3449 323.201 70.3112 322.984 70.2457C322.767 70.1801 322.571 70.084 322.406 69.963L312.328 62.5613C312.005 62.3242 311.824 62.0057 311.824 61.674C311.824 61.3423 312.005 61.0238 312.328 60.7867L322.406 53.3856C322.568 53.2646 322.761 53.1678 322.975 53.1008C323.189 53.0338 323.42 52.998 323.653 52.9953C323.886 52.9926 324.118 53.0232 324.335 53.0853C324.552 53.1474 324.749 53.2397 324.916 53.3569C325.083 53.4742 325.216 53.614 325.307 53.7684C325.398 53.9227 325.446 54.0885 325.447 54.2562C325.449 54.4239 325.404 54.5901 325.315 54.7453C325.227 54.9004 325.096 55.0414 324.932 55.1602L316.062 61.674L324.932 68.1885C325.175 68.367 325.339 68.5932 325.404 68.8385C325.469 69.0839 325.432 69.3376 325.297 69.5678C325.162 69.798 324.936 69.9945 324.646 70.1327C324.357 70.2709 324.017 70.3447 323.669 70.3447Z" fill="#CCCCCC"/>
<path d="M340.604 70.3447C340.257 70.3447 339.917 70.2709 339.627 70.1327C339.338 69.9945 339.111 69.798 338.976 69.5678C338.842 69.3376 338.804 69.0839 338.869 68.8385C338.934 68.5931 339.099 68.367 339.342 68.1885L348.211 61.674L339.342 55.1601C339.02 54.9188 338.843 54.5959 338.85 54.2615C338.858 53.9272 339.049 53.6084 339.381 53.3746C339.714 53.1408 340.162 53.0108 340.627 53.0128C341.093 53.0149 341.538 53.1489 341.867 53.3856L351.944 60.7867C352.267 61.0238 352.448 61.3423 352.448 61.674C352.448 62.0057 352.267 62.3242 351.944 62.5613L341.867 69.963C341.703 70.084 341.506 70.1801 341.289 70.2457C341.073 70.3112 340.84 70.3449 340.604 70.3447Z" fill="#CCCCCC"/>
<path d="M1023.27 51.9743H1004.53C1004.02 51.9742 1003.52 52.046 1003.05 52.1856C1002.58 52.3252 1002.16 52.5299 1001.8 52.788C1001.44 53.0461 1001.15 53.3525 1000.96 53.6897C1000.76 54.0269 1000.66 54.3883 1000.66 54.7533V68.2294C1000.66 68.5944 1000.76 68.9558 1000.96 69.293C1001.15 69.6302 1001.44 69.9366 1001.8 70.1947C1002.16 70.4527 1002.58 70.6574 1003.05 70.7971C1003.52 70.9367 1004.02 71.0085 1004.53 71.0084H1023.27C1024.3 71.0091 1025.29 70.7169 1026.01 70.196C1026.74 69.675 1027.15 68.9678 1027.16 68.2294V54.7533C1027.15 54.0148 1026.74 53.3076 1026.01 52.7867C1025.29 52.2657 1024.3 51.9736 1023.27 51.9743Z" fill="#CCCCCC"/>
<path d="M977.349 51.9743H958.609C958.101 51.9742 957.598 52.046 957.129 52.1856C956.659 52.3252 956.233 52.5299 955.874 52.788C955.515 53.0461 955.23 53.3525 955.035 53.6897C954.841 54.0269 954.741 54.3883 954.741 54.7533V68.2294C954.741 68.5944 954.841 68.9558 955.035 69.293C955.23 69.6302 955.515 69.9366 955.874 70.1947C956.233 70.4527 956.659 70.6574 957.129 70.7971C957.598 70.9367 958.101 71.0085 958.609 71.0084H977.349C978.377 71.0091 979.363 70.7169 980.091 70.196C980.82 69.675 981.231 68.9678 981.235 68.2294V54.7533C981.231 54.0148 980.82 53.3076 980.091 52.7867C979.363 52.2657 978.377 51.9736 977.349 51.9743Z" fill="#CCCCCC"/>
<path d="M1066.54 52.6088H1047.8C1047.3 52.6087 1046.79 52.6805 1046.32 52.8201C1045.85 52.9597 1045.43 53.1644 1045.07 53.4225C1044.71 53.6805 1044.42 53.9869 1044.23 54.3241C1044.04 54.6614 1043.94 55.0228 1043.94 55.3877V68.8639C1043.94 69.2288 1044.04 69.5903 1044.23 69.9275C1044.42 70.2647 1044.71 70.5711 1045.07 70.8292C1045.43 71.0872 1045.85 71.2919 1046.32 71.4315C1046.79 71.5712 1047.3 71.643 1047.8 71.6429H1066.54C1067.57 71.6436 1068.56 71.3514 1069.29 70.8304C1070.01 70.3095 1070.43 69.6023 1070.43 68.8639V55.3877C1070.43 54.6493 1070.01 53.9421 1069.29 53.4212C1068.56 52.9002 1067.57 52.6081 1066.54 52.6088Z" fill="#CCCCCC"/>
<path d="M686.942 57.7352H537.148C535.897 57.7352 534.697 58.0922 533.813 58.7276C532.928 59.363 532.432 60.2247 532.432 61.1233C532.432 62.0219 532.928 62.8836 533.813 63.519C534.697 64.1544 535.897 64.5114 537.148 64.5114H686.942C688.193 64.5114 689.392 64.1544 690.276 63.519C691.161 62.8836 691.658 62.0219 691.658 61.1233C691.658 60.2247 691.161 59.363 690.276 58.7276C689.392 58.0922 688.193 57.7352 686.942 57.7352Z" fill="#CCCCCC"/>
<path d="M1005.68 656.762L988.192 656.761L979.873 608.3L1005.68 608.302L1005.68 656.762Z" fill="#987654"/>
<path d="M1006.3 669.869L952.519 669.868V669.379C952.519 665.391 954.725 661.566 958.65 658.746C962.575 655.926 967.899 654.341 973.45 654.341H973.451L983.274 648.987L1001.6 654.342L1006.3 654.342L1006.3 669.869Z" fill="url(#paint0_linear_102_358)"/>
<path d="M1067.5 656.762L1050.01 656.761L1041.69 608.3L1067.5 608.302L1067.5 656.762Z" fill="#987654"/>
<path d="M1068.11 669.869L1014.34 669.868V669.379C1014.34 665.391 1016.54 661.566 1020.47 658.746C1024.39 655.926 1029.72 654.341 1035.27 654.341H1035.27L1045.09 648.987L1063.42 654.342L1068.11 654.342L1068.11 669.869Z" fill="url(#paint1_linear_102_358)"/>
<path d="M962.137 392.712C962.137 392.712 945.312 429.838 948.417 434.725C951.523 439.611 956.822 435.805 951.523 439.611C946.224 443.418 941.599 439.372 946.561 445.836C951.523 452.301 959.04 505.52 962.347 508.096C965.653 510.672 970.199 510.741 966.16 513.244C962.121 515.748 956.822 510.672 962.12 515.748C967.419 520.823 981.479 637.916 981.479 637.916H1008.95C1008.95 637.916 1015.79 632.25 1011.92 628.563C1008.04 624.876 1012.25 623.455 1011.92 620.994C1011.58 618.532 1012.86 613.224 1013.1 610.802C1013.34 608.38 1017.98 550.683 1006.83 517.354L1027.17 453.891L1037.33 530.594C1037.33 530.594 1026 594.932 1037.33 615.614C1037.33 615.614 1028.2 621.08 1032.25 624.247C1036.3 627.414 1039.83 624.876 1036.3 627.414C1032.77 629.952 1041.6 638.835 1041.6 638.835L1071.63 637.566L1088.62 517.354C1088.62 517.354 1091.49 504.817 1088.62 502.669C1085.76 500.52 1085.76 508.134 1085.76 500.52V490.369C1085.76 490.369 1098.56 427.931 1098.34 424.254C1098.12 420.577 1076.93 393.93 1076.93 393.93L962.137 392.712Z" fill="#510A32"/>
<path d="M1050.94 242.554L1007.1 240.388L993.981 255.25L962.385 264.479V337.689C965.673 344.778 967.372 352.197 967.419 359.668C967.299 374.254 962.081 391.436 963.887 395.198C981.549 431.998 1078.69 395.198 1078.69 395.198L1076.93 355.861L1079.32 266.96L1059.47 255.586L1050.94 242.554Z" fill="#EE4540"/>
<path d="M960.359 408.604L957.336 385.457L938.69 384.853L943.098 409.244C941.967 410.442 941.324 411.844 941.241 413.29C941.158 414.737 941.638 416.171 942.628 417.433C943.618 418.694 945.077 419.732 946.843 420.43C948.608 421.127 950.61 421.458 952.623 421.383C954.635 421.309 956.579 420.832 958.235 420.007C959.891 419.183 961.195 418.042 961.999 416.715C962.802 415.387 963.075 413.925 962.785 412.492C962.495 411.059 961.655 409.713 960.359 408.604L960.359 408.604Z" fill="#987654"/>
<path d="M969.535 262.526L969.018 262.589C964.21 263.175 959.673 264.593 955.8 266.722C951.927 268.851 948.835 271.626 946.791 274.807C941.451 283.103 924.113 337.641 931.713 345.865C937.608 352.244 936.176 351 933.405 355.811C930.634 360.623 926.171 355.488 929.829 363.125C933.486 370.761 937.506 369.672 934.11 372.622C930.715 375.573 927.232 374.995 930.534 379.936C933.836 384.878 933.299 386.546 933.924 388.407C934.548 390.268 934.005 403.357 934.005 403.357C934.005 403.357 953.922 402.272 963.833 405.675C963.833 405.675 958.303 392.456 961.43 390.339C964.557 388.222 968.308 387.967 965.63 384.886C962.953 381.806 956.88 381.676 963.489 380.137C970.099 378.599 967.97 351.008 967.97 351.008C978.856 330.527 974.555 296.839 969.535 262.526Z" fill="#EE4540"/>
<path d="M1089.63 410.256L1091.02 387.029L1109.6 385.75L1106.91 410.269C1108.13 411.425 1108.87 412.801 1109.05 414.243C1109.24 415.685 1108.86 417.135 1107.96 418.431C1107.06 419.726 1105.67 420.815 1103.96 421.576C1102.24 422.337 1100.27 422.74 1098.25 422.738C1096.24 422.737 1094.26 422.331 1092.55 421.568C1090.84 420.804 1089.46 419.713 1088.56 418.416C1087.66 417.119 1087.29 415.668 1087.48 414.227C1087.67 412.785 1088.41 411.41 1089.63 410.256Z" fill="#987654"/>
<path d="M1070.21 264.697L1070.73 264.741C1075.57 265.151 1080.2 266.404 1084.22 268.39C1088.24 270.375 1091.52 273.035 1093.78 276.138C1099.7 284.23 1118.42 339.037 1113.83 346.559C1109.56 353.573 1109.74 351.848 1112.84 356.553C1115.95 361.258 1120.04 355.969 1116.93 363.728C1113.81 371.488 1109.72 370.545 1113.32 373.369C1116.92 376.193 1120.35 375.489 1117.4 380.544C1114.45 385.598 1115.11 387.245 1114.61 389.126C1114.12 391.007 1115.58 404.06 1115.58 404.06C1115.58 404.06 1095.61 403.698 1085.95 407.456C1085.95 407.456 1090.55 394.053 1087.28 392.053C1084.01 390.052 1080.24 389.933 1082.7 386.759C1085.16 383.586 1091.21 383.236 1084.5 381.939C1077.79 380.642 1077.98 353.009 1077.98 353.009L1070.21 264.697Z" fill="#EE4540"/>
<path d="M1030.1 235.734C1048.98 235.734 1064.3 224.734 1064.3 211.165C1064.3 197.595 1048.98 186.595 1030.1 186.595C1011.21 186.595 995.9 197.595 995.9 211.165C995.9 224.734 1011.21 235.734 1030.1 235.734Z" fill="#987654"/>
<path d="M1053.9 232.196C1058.65 229.521 1059.12 224.424 1063.17 221.211C1069.96 215.838 1073.15 210.059 1069.59 203.693C1066.45 198.063 1067.12 191.141 1060.35 187.517C1063.67 186.652 1064.45 184.856 1061.52 184.823C1059.54 184.8 1052.16 187.518 1055.71 184.133C1059.26 180.748 1052.54 182.084 1052.99 180.698C1053.43 179.313 1056.28 178.545 1057.54 179.644C1056.48 178.865 1055.18 178.271 1053.75 177.906C1052.32 177.542 1050.8 177.417 1049.29 177.541C1047.78 177.664 1046.34 178.034 1045.06 178.621C1043.78 179.208 1042.7 179.997 1041.92 180.928C1037.92 176.621 1033.67 173.658 1027.55 176.391C1021.54 179.075 1021.62 182.393 1015.15 181.595C1012.11 181.221 1011.83 185.345 1009.75 186.983C1008.79 187.854 1007.54 188.538 1006.12 188.974C1004.7 189.409 1003.15 189.582 1001.61 189.477C998.58 189.066 996.264 186.353 997.961 184.504L990.821 196.208L987.943 193.672C983.37 195.813 984.872 201.4 989.475 203.508C994.078 205.615 1000.06 205.165 1005.36 204.231C1011.74 203.106 1018.33 202.713 1024.88 203.068C1034.89 204.083 1041.86 212.679 1038.15 219.435C1042 216.722 1049.11 218.974 1051.1 222.571C1053.1 226.169 1051.63 230.222 1050.16 233.945" fill="#2F2E41"/>
<defs>
<linearGradient id="paint0_linear_102_358" x1="969.727" y1="648.987" x2="988.891" y2="664.276" gradientUnits="userSpaceOnUse">
<stop stop-color="#EE4540"/>
<stop offset="1" stop-color="#2D142C"/>
</linearGradient>
<linearGradient id="paint1_linear_102_358" x1="1031.55" y1="648.987" x2="1050.71" y2="664.276" gradientUnits="userSpaceOnUse">
<stop stop-color="#EE4540"/>
<stop offset="1" stop-color="#2D142C"/>
</linearGradient>
</defs>
</svg>
