<svg width="1231" height="1064" viewBox="0 0 1231 1064" fill="none" xmlns="http://www.w3.org/2000/svg">
<g id="second-image">
<g id="circles">
<g id="BG Small Circle">
<path id="Ellipse 1429" d="M595.07 451.76C386.617 476.138 232 565.615 232 672.264C232 797.669 445.781 899.33 709.493 899.33C973.204 899.33 1186.99 797.669 1186.99 672.264C1186.99 562.164 1022.2 470.366 803.514 449.599" stroke="#EE4540" stroke-width="1.70856" stroke-linecap="round"/>
<path id="Ellipse 1430" d="M819.746 455.28C1030.3 478.946 1186.99 568.903 1186.99 676.263C1186.99 801.668 973.204 903.328 709.493 903.328C445.781 903.328 232 801.668 232 676.263C232 571.369 381.568 483.087 584.818 457.015" stroke="#EE4540" stroke-width="1.70856" stroke-linecap="round"/>
<path id="Ellipse 1431" d="M568.587 465.643C373.655 494.231 232 580.579 232 682.66C232 808.065 445.781 909.725 709.493 909.725C973.204 909.725 1186.99 808.065 1186.99 682.66C1186.99 577.27 1036 488.65 831.279 463.046" stroke="#EE4540" stroke-width="1.70856" stroke-linecap="round"/>
<path id="Ellipse 1432" d="M848.791 474.204C1044.55 502.553 1186.99 589.094 1186.99 691.456C1186.99 816.861 973.204 918.522 709.493 918.522C445.781 918.522 232 816.861 232 691.456C232 592.457 365.228 508.256 551.074 477.185" stroke="#EE4540" stroke-width="1.70856" stroke-linecap="round"/>
</g>
</g>
<g id="circle">
<rect x="394" y="144" width="630" height="630" rx="315" fill="url(#paint0_linear_122_198)"/>
</g>
<g id="programming-code">
<path id="Vector" d="M507.61 332.954H390.802C389.061 332.954 387.391 332.263 386.159 331.031C384.928 329.8 384.236 328.13 384.236 326.388C384.236 324.647 384.928 322.977 386.159 321.745C387.391 320.514 389.061 319.822 390.802 319.822H507.61C509.352 319.822 511.022 320.514 512.253 321.745C513.485 322.977 514.177 324.647 514.177 326.388C514.177 328.13 513.485 329.8 512.253 331.031C511.022 332.263 509.352 332.954 507.61 332.954V332.954Z" fill="#CCCCCC"/>
<path id="Vector_2" d="M652.757 332.954H535.948C534.207 332.954 532.537 332.263 531.305 331.031C530.074 329.8 529.382 328.13 529.382 326.388C529.382 324.647 530.074 322.977 531.305 321.745C532.537 320.514 534.207 319.822 535.948 319.822H652.757C654.498 319.822 656.168 320.514 657.4 321.745C658.631 322.977 659.323 324.647 659.323 326.388C659.323 328.13 658.631 329.8 657.4 331.031C656.168 332.263 654.498 332.954 652.757 332.954V332.954Z" fill="#CCCCCC"/>
<path id="Vector_3" d="M652.757 357.837H449.552C447.811 357.837 446.14 357.145 444.909 355.913C443.678 354.682 442.986 353.012 442.986 351.27C442.986 349.529 443.678 347.859 444.909 346.628C446.14 345.396 447.811 344.704 449.552 344.704H652.757C654.498 344.704 656.168 345.396 657.4 346.628C658.631 347.859 659.323 349.529 659.323 351.27C659.323 353.012 658.631 354.682 657.4 355.913C656.168 357.145 654.498 357.837 652.757 357.837Z" fill="#CCCCCC"/>
<path id="Vector_4" d="M507.61 307.727H390.802C389.062 307.724 387.394 307.032 386.165 305.801C384.935 304.569 384.244 302.901 384.244 301.16C384.244 299.42 384.935 297.752 386.165 296.52C387.394 295.289 389.062 294.597 390.802 294.594H507.61C508.473 294.593 509.328 294.762 510.126 295.092C510.923 295.421 511.648 295.905 512.259 296.515C512.869 297.124 513.354 297.849 513.684 298.646C514.015 299.443 514.185 300.298 514.185 301.16C514.185 302.023 514.015 302.878 513.684 303.675C513.354 304.472 512.869 305.196 512.259 305.806C511.648 306.416 510.923 306.9 510.126 307.229C509.328 307.559 508.473 307.728 507.61 307.727Z" fill="#CCCCCC"/>
<path id="Vector_5" d="M571.889 308.072H538.713C536.972 308.072 535.302 307.38 534.07 306.149C532.839 304.918 532.147 303.248 532.147 301.506C532.147 299.765 532.839 298.095 534.07 296.863C535.302 295.632 536.972 294.94 538.713 294.94H571.889C573.631 294.94 575.301 295.632 576.532 296.863C577.764 298.095 578.456 299.765 578.456 301.506C578.456 303.248 577.764 304.918 576.532 306.149C575.301 307.38 573.631 308.072 571.889 308.072Z" fill="#CCCCCC"/>
<path id="Vector_6" d="M423.979 357.837H390.802C389.062 357.834 387.394 357.142 386.165 355.911C384.935 354.679 384.244 353.011 384.244 351.27C384.244 349.53 384.935 347.862 386.165 346.63C387.394 345.399 389.062 344.706 390.802 344.704H423.979C424.842 344.703 425.696 344.872 426.494 345.202C427.291 345.531 428.016 346.015 428.627 346.625C429.237 347.234 429.722 347.959 430.052 348.756C430.383 349.553 430.553 350.408 430.553 351.27C430.553 352.133 430.383 352.988 430.052 353.785C429.722 354.582 429.237 355.306 428.627 355.916C428.016 356.526 427.291 357.01 426.494 357.339C425.696 357.669 424.842 357.838 423.979 357.837Z" fill="#CCCCCC"/>
<path id="Vector_7" d="M507.61 565.955H390.802C389.061 565.955 387.391 565.263 386.159 564.031C384.928 562.8 384.236 561.13 384.236 559.388C384.236 557.647 384.928 555.977 386.159 554.745C387.391 553.514 389.061 552.822 390.802 552.822H507.61C508.473 552.822 509.327 552.992 510.123 553.322C510.92 553.652 511.644 554.136 512.253 554.745C512.863 555.355 513.347 556.079 513.677 556.876C514.007 557.672 514.177 558.526 514.177 559.388C514.177 560.251 514.007 561.105 513.677 561.901C513.347 562.698 512.863 563.422 512.253 564.031C511.644 564.641 510.92 565.125 510.123 565.455C509.327 565.785 508.473 565.955 507.61 565.955V565.955Z" fill="#CCCCCC"/>
<path id="Vector_8" d="M652.757 565.955H535.948C534.207 565.955 532.537 565.263 531.305 564.031C530.074 562.8 529.382 561.13 529.382 559.388C529.382 557.647 530.074 555.977 531.305 554.745C532.537 553.514 534.207 552.822 535.948 552.822H652.757C653.619 552.822 654.473 552.992 655.269 553.322C656.066 553.652 656.79 554.136 657.4 554.745C658.009 555.355 658.493 556.079 658.823 556.876C659.153 557.672 659.323 558.526 659.323 559.388C659.323 560.251 659.153 561.105 658.823 561.901C658.493 562.698 658.009 563.422 657.4 564.031C656.79 564.641 656.066 565.125 655.269 565.455C654.473 565.785 653.619 565.955 652.757 565.955V565.955Z" fill="#CCCCCC"/>
<path id="Vector_9" d="M652.757 590.837H449.552C447.811 590.837 446.14 590.145 444.909 588.913C443.678 587.682 442.986 586.012 442.986 584.27C442.986 582.529 443.678 580.859 444.909 579.628C446.14 578.396 447.811 577.704 449.552 577.704H652.757C653.62 577.703 654.474 577.872 655.272 578.202C656.069 578.531 656.794 579.015 657.405 579.625C658.015 580.234 658.5 580.959 658.83 581.756C659.161 582.553 659.331 583.407 659.331 584.27C659.331 585.133 659.161 585.988 658.83 586.785C658.5 587.582 658.015 588.306 657.405 588.916C656.794 589.526 656.069 590.01 655.272 590.339C654.474 590.669 653.62 590.838 652.757 590.837Z" fill="#CCCCCC"/>
<path id="Vector_10" d="M507.61 540.727H390.802C389.061 540.727 387.391 540.035 386.159 538.803C384.928 537.572 384.236 535.902 384.236 534.16C384.236 532.419 384.928 530.749 386.159 529.518C387.391 528.286 389.061 527.594 390.802 527.594H507.61C509.352 527.594 511.022 528.286 512.253 529.518C513.485 530.749 514.177 532.419 514.177 534.16C514.177 535.902 513.485 537.572 512.253 538.803C511.022 540.035 509.352 540.727 507.61 540.727Z" fill="#CCCCCC"/>
<path id="Vector_11" d="M571.889 541.072H538.713C536.972 541.072 535.302 540.38 534.07 539.149C532.839 537.918 532.147 536.248 532.147 534.506C532.147 532.765 532.839 531.095 534.07 529.863C535.302 528.632 536.972 527.94 538.713 527.94H571.889C573.631 527.94 575.301 528.632 576.532 529.863C577.764 531.095 578.456 532.765 578.456 534.506C578.456 536.248 577.764 537.918 576.532 539.149C575.301 540.38 573.631 541.072 571.889 541.072V541.072Z" fill="#CCCCCC"/>
<path id="Vector_12" d="M423.979 590.837H390.802C389.061 590.837 387.391 590.145 386.159 588.913C384.928 587.682 384.236 586.012 384.236 584.27C384.236 582.529 384.928 580.859 386.159 579.628C387.391 578.396 389.061 577.704 390.802 577.704H423.979C424.842 577.703 425.696 577.872 426.494 578.202C427.291 578.531 428.016 579.015 428.627 579.625C429.237 580.234 429.722 580.959 430.052 581.756C430.383 582.553 430.553 583.407 430.553 584.27C430.553 585.133 430.383 585.988 430.052 586.785C429.722 587.582 429.237 588.306 428.627 588.916C428.016 589.526 427.291 590.01 426.494 590.339C425.696 590.669 424.842 590.838 423.979 590.837Z" fill="#CCCCCC"/>
<path id="Vector_13" d="M477.104 495.462C474.625 495.467 472.244 494.493 470.48 492.752L426.572 449.392C425.71 448.541 425.025 447.527 424.558 446.409C424.091 445.291 423.85 444.092 423.85 442.881C423.85 441.669 424.091 440.47 424.558 439.352C425.025 438.234 425.71 437.22 426.572 436.369L470.303 393.185C472.125 391.394 474.579 390.395 477.133 390.403C479.688 390.411 482.136 391.426 483.946 393.228C485.759 395.044 486.777 397.505 486.777 400.071C486.777 402.637 485.759 405.098 483.947 406.914L451.451 439.411C450.438 440.426 449.87 441.801 449.87 443.234C449.87 444.668 450.438 446.043 451.451 447.057L483.77 479.378C485.09 480.695 485.989 482.374 486.354 484.203C486.718 486.031 486.532 487.927 485.818 489.65C485.104 491.372 483.895 492.844 482.343 493.879C480.792 494.913 478.969 495.464 477.104 495.462Z" fill="#510A32"/>
<path id="Vector_14" d="M547.069 495.462C545.205 495.464 543.381 494.913 541.83 493.879C540.279 492.844 539.07 491.372 538.356 489.65C537.642 487.927 537.455 486.031 537.82 484.203C538.184 482.374 539.083 480.695 540.403 479.378L572.723 447.057C573.735 446.043 574.304 444.668 574.304 443.234C574.304 441.801 573.735 440.426 572.723 439.411L540.227 406.914C539.328 406.016 538.615 404.949 538.129 403.774C537.642 402.6 537.392 401.342 537.392 400.071C537.392 398.8 537.642 397.541 538.129 396.367C538.615 395.193 539.328 394.126 540.227 393.228V393.228C542.037 391.426 544.485 390.411 547.04 390.403C549.594 390.395 552.049 391.394 553.87 393.185L597.602 436.369C598.464 437.22 599.148 438.234 599.615 439.352C600.082 440.47 600.323 441.669 600.323 442.881C600.323 444.092 600.082 445.292 599.615 446.409C599.148 447.527 598.464 448.541 597.602 449.392L553.693 492.752C551.929 494.493 549.548 495.467 547.069 495.462Z" fill="#510A32"/>
</g>
</g>
<defs>
<linearGradient id="paint0_linear_122_198" x1="520" y1="202" x2="918" y2="752" gradientUnits="userSpaceOnUse">
<stop stop-color="#EE4540"/>
<stop offset="1" stop-color="#2D142C"/>
</linearGradient>
</defs>
</svg>
