<svg width="1440" height="819" viewBox="0 0 1440 819" fill="none" xmlns="http://www.w3.org/2000/svg">
<g id="third-image">
<g id="outer-circles">
<path id="Ellipse 1429" d="M516.195 5.75585C153.801 48.1378 -115 203.692 -115 389.102C-115 607.118 256.657 783.855 715.119 783.855C1173.58 783.855 1545.24 607.118 1545.24 389.102C1545.24 197.693 1258.76 38.1023 878.575 2" stroke="#EE4540" stroke-width="2.97033" stroke-linecap="round"/>
<path id="Ellipse 1430" d="M906.794 11.876C1272.85 53.0197 1545.24 209.41 1545.24 396.054C1545.24 614.069 1173.58 790.806 715.119 790.806C256.657 790.806 -115 614.069 -115 396.054C-115 213.696 145.023 60.2192 498.373 14.8921" stroke="#EE4540" stroke-width="2.97033" stroke-linecap="round"/>
<path id="Ellipse 1431" d="M470.155 29.8915C131.266 79.5919 -115 229.707 -115 407.175C-115 625.191 256.657 801.928 715.119 801.928C1173.58 801.928 1545.24 625.191 1545.24 407.175C1545.24 223.955 1282.75 69.8895 926.843 25.3778" stroke="#EE4540" stroke-width="2.97033" stroke-linecap="round"/>
<path id="Ellipse 1432" d="M957.289 44.7761C1297.62 94.0595 1545.24 244.512 1545.24 422.467C1545.24 640.483 1173.58 817.22 715.119 817.22C256.657 817.22 -115 640.483 -115 422.467C-115 250.359 116.616 103.976 439.709 49.9588" stroke="#EE4540" stroke-width="2.97033" stroke-linecap="round"/>
</g>
</g>
</svg>
